SplineFontDB: 3.2
FontName: Stereofidelic-Regular
FullName: Stereofidelic-Regular
FamilyName: Stereofidelic
Weight: Normal
Copyright: (c) 1999-2012 Typodermic Fonts Inc. See attached license agreement. If agreement is missing visit typodermicfonts.com for more info.
Version: 001.001
ItalicAngle: 0
UnderlinePosition: -143
UnderlineWidth: 20
Ascent: 753
Descent: 247
InvalidEm: 0
sfntRevision: 0x00040042
LayerCount: 2
Layer: 0 0 "Back" 1
Layer: 1 0 "Fore" 0
XUID: [1021 619 1163984223 4918435]
StyleMap: 0x0040
FSType: 4
OS2Version: 2
OS2_WeightWidthSlopeOnly: 0
OS2_UseTypoMetrics: 0
CreationTime: 1336581151
ModificationTime: 1681347111
PfmFamily: 81
TTFWeight: 400
TTFWidth: 5
LineGap: 0
VLineGap: 0
Panose: 1 1 1 0 0 0 0 0 0 0
OS2TypoAscent: 753
OS2TypoAOffset: 0
OS2TypoDescent: -247
OS2TypoDOffset: 0
OS2TypoLinegap: 200
OS2WinAscent: 953
OS2WinAOffset: 0
OS2WinDescent: 247
OS2WinDOffset: 0
HheadAscent: 953
HheadAOffset: 0
HheadDescent: -247
HheadDOffset: 0
OS2SubXSize: 200
OS2SubYSize: 400
OS2SubXOff: 0
OS2SubYOff: -20
OS2SupXSize: 200
OS2SupYSize: 400
OS2SupXOff: 0
OS2SupYOff: 500
OS2StrikeYSize: 50
OS2StrikeYPos: 250
OS2CapHeight: 700
OS2XHeight: 700
OS2Vendor: 'TYPO'
OS2CodePages: 20000083.00000000
OS2UnicodeRanges: a000002f.1000001b.00000000.00000000
Lookup: 4 0 0 "'frac' Diagonal Fractions in Latin lookup 0" { "'frac' Diagonal Fractions in Latin lookup 0 subtable"  } ['frac' ('latn' <'dflt' > ) ]
Lookup: 6 0 0 "'liga' Standard Ligatures in Latin lookup 1" { "'liga' Standard Ligatures in Latin lookup 1 contextual 0"  "'liga' Standard Ligatures in Latin lookup 1 contextual 1"  "'liga' Standard Ligatures in Latin lookup 1 contextual 2"  "'liga' Standard Ligatures in Latin lookup 1 contextual 3"  "'liga' Standard Ligatures in Latin lookup 1 contextual 4"  "'liga' Standard Ligatures in Latin lookup 1 contextual 5"  "'liga' Standard Ligatures in Latin lookup 1 contextual 6"  } ['liga' ('latn' <'dflt' > ) ]

StartChar: .notdef
Encoding: 65536 -1 0
Width: 452
GlyphClass: 1
Flags: MW
HStem: -200 21G<97.5 129 129 322> 691 105<217 277>
VStem: 354 66<539 601.5>
LayerCount: 2
Fore
SplineSet
322 -200 m 2
 129 -200 l 2
 66 -200 32 -172 32 -116 c 2
 32 711 l 2
 32 767 66 796 129 796 c 2
 322 796 l 2
 386 796 420 767 420 711 c 2
 420 -116 l 2
 420 -172 386 -200 322 -200 c 2
307 425 m 0
 331 467 354 513 354 565 c 0
 354 638 311 691 243 691 c 0
 191 691 150 652 119 575 c 1
 175 535 l 1
 199 582 220 604 242 604 c 0
 269 604 280 578 280 552 c 0
 280 495 230 437 199 378 c 0
 164 312 142 208 128 105 c 1
 198 95 l 1
 218 220 244 316 307 425 c 0
183 -67 m 1
 198 35 l 1
 122 43 l 1
 107 -58 l 1
 183 -67 l 1
EndSplineSet
Validated: 1
EndChar

StartChar: exclam
Encoding: 33 33 2
Width: 203
GlyphClass: 1
Flags: MW
HStem: 0 21G<95 95> 110 72 139 43 727 20G<111 111>
VStem: 38 82
LayerCount: 2
Fore
SplineSet
111 747 m 1x98
 130 183 l 1
 48 181 l 1
 29 744 l 1
 111 747 l 1x98
132 109 m 1
 200 112 l 1
 95 0 l 1
 -17 104 l 1
 50 106 l 1
 49 138 l 1
 131 140 l 1
 132 109 l 1
EndSplineSet
Validated: 8388609
Substitution2: "Single Substitution lookup 5 subtable" exclam.1
Substitution2: "'salt' Stylistic Alternatives in Latin lookup 4 subtable" exclam.2
EndChar

StartChar: quotedbl
Encoding: 34 34 3
Width: 276
GlyphClass: 1
Flags: MW
HStem: 676 21G<50 79 50 50> 896 20G<156 156>
VStem: 23 89<804 913> 156 89<808 916>
LayerCount: 2
Fore
SplineSet
245 913 m 1
 245 808 l 1
 234 768 224 726 212 681 c 1
 184 681 l 1
 165 762 l 2
 162 770 160 783 157 802 c 2
 156 916 l 1
 245 913 l 1
112 913 m 1
 112 804 l 1
 79 676 l 1
 50 676 l 1
 32 757 l 2
 29 765 27 779 24 798 c 2
 23 913 l 1
 112 913 l 1
EndSplineSet
Validated: 1
EndChar

StartChar: numbersign
Encoding: 35 35 4
Width: 621
GlyphClass: 1
Flags: MW
HStem: -27 21G<99 164 99 99 284 350 284 284> 200 74<60 163 38 183 60 349 60 230 436 544> 421 74<115 226 94 248 115 292 314 413 499 600> 704 20G<312 378 378 378 497 563 563 563>
LayerCount: 2
Fore
SplineSet
499 495 m 1
 621 495 l 1
 600 421 l 1
 478 421 l 1
 436 274 l 1
 565 274 l 1
 544 200 l 1
 415 200 l 1
 350 -27 l 1
 284 -27 l 1
 349 200 l 1
 230 200 l 1
 164 -27 l 1
 99 -27 l 1
 163 200 l 1
 38 200 l 1
 60 274 l 1
 183 274 l 1
 226 421 l 1
 94 421 l 1
 115 495 l 1
 248 495 l 1
 312 724 l 1
 378 724 l 1
 314 495 l 1
 432 495 l 1
 497 724 l 1
 563 724 l 1
 499 495 l 1
370 273 m 1
 413 421 l 1
 292 421 l 1
 250 273 l 1
 370 273 l 1
EndSplineSet
Validated: 1
EndChar

StartChar: dollar
Encoding: 36 36 5
Width: 317
GlyphClass: 1
Flags: MW
HStem: -95 21G<155 155> 839 20G<169 169>
VStem: 26 69<571.5 611.5 571.5 627> 139 38 147 30 147 44 237 72<161.5 215>
LayerCount: 2
Fore
SplineSet
309 187 m 0xe2
 309 85 264 8 190 -5 c 1
 193 -94 l 1
 155 -95 l 1
 154 -6 l 1
 95 6 54 40 33 95 c 1
 84 156 l 1
 97 124 120 99 151 82 c 1
 144 350 l 1
 65 417 26 494 26 581 c 0
 26 673 68 747 133 768 c 1
 131 858 l 1
 169 859 l 1
 171 769 l 1
 212 762 247 737 275 694 c 1
 231 635 l 1
 218 659 199 675 174 683 c 1
 180 439 l 1
 275 353 309 286 309 187 c 0xe2
142 470 m 1
 136 682 l 1
 109 660 95 630 95 593 c 0
 95 550 111 509 142 470 c 1
237 190 m 0
 237 240 219 284 182 321 c 1
 188 83 l 1
 221 98 237 133 237 190 c 0
EndSplineSet
Validated: 8388609
EndChar

StartChar: percent
Encoding: 37 37 6
Width: 415
GlyphClass: 1
Flags: MW
HStem: -35 52<320.5 340 320.5 356> 296 55<320 342> 340 74<92 114 92 130.5> 671 57<90.5 112.5> 712 20G<322 382 382 382>
VStem: 15 53<471 607 607 624> 134 54<471 606> 242 56<98 233 233 249> 364 50<75 95 95 231>
LayerCount: 2
Fore
SplineSet
188 606 m 2xb780
 188 469 l 2
 188 383 159 340 102 340 c 0
 44 340 15 384 15 471 c 2
 15 607 l 2
 15 675 51 728 104 728 c 0
 156 728 188 676 188 606 c 2xb780
322 732 m 1xcf80
 382 732 l 1
 115 -8 l 1
 56 -8 l 1
 322 732 l 1xcf80
414 231 m 2
 414 95 l 2
 414 8 385 -35 327 -35 c 0
 270 -35 242 9 242 98 c 2
 242 233 l 2
 242 312 272 351 331 351 c 0
 386 351 414 311 414 231 c 2
134 471 m 2
 134 624 l 2
 134 655 123 671 102 671 c 0
 79 671 68 655 68 624 c 2
 68 471 l 2
 68 433 80 414 104 414 c 0xb780
 124 414 134 433 134 471 c 2
364 75 m 2
 364 248 l 2
 364 280 353 296 331 296 c 0xd780
 309 296 298 280 298 249 c 2
 298 75 l 2
 298 45 310 17 331 17 c 0
 349 17 364 45 364 75 c 2
EndSplineSet
Validated: 1
EndChar

StartChar: ampersand
Encoding: 38 38 7
Width: 355
GlyphClass: 1
Flags: MW
HStem: -7 103<136.5 165 136.5 168> 703 66<136.5 161>
VStem: 24 83 46 61<585 639.5 585 646> 193 63<598 646.5> 281 65
LayerCount: 2
Fore
SplineSet
345 98 m 1xdc
 346 -1 l 1
 314 2 283 24 253 63 c 1
 223 16 188 -7 148 -7 c 0
 76 -7 24 71 24 164 c 0xec
 24 231 47 302 93 377 c 1
 62 460 46 534 46 597 c 0
 46 695 90 769 152 769 c 0
 214 769 256 699 256 612 c 0
 256 538 243 506 174 376 c 1
 191 327 216 275 248 218 c 1
 265 265 277 325 281 396 c 1
 346 376 l 1
 342 291 325 214 296 146 c 1
 311 123 327 107 345 98 c 1xdc
193 622 m 0
 193 671 171 703 151 703 c 0
 122 703 107 671 107 608 c 0
 107 562 119 510 143 452 c 1
 176 517 193 574 193 622 c 0
206 137 m 1
 184 168 157 220 126 293 c 1
 106 250 96 212 96 179 c 0
 96 134 119 96 154 96 c 0
 176 96 193 110 206 137 c 1
EndSplineSet
Validated: 1
EndChar

StartChar: quotesingle
Encoding: 39 39 8
Width: 118
GlyphClass: 1
Flags: MW
HStem: 670 21G<32 61 32 32> 887 20G<17 105 105 105>
VStem: 17 88<791 907 907 907>
LayerCount: 2
Fore
SplineSet
105 907 m 1
 106 797 l 1
 91 758 77 715 61 670 c 1
 32 670 l 1
 50 791 l 1
 17 791 l 1
 17 907 l 1
 105 907 l 1
EndSplineSet
Validated: 1
EndChar

StartChar: parenleft
Encoding: 40 40 9
Width: 215
GlyphClass: 1
Flags: MW
HStem: -81 21G<170 170> 767 20G<183 183>
VStem: 36 72<329.5 470>
LayerCount: 2
Fore
SplineSet
218 -42 m 1
 170 -81 l 1
 81 74 36 236 36 405 c 0
 36 535 63 661 118 784 c 1
 183 787 l 1
 133 668 108 543 108 411 c 0
 108 248 145 97 218 -42 c 1
EndSplineSet
Validated: 1
EndChar

StartChar: parenright
Encoding: 41 41 10
Width: 187
GlyphClass: 1
Flags: MW
HStem: -102 21G<68 68> 743 20G<25 92 92 92>
VStem: 114 73<281 427.5>
LayerCount: 2
Fore
SplineSet
187 357 m 0
 187 197 147 44 68 -102 c 1
 20 -65 l 1
 83 66 114 206 114 356 c 0
 114 499 84 635 25 763 c 1
 92 763 l 1
 155 634 187 498 187 357 c 0
EndSplineSet
Validated: 1
EndChar

StartChar: asterisk
Encoding: 42 42 11
Width: 519
GlyphClass: 1
Flags: MW
HStem: 252 21G<189 189 328 328> 663 20G<189 328 328 328>
LayerCount: 2
Fore
SplineSet
443 601 m 1
 486 468 l 1
 298 456 l 1
 443 336 l 1
 328 252 l 1
 259 427 l 1
 189 252 l 1
 76 336 l 1
 220 456 l 1
 33 468 l 1
 76 601 l 1
 236 501 l 1
 189 683 l 1
 328 683 l 1
 283 501 l 1
 443 601 l 1
EndSplineSet
Validated: 1
EndChar

StartChar: plus
Encoding: 43 43 12
Width: 246
GlyphClass: 1
Flags: MW
HStem: 142 21G<102 161 102 102> 268 71<15 102 15 102 161 246 15 161> 444 20G<102 161 161 161>
VStem: 102 59<142 268 142 268 339 464>
LayerCount: 2
Fore
SplineSet
246 339 m 1
 246 268 l 1
 161 268 l 1
 161 142 l 1
 102 142 l 1
 102 268 l 1
 15 268 l 1
 15 339 l 1
 102 339 l 1
 102 464 l 1
 161 464 l 1
 161 339 l 1
 246 339 l 1
EndSplineSet
Validated: 1
EndChar

StartChar: comma
Encoding: 44 44 13
Width: 137
GlyphClass: 1
Flags: MW
HStem: -125 21G<58 86 58 58> -4 21G<42 75 42 42> 92 20G<130 130>
VStem: 42 88<93.5 111 111 111>
LayerCount: 2
Fore
SplineSet
131 30 m 2
 131 2 l 1
 116 -37 102 -78 86 -125 c 1
 58 -125 l 1
 75 -4 l 1
 42 -4 l 1
 42 111 l 1
 130 112 l 1
 130 75 131 47 131 30 c 2
EndSplineSet
Validated: 1
EndChar

StartChar: hyphen
Encoding: 45 45 14
Width: 226
GlyphClass: 1
Flags: MW
HStem: 248 64<37 224 37 224>
LayerCount: 2
Fore
SplineSet
224 312 m 1
 224 248 l 1
 37 248 l 1
 37 312 l 1
 224 312 l 1
EndSplineSet
Validated: 1
EndChar

StartChar: period
Encoding: 46 46 15
Width: 138
GlyphClass: 1
Flags: MW
HStem: 8 21G<54 54> 9 103
VStem: 54 77<10 112 10 112 10 112>
LayerCount: 2
Fore
SplineSet
131 112 m 1x60
 131 10 l 1
 54 8 l 1xa0
 54 112 l 1
 131 112 l 1x60
EndSplineSet
Validated: 1
EndChar

StartChar: slash
Encoding: 47 47 16
Width: 273
GlyphClass: 1
Flags: MW
HStem: -75 21G<-21 32 -21 -21> 759 20G<219 273 273 273>
LayerCount: 2
Fore
SplineSet
219 779 m 1
 273 779 l 1
 32 -75 l 1
 -21 -75 l 1
 219 779 l 1
EndSplineSet
Validated: 1
EndChar

StartChar: zero
Encoding: 48 48 17
Width: 324
GlyphClass: 1
Flags: MW
HStem: -86 90<158.5 193 158.5 217.5> 595 92<164 198>
VStem: 49 74 233 76
LayerCount: 2
Fore
SplineSet
314 503 m 0
 314 492 313 364 309 112 c 0
 307 -20 262 -86 173 -86 c 0
 83 -86 43 -17 43 119 c 0
 43 152 46 282 49 506 c 0
 50 627 95 687 186 687 c 0
 267 687 314 611 314 503 c 0
230 83 m 2
 237 526 l 2
 237 562 214 595 182 595 c 0
 146 595 127 565 127 528 c 2
 120 84 l 2
 119 43 141 4 176 4 c 0
 210 4 229 40 230 83 c 2
EndSplineSet
Validated: 33
Substitution2: "Single Substitution lookup 5 subtable" zero.1
Substitution2: "'sinf' Scientific Inferiors in Latin lookup 3 subtable" zeroinferior
Substitution2: "'sups' Superscript in Latin lookup 2 subtable" zerosuperior
EndChar

StartChar: one
Encoding: 49 49 18
Width: 174
GlyphClass: 1
Flags: MW
HStem: 26 21G<75 75> 748 20G<136 136>
VStem: 68 77
LayerCount: 2
Fore
SplineSet
136 768 m 1
 155 29 l 1
 75 26 l 1
 61 613 l 1
 -13 610 l 1
 -14 674 l 1
 29 695 62 726 83 766 c 1
 136 768 l 1
EndSplineSet
Validated: 1
Substitution2: "Single Substitution lookup 5 subtable" one.1
Substitution2: "'sinf' Scientific Inferiors in Latin lookup 3 subtable" oneinferior
Substitution2: "'sups' Superscript in Latin lookup 2 subtable" onesuperior
EndChar

StartChar: two
Encoding: 50 50 19
Width: 306
GlyphClass: 1
Flags: MW
HStem: 46 21G<31 31> 49 94 719 85<138.5 176.5>
VStem: 29 73<562 569 569 580 562 647.5> 212 72<618.5 671>
LayerCount: 2
Fore
SplineSet
286 145 m 1x78
 288 52 l 1
 31 46 l 1xb8
 29 145 l 1
 77 231 130 344 165 444 c 0
 195 531 212 590 212 647 c 0
 212 695 194 719 159 719 c 0
 118 719 102 678 102 580 c 2
 102 562 l 1
 29 562 l 1
 29 569 l 2
 29 726 69 804 161 804 c 0
 239 804 284 741 284 631 c 0
 284 564 264 480 224 380 c 0
 204 329 166 249 111 142 c 1
 286 145 l 1x78
EndSplineSet
Validated: 1
Substitution2: "Single Substitution lookup 5 subtable" two.1
Substitution2: "'sinf' Scientific Inferiors in Latin lookup 3 subtable" twoinferior
Substitution2: "'sups' Superscript in Latin lookup 2 subtable" twosuperior
EndChar

StartChar: three
Encoding: 51 51 20
Width: 305
GlyphClass: 1
Flags: MW
HStem: -76 90<138.5 173.5 138.5 199.5> 610 93<121 153.5>
VStem: 17 83 187 69<447.5 526> 208 72<79.5 178>
LayerCount: 2
Fore
SplineSet
280 126 m 0xe8
 280 -9 240 -76 159 -76 c 0
 77 -76 32 2 25 158 c 1
 100 161 l 1
 103 63 121 14 156 14 c 0
 191 14 208 47 208 112 c 0xe8
 208 244 181 276 113 276 c 1
 111 367 l 1
 162 372 187 411 187 484 c 0
 187 568 170 610 137 610 c 0
 105 610 89 577 89 511 c 0
 89 499 89 489 92 476 c 1
 17 474 l 1
 17 505 l 2
 17 626 64 703 138 703 c 0
 217 703 256 628 256 477 c 0xf0
 256 404 238 354 202 325 c 1
 258 294 280 245 280 126 c 0xe8
EndSplineSet
Validated: 1
Substitution2: "Single Substitution lookup 5 subtable" three.1
Substitution2: "'sinf' Scientific Inferiors in Latin lookup 3 subtable" threeinferior
Substitution2: "'sups' Superscript in Latin lookup 2 subtable" threesuperior
EndChar

StartChar: four
Encoding: 52 52 21
Width: 325
GlyphClass: 1
Flags: MW
HStem: 68 21G<181 181> 249 85 790 20G<230 230>
VStem: 166 72 166 86
LayerCount: 2
Fore
SplineSet
313 340 m 1xe0
 317 257 l 1
 249 255 l 1
 255 70 l 1
 181 68 l 1
 174 252 l 1
 19 246 l 1
 15 337 l 1
 152 808 l 1
 230 810 l 1
 246 338 l 1
 313 340 l 1xe0
81 332 m 1
 171 336 l 1
 161 635 l 1
 81 332 l 1
EndSplineSet
Validated: 8388609
Substitution2: "Single Substitution lookup 5 subtable" four.1
Substitution2: "'sinf' Scientific Inferiors in Latin lookup 3 subtable" fourinferior
Substitution2: "'sups' Superscript in Latin lookup 2 subtable" foursuperior
EndChar

StartChar: five
Encoding: 53 53 22
Width: 299
GlyphClass: 1
Flags: MW
HStem: -43 85<148 178 148 200> 390 85<163 237> 643 90<121 287 121 121>
VStem: 44 75 60 59<330 733> 218 72
LayerCount: 2
Fore
SplineSet
293 328 m 0xec
 293 327 293 260 290 131 c 0
 288 18 239 -43 161 -43 c 0
 77 -43 44 26 44 213 c 1xf4
 115 212 l 1
 114 203 114 195 114 188 c 2
 114 169 l 2
 114 84 131 42 165 42 c 0
 191 42 218 76 218 126 c 0
 220 243 221 309 221 322 c 0
 221 367 206 390 176 390 c 0
 150 390 131 370 119 330 c 1
 60 334 l 1
 60 733 l 1
 287 733 l 1
 287 643 l 1
 121 643 l 1
 118 415 l 1
 151 455 182 475 209 475 c 0
 265 475 293 426 293 328 c 0xec
EndSplineSet
Validated: 1
Substitution2: "Single Substitution lookup 5 subtable" five.1
Substitution2: "'sinf' Scientific Inferiors in Latin lookup 3 subtable" fiveinferior
Substitution2: "'sups' Superscript in Latin lookup 2 subtable" fivesuperior
EndChar

StartChar: six
Encoding: 54 54 23
Width: 322
GlyphClass: 1
Flags: MW
HStem: -8 89<161 193 161 235.5> 375 83<199.5 201.5> 651 92<161 197>
VStem: 44 80 233 80
LayerCount: 2
Fore
SplineSet
313 286 m 0
 313 90 295 -8 176 -8 c 0
 88 -8 44 59 44 194 c 2
 45 560 l 2
 45 669 92 743 181 743 c 0
 266 743 310 669 311 520 c 1
 232 520 l 1
 233 541 l 2
 233 614 215 651 179 651 c 0
 143 651 124 619 124 583 c 2
 124 399 l 1
 154 438 184 458 215 458 c 0
 280 458 313 401 313 286 c 0
232 162 m 2
 232 308 l 2
 232 353 217 375 186 375 c 0
 162 375 141 357 124 320 c 1
 123 162 l 2
 123 120 145 81 177 81 c 0
 209 81 232 119 232 162 c 2
EndSplineSet
Validated: 1
Substitution2: "Single Substitution lookup 5 subtable" six.1
Substitution2: "'sinf' Scientific Inferiors in Latin lookup 3 subtable" sixinferior
Substitution2: "'sups' Superscript in Latin lookup 2 subtable" sixsuperior
EndChar

StartChar: seven
Encoding: 55 55 24
Width: 257
GlyphClass: 1
Flags: MW
HStem: -56 21G<138 138> 612 92 689 20G<40 40>
LayerCount: 2
Fore
SplineSet
40 709 m 1xa0
 281 700 l 1
 281 681 280 656 277 627 c 2
 138 -56 l 1
 62 -54 l 1
 200 609 l 1
 36 616 l 1
 40 709 l 1xa0
EndSplineSet
Validated: 8388609
Substitution2: "Single Substitution lookup 5 subtable" seven.1
Substitution2: "'sinf' Scientific Inferiors in Latin lookup 3 subtable" seveninferior
Substitution2: "'sups' Superscript in Latin lookup 2 subtable" sevensuperior
EndChar

StartChar: eight
Encoding: 56 56 25
Width: 300
GlyphClass: 1
Flags: MW
HStem: 31 90<142 177.5 142 201.5> 387 103<140 172 140 175.5> 727 75<138 170>
VStem: 36 70<574 651.5 572.5 678> 202 71<569 645.5> 202 84
LayerCount: 2
Fore
SplineSet
286 238 m 0xf4
 286 100 244 31 159 31 c 0
 72 31 29 106 29 257 c 0
 29 344 50 405 93 440 c 1
 55 473 36 532 36 616 c 0
 36 740 75 802 154 802 c 0
 233 802 273 737 273 608 c 0xf8
 273 530 255 474 219 440 c 1
 264 411 286 344 286 238 c 0xf4
202 605 m 0
 202 686 186 727 154 727 c 0
 122 727 106 689 106 614 c 0
 106 531 123 490 157 490 c 0
 187 490 202 528 202 605 c 0
211 253 m 0
 211 342 193 387 158 387 c 0
 122 387 104 346 104 265 c 0
 104 169 123 121 161 121 c 0
 194 121 211 165 211 253 c 0
EndSplineSet
Validated: 1
Substitution2: "Single Substitution lookup 5 subtable" eight.1
Substitution2: "'sinf' Scientific Inferiors in Latin lookup 3 subtable" eightinferior
Substitution2: "'sups' Superscript in Latin lookup 2 subtable" eightsuperior
EndChar

StartChar: nine
Encoding: 57 57 26
Width: 320
GlyphClass: 1
Flags: MW
HStem: -38 92<144 181.5 144 205.5> 293 82<132 140> 663 93<123 157.5>
VStem: 8 81<553.5 610.5 553.5 616> 29 78<102 182> 201 85 213 83
LayerCount: 2
Fore
SplineSet
277 559 m 2xf4
 295 170 l 2
 296 156 296 144 296 133 c 0xf2
 296 26 248 -38 163 -38 c 0
 80 -38 29 25 29 179 c 1
 107 182 l 1xec
 109 77 124 54 164 54 c 0
 199 54 219 84 219 120 c 2
 208 351 l 1
 181 312 154 293 126 293 c 0
 47 293 8 377 8 546 c 0
 8 686 53 756 143 756 c 0
 226 756 271 690 277 559 c 2xf4
205 431 m 1
 198 588 l 2
 196 638 175 663 140 663 c 0
 106 663 89 637 89 584 c 0
 89 523 91 499 94 470 c 0
 101 405 116 375 148 375 c 0
 175 375 190 396 205 431 c 1
EndSplineSet
Validated: 1
Substitution2: "Single Substitution lookup 5 subtable" nine.1
Substitution2: "'sinf' Scientific Inferiors in Latin lookup 3 subtable" nineinferior
Substitution2: "'sups' Superscript in Latin lookup 2 subtable" ninesuperior
EndChar

StartChar: colon
Encoding: 58 58 27
Width: 131
GlyphClass: 1
Flags: MW
HStem: 10 21G<55 55> 11 103 225 102 308 20G<119 119>
VStem: 53 68
LayerCount: 2
Fore
SplineSet
119 328 m 1x58
 123 226 l 1
 46 224 l 1
 43 326 l 1
 119 328 l 1x58
127 115 m 1
 131 13 l 1
 55 10 l 1xa8
 51 113 l 1
 127 115 l 1
EndSplineSet
Validated: 1
EndChar

StartChar: semicolon
Encoding: 59 59 28
Width: 131
GlyphClass: 1
Flags: MW
HStem: -161 21G<81 81> 76 111 187 102 270 20G<62 62>
VStem: 62 69
LayerCount: 2
Fore
SplineSet
62 290 m 1x98
 136 288 l 1
 136 186 l 1
 62 188 l 1
 62 290 l 1x98
57 77 m 1
 133 75 l 1
 130 -33 l 1
 117 -70 100 -112 81 -161 c 1
 52 -159 l 1
 87 -26 l 1
 54 -25 l 1
 57 77 l 1
EndSplineSet
Validated: 8388609
EndChar

StartChar: less
Encoding: 60 60 29
Width: 480
GlyphClass: 1
Flags: MW
HStem: 64 21G<478 478> 611 20G<464 464>
LayerCount: 2
Fore
SplineSet
476 143 m 1
 478 64 l 1
 -7 299 l 1
 -10 371 l 1
 464 631 l 1
 466 551 l 1
 70 337 l 1
 476 143 l 1
EndSplineSet
Validated: 1
EndChar

StartChar: equal
Encoding: 61 61 30
Width: 215
GlyphClass: 1
Flags: MW
HStem: 144 68<30 218 30 218> 359 70 411 20G<33 33>
VStem: 33 187<359 428 359 431 359 431>
LayerCount: 2
Fore
SplineSet
33 431 m 1xb0
 220 428 l 1
 220 359 l 1
 33 359 l 1xd0
 33 431 l 1xb0
30 212 m 1xb0
 218 212 l 1
 218 144 l 1
 30 144 l 1
 30 212 l 1xb0
EndSplineSet
Validated: 1
EndChar

StartChar: greater
Encoding: 62 62 31
Width: 480
GlyphClass: 1
Flags: MW
HStem: 74 21G<-2 -2> 620 20G<-23 -23>
LayerCount: 2
Fore
SplineSet
466 409 m 1
 469 337 l 1
 -2 74 l 1
 -5 152 l 1
 389 370 l 1
 -19 560 l 1
 -23 640 l 1
 466 409 l 1
EndSplineSet
Validated: 1
EndChar

StartChar: question
Encoding: 63 63 32
Width: 252
GlyphClass: 1
Flags: MW
HStem: -13 21G<118 118> 684 86<82 107.5>
VStem: 69 69<243 271.5> 137 71<610.5 639>
LayerCount: 2
Fore
SplineSet
208 626 m 0xd0
 208 595 201 560 186 519 c 0
 154 431 138 343 138 255 c 0
 138 231 138 202 140 175 c 1
 71 171 l 1
 70 179 69 200 69 225 c 0xe0
 69 318 73 395 89 453 c 0
 100 492 137 586 137 625 c 0
 137 653 121 684 94 684 c 0
 70 684 51 657 36 602 c 1
 -27 631 l 1
 -10 724 30 770 93 770 c 0
 162 770 208 715 208 626 c 0xd0
152 98 m 1
 219 102 l 1
 118 -13 l 1
 4 89 l 1
 70 93 l 1
 68 124 l 1
 150 129 l 1
 152 98 l 1
EndSplineSet
Validated: 1
Substitution2: "Single Substitution lookup 5 subtable" question.1
Substitution2: "'salt' Stylistic Alternatives in Latin lookup 4 subtable" question.2
EndChar

StartChar: at
Encoding: 64 64 33
Width: 465
GlyphClass: 1
Flags: MW
HStem: 82 69<189 268.5 189 272.5> 227 65 484 62<234 257.5 208 262.5> 634 68<206 312.5>
VStem: 6 62<310 440 310 476> 118 68<331.5 388 331.5 397> 284 197<401.5 448.5> 419 62<418.5 505>
LayerCount: 2
Fore
SplineSet
481 452 m 0xfd
 481 339 417 226 334 226 c 0
 300 226 280 238 273 261 c 1
 256 238 234 227 205 227 c 0
 147 227 118 268 118 350 c 0
 118 444 171 546 245 546 c 0
 270 546 290 535 303 514 c 1
 312 531 l 1
 370 531 l 1
 331 325 l 2
 330 322 330 317 330 311 c 0
 330 298 334 292 343 292 c 0
 391 292 419 386 419 451 c 0
 419 559 358 634 267 634 c 0
 145 634 68 509 68 371 c 0
 68 249 136 151 242 151 c 0
 295 151 346 174 397 221 c 1
 424 169 l 1
 367 111 306 82 239 82 c 0
 99 82 6 226 6 374 c 0
 6 578 135 702 267 702 c 0
 390 702 481 590 481 452 c 0xfd
284 431 m 0xfe
 284 466 273 484 252 484 c 0
 216 484 186 420 186 356 c 0
 186 307 196 283 217 283 c 0
 250 283 284 372 284 431 c 0xfe
EndSplineSet
Validated: 1
EndChar

StartChar: A
Encoding: 65 65 34
Width: 328
GlyphClass: 1
Flags: MW
HStem: 33 21G<246 330 246 246> 221 91 776 20G<131 242 242 242>
LayerCount: 2
Fore
SplineSet
242 796 m 1
 330 33 l 1
 246 33 l 1
 223 219 l 1
 117 223 l 1
 93 61 l 1
 14 61 l 1
 131 796 l 1
 242 796 l 1
130 313 m 1
 215 311 l 1
 184 644 l 1
 130 313 l 1
EndSplineSet
Validated: 1
Substitution2: "Single Substitution lookup 7 subtable" A
Substitution2: "Single Substitution lookup 6 subtable" A.1
Substitution2: "Single Substitution lookup 5 subtable" a
EndChar

StartChar: B
Encoding: 66 66 35
Width: 367
GlyphClass: 1
Flags: MW
HStem: -29 94<189 191 136 237.5> 305 91<142 181> 619 95<74 150>
VStem: 64 75 252 81
LayerCount: 2
Fore
SplineSet
334 531 m 0
 334 452 309 390 259 346 c 1
 308 309 333 250 333 171 c 0
 333 38 285 -29 190 -29 c 0
 188 -29 143 -28 54 -25 c 1
 74 714 l 1
 170 713 232 706 259 693 c 0
 309 670 334 616 334 531 c 0
252 516 m 0
 252 616 220 614 150 619 c 1
 145 397 l 1
 152 397 l 2
 155 397 159 397 163 396 c 2
 181 396 l 2
 228 396 252 436 252 516 c 0
250 194 m 0
 250 280 228 303 142 305 c 1
 136 65 l 1
 150 65 l 2
 232 65 250 80 250 194 c 0
EndSplineSet
Validated: 1
Substitution2: "Single Substitution lookup 7 subtable" B
Substitution2: "Single Substitution lookup 6 subtable" B.1
Substitution2: "Single Substitution lookup 5 subtable" b
EndChar

StartChar: C
Encoding: 67 67 36
Width: 324
GlyphClass: 1
Flags: MW
HStem: 12 88<161.5 195.5 161.5 220.5> 696 88<145 180>
VStem: 33 82 214 81<577.5 626> 232 79<178 243.5>
LayerCount: 2
Fore
SplineSet
311 249 m 0xe8
 311 91 266 12 175 12 c 0
 89 12 41 78 38 211 c 2
 29 608 l 2
 29 717 77 784 168 784 c 0
 238 784 295 740 295 597 c 0
 295 558 295 537 293 516 c 1
 211 514 l 1
 212 531 214 558 214 591 c 0xf0
 214 661 197 696 163 696 c 0
 127 696 109 669 109 614 c 2
 122 186 l 2
 124 122 146 100 177 100 c 0
 214 100 232 139 232 217 c 0
 232 270 231 289 229 305 c 1
 309 307 l 1
 310 294 311 282 311 249 c 0xe8
EndSplineSet
Validated: 1
Substitution2: "Single Substitution lookup 7 subtable" C
Substitution2: "Single Substitution lookup 6 subtable" C.1
Substitution2: "Single Substitution lookup 5 subtable" c
EndChar

StartChar: D
Encoding: 68 68 37
Width: 342
GlyphClass: 1
Flags: MW
HStem: -25 98<121.5 169 133 143> -24 21G<49 99 49 49> 622 95 698 20G<175 223>
VStem: 49 84<73 622 73 716> 240 81
LayerCount: 2
Fore
SplineSet
324 175 m 0x5c
 324 18 278 -25 143 -25 c 2
 125 -25 l 2xac
 118 -25 109 -25 99 -24 c 2
 49 -24 l 1
 49 716 l 1
 175 718 l 2
 271 718 320 652 321 519 c 0
 322 300 324 186 324 175 c 0x5c
242 161 m 2
 238 525 l 2
 237 601 213 622 136 622 c 2
 133 622 l 1
 133 73 l 1
 169 73 l 2
 223 73 243 92 242 161 c 2
EndSplineSet
Validated: 33
Substitution2: "Single Substitution lookup 7 subtable" D
Substitution2: "Single Substitution lookup 6 subtable" D.1
Substitution2: "Single Substitution lookup 5 subtable" d
EndChar

StartChar: E
Encoding: 69 69 38
Width: 276
GlyphClass: 1
Flags: MW
HStem: 26 21G<54 54> 29 99 369 94 677 92 754 20G<237 237>
VStem: 40 75
LayerCount: 2
Fore
SplineSet
270 131 m 1x74
 273 33 l 1
 54 26 l 1xb4
 27 765 l 1
 237 774 l 1x6c
 239 679 l 1
 112 675 l 1
 119 462 l 1
 227 465 l 1
 230 371 l 1
 123 368 l 1
 131 126 l 1
 270 131 l 1x74
EndSplineSet
Validated: 1
Substitution2: "Single Substitution lookup 7 subtable" E
Substitution2: "Single Substitution lookup 6 subtable" E.1
Substitution2: "Single Substitution lookup 5 subtable" e
EndChar

StartChar: F
Encoding: 70 70 39
Width: 263
GlyphClass: 1
Flags: MW
HStem: -23 21G<55 55> 318 95<129 234 126 237 129 129> 626 92 701 20G<250 250>
VStem: 47 85
LayerCount: 2
Fore
SplineSet
250 721 m 1xd8
 250 626 l 1
 121 626 l 1xe8
 126 413 l 1
 234 413 l 1
 237 318 l 1
 129 318 l 1
 136 -21 l 1
 55 -23 l 1
 39 716 l 1
 250 721 l 1xd8
EndSplineSet
Validated: 1
Substitution2: "Single Substitution lookup 7 subtable" F
Substitution2: "Single Substitution lookup 6 subtable" F.1
Substitution2: "Single Substitution lookup 5 subtable" f
EndChar

StartChar: G
Encoding: 71 71 40
Width: 322
GlyphClass: 1
Flags: MW
HStem: -6 86<161.5 173.5> 675 89<161.5 196.5>
VStem: 43 82<194 582 582 589> 179 125 234 70
LayerCount: 2
Fore
SplineSet
312 374 m 1xf0
 312 7 l 1
 249 7 l 1
 245 60 l 1
 224 16 193 -6 154 -6 c 0
 81 -6 43 76 43 194 c 2
 43 582 l 2
 43 692 94 764 183 764 c 0
 262 764 304 710 304 595 c 0
 304 549 303 523 300 495 c 1
 225 495 l 1
 227 512 230 541 230 587 c 0
 230 646 213 675 180 675 c 0
 143 675 125 646 125 589 c 2
 125 167 l 2
 125 109 143 80 180 80 c 0
 216 80 234 109 234 167 c 2
 234 293 l 1xe8
 179 293 l 1
 179 374 l 1
 312 374 l 1xf0
EndSplineSet
Validated: 1
Substitution2: "Single Substitution lookup 7 subtable" G
Substitution2: "Single Substitution lookup 6 subtable" G.1
Substitution2: "Single Substitution lookup 5 subtable" g
EndChar

StartChar: H
Encoding: 72 72 41
Width: 338
GlyphClass: 1
Flags: MW
HStem: 0 21G<240 321 240 240> 341 93 725 20G<74 154 154 154>
VStem: 64 74 244 86
LayerCount: 2
Fore
SplineSet
259 720 m 1
 339 718 l 1
 321 0 l 1
 240 0 l 1
 249 340 l 1
 143 343 l 1
 134 26 l 1
 55 29 l 1
 74 745 l 1
 154 745 l 1
 145 436 l 1
 252 433 l 1
 259 720 l 1
EndSplineSet
Validated: 1
Substitution2: "Single Substitution lookup 7 subtable" H
Substitution2: "Single Substitution lookup 6 subtable" H.1
Substitution2: "Single Substitution lookup 5 subtable" h
EndChar

StartChar: I
Encoding: 73 73 42
Width: 211
GlyphClass: 1
Flags: MW
HStem: 61 63<71 152 71 154> 175 85 303 85<75 156 75 156> 432 85 560 85<77 161 77 161> 645 44<161 161> 807 20G<121 121>
VStem: 78 82
LayerCount: 2
Fore
SplineSet
121 827 m 1xf7
 228 719 l 1
 162 719 l 1
 162 689 l 1
 80 689 l 1
 80 721 l 1
 12 721 l 1
 121 827 l 1xf7
79 646 m 1
 161 645 l 1
 159 560 l 1
 77 560 l 1xfb
 79 646 l 1
77 518 m 1
 158 516 l 1
 158 432 l 1
 77 432 l 1
 77 518 l 1
75 389 m 1
 156 388 l 1
 156 303 l 1
 75 303 l 1
 75 389 l 1
74 261 m 1
 155 259 l 1
 155 175 l 1
 74 175 l 1
 74 261 l 1
71 124 m 1
 154 124 l 1
 152 61 l 1
 71 61 l 1
 71 124 l 1
EndSplineSet
Validated: 1
Substitution2: "Single Substitution lookup 7 subtable" I
Substitution2: "Single Substitution lookup 6 subtable" I.1
Substitution2: "Single Substitution lookup 5 subtable" i
Substitution2: "'salt' Stylistic Alternatives in Latin lookup 4 subtable" dotlessi
EndChar

StartChar: J
Encoding: 74 74 43
Width: 346
GlyphClass: 1
Flags: MW
HStem: -2 88<161.5 199 161.5 226> 243 66 746 20G<214 214>
VStem: 39 82<242 242> 223 72 223 91
LayerCount: 2
Fore
SplineSet
314 205 m 1xf4
 315 186 l 1
 315 61 273 -2 179 -2 c 0
 78 -2 46 58 39 242 c 1
 121 245 l 1
 121 199 l 2
 121 124 141 86 182 86 c 0
 216 86 233 110 233 159 c 2
 214 766 l 1
 295 759 l 1xf8
 302 635 306 452 314 205 c 1xf4
74 420 m 1xf4
 186 315 l 1
 119 313 l 1
 120 282 l 1
 38 278 l 1
 37 311 l 1
 -30 308 l 1
 74 420 l 1xf4
EndSplineSet
Validated: 1
Substitution2: "Single Substitution lookup 7 subtable" J
Substitution2: "Single Substitution lookup 6 subtable" J.1
Substitution2: "Single Substitution lookup 5 subtable" j
Substitution2: "'salt' Stylistic Alternatives in Latin lookup 4 subtable" .notdef
EndChar

StartChar: K
Encoding: 75 75 44
Width: 343
GlyphClass: 1
Flags: MW
HStem: 1 21G<259 259> 738 20G<108 108>
VStem: 41 73 41 88
LayerCount: 2
Fore
SplineSet
343 4 m 1xc0
 259 1 l 1
 184 98 204 285 164 393 c 1
 125 284 l 1
 134 18 l 1
 54 15 l 1
 29 754 l 1
 108 758 l 1
 120 441 l 1
 225 740 l 1
 303 743 l 1
 212 490 l 1
 272 365 250 130 343 4 c 1xc0
EndSplineSet
Validated: 8388609
Substitution2: "Single Substitution lookup 7 subtable" K
Substitution2: "Single Substitution lookup 6 subtable" K.1
Substitution2: "Single Substitution lookup 5 subtable" k
EndChar

StartChar: L
Encoding: 76 76 45
Width: 278
GlyphClass: 1
Flags: MW
HStem: 45 92<134 280 134 280 58 280> 769 20G<135 135>
VStem: 58 76<137 137 137 785>
LayerCount: 2
Fore
SplineSet
134 137 m 1
 280 137 l 1
 280 45 l 1
 58 45 l 1
 58 785 l 1
 135 789 l 1
 134 137 l 1
EndSplineSet
Validated: 1
Substitution2: "Single Substitution lookup 7 subtable" L
Substitution2: "Single Substitution lookup 6 subtable" L.1
Substitution2: "Single Substitution lookup 5 subtable" l
EndChar

StartChar: M
Encoding: 77 77 46
Width: 445
GlyphClass: 1
Flags: MW
HStem: 24 21G 744 20G<56 168 168 168 314 427 427 427>
VStem: 56 73<45 541 45 764> 353 74<24 540 540 540>
LayerCount: 2
Fore
SplineSet
314 764 m 1
 427 764 l 1
 427 24 l 1
 353 24 l 1
 353 540 l 1
 257 24 l 1
 221 24 l 1
 129 541 l 1
 129 45 l 1
 56 45 l 1
 56 764 l 1
 168 764 l 1
 240 293 l 1
 314 764 l 1
EndSplineSet
Validated: 1
Substitution2: "Single Substitution lookup 7 subtable" M
Substitution2: "Single Substitution lookup 6 subtable" M.1
Substitution2: "Single Substitution lookup 5 subtable" m
EndChar

StartChar: N
Encoding: 78 78 47
Width: 356
GlyphClass: 1
Flags: MW
HStem: -38 21G<127 127> 693 20G<74 146 146 146>
VStem: 64 69 275 72
LayerCount: 2
Fore
SplineSet
282 688 m 1
 357 685 l 1
 338 -33 l 1
 262 -31 l 1
 142 434 l 1
 139 433 l 1
 127 -38 l 1
 54 -36 l 1
 74 713 l 1
 146 713 l 1
 268 215 l 1
 282 688 l 1
EndSplineSet
Validated: 1
Substitution2: "Single Substitution lookup 7 subtable" N
Substitution2: "Single Substitution lookup 6 subtable" N.1
Substitution2: "Single Substitution lookup 5 subtable" n
EndChar

StartChar: O
Encoding: 79 79 48
Width: 333
GlyphClass: 1
Flags: MW
HStem: 25 83<167.5 199 167.5 228> 713 84<183 213>
VStem: 54 82 245 79 251 73
LayerCount: 2
Fore
SplineSet
333 607 m 1xe8
 324 220 l 2
 321 90 272 25 184 25 c 0
 90 25 49 89 49 217 c 2
 60 618 l 2
 63 731 114 797 200 797 c 0
 283 797 333 727 333 629 c 2
 333 607 l 1xe8
239 198 m 2
 251 625 l 2
 251 674 228 713 198 713 c 0
 168 713 143 679 142 622 c 2
 131 189 l 2
 131 148 152 108 183 108 c 0
 215 108 239 145 239 198 c 2
EndSplineSet
Validated: 8388609
Substitution2: "Single Substitution lookup 7 subtable" O
Substitution2: "Single Substitution lookup 6 subtable" O.1
Substitution2: "Single Substitution lookup 5 subtable" o
EndChar

StartChar: P
Encoding: 80 80 49
Width: 324
GlyphClass: 1
Flags: MW
HStem: 24 21G<53 53> 676 94<119.5 211 121 211>
VStem: 40 75 40 88 223 82<489 597.5>
LayerCount: 2
Fore
SplineSet
305 551 m 0xe8
 305 427 275 358 214 343 c 0
 205 340 175 338 123 336 c 1
 133 29 l 1
 53 24 l 1
 27 765 l 1
 118 769 161 770 164 770 c 0
 258 770 305 697 305 551 c 0xe8
223 534 m 0
 223 661 202 676 132 676 c 2
 121 676 l 2
 118 676 115 676 111 675 c 1
 119 428 l 2
 121 428 124 427 128 427 c 0xd8
 187 427 223 440 223 534 c 0
EndSplineSet
Validated: 1
Substitution2: "Single Substitution lookup 7 subtable" P
Substitution2: "Single Substitution lookup 6 subtable" P.1
Substitution2: "Single Substitution lookup 5 subtable" p
EndChar

StartChar: Q
Encoding: 81 81 50
Width: 333
GlyphClass: 1
Flags: MW
HStem: -93 21G<250 250> -5 84 683 85<149.5 181>
VStem: 39 78 227 78
LayerCount: 2
Fore
SplineSet
313 188 m 0
 313 97 289 38 240 11 c 1
 254 -12 273 -32 298 -49 c 1
 250 -93 l 1
 213 -78 187 -48 171 -5 c 1
 86 -2 42 65 39 195 c 0
 34 458 31 587 31 590 c 0
 31 699 82 768 170 768 c 0
 252 768 300 701 305 584 c 0
 310 323 313 191 313 188 c 0
231 168 m 2
 231 171 l 1
 223 594 l 2
 218 650 195 683 167 683 c 0
 132 683 113 641 113 595 c 2
 121 169 l 2
 126 111 147 79 177 79 c 0
 212 79 231 121 231 168 c 2
EndSplineSet
Validated: 1
Substitution2: "Single Substitution lookup 7 subtable" Q
Substitution2: "Single Substitution lookup 6 subtable" Q.1
Substitution2: "Single Substitution lookup 5 subtable" q
EndChar

StartChar: R
Encoding: 82 82 51
Width: 346
GlyphClass: 1
Flags: MW
HStem: 29 21G<262 262> 681 95<111 201 111 201>
VStem: 39 76 39 88 221 82<508.5 607.5>
LayerCount: 2
Fore
SplineSet
345 31 m 1xc8
 262 29 l 1
 236 47 227 70 221 108 c 0
 217 133 219 200 211 259 c 0
 206 298 195 334 177 353 c 1
 121 352 l 1
 133 43 l 1
 52 38 l 1
 27 771 l 1
 107 774 147 776 146 776 c 1
 256 776 303 722 303 545 c 0
 303 472 284 412 243 387 c 1
 268 360 281 316 286 267 c 0
 295 181 288 80 345 31 c 1xc8
221 549 m 0
 221 666 202 681 134 681 c 2
 111 681 l 1
 119 445 l 1
 178 445 221 448 221 549 c 0
EndSplineSet
Validated: 8388641
Substitution2: "Single Substitution lookup 7 subtable" R
Substitution2: "Single Substitution lookup 6 subtable" R.1
Substitution2: "Single Substitution lookup 5 subtable" r
EndChar

StartChar: S
Encoding: 83 83 52
Width: 313
GlyphClass: 1
Flags: MW
HStem: -11 98<150.5 194.5 150.5 213> 572 186 668 90<151.5 182>
VStem: 35 67 35 79<570.5 616 570.5 636.5> 206 81<608.5 632> 234 78<149 184.5>
LayerCount: 2
Fore
SplineSet
312 171 m 0xaa
 312 69 253 -11 173 -11 c 0
 85 -11 25 82 25 199 c 1
 102 200 l 1
 105 122 131 87 170 87 c 0
 219 87 234 129 234 169 c 0xd2
 234 200 230 219 197 274 c 0
 167 323 120 373 87 421 c 0
 52 472 35 528 35 580 c 0
 35 693 85 758 161 758 c 0
 224 758 287 721 287 610 c 0
 287 597 286 584 285 569 c 1
 204 575 l 1
 206 589 206 603 206 614 c 0xd4
 206 650 194 668 170 668 c 0
 133 668 114 642 114 590 c 0
 114 551 122 519 165 461 c 0
 196 419 231 379 261 336 c 0
 297 284 312 228 312 171 c 0xaa
EndSplineSet
Validated: 1
Substitution2: "Single Substitution lookup 7 subtable" S
Substitution2: "Single Substitution lookup 6 subtable" S.1
Substitution2: "Single Substitution lookup 5 subtable" s
EndChar

StartChar: T
Encoding: 84 84 53
Width: 308
GlyphClass: 1
Flags: HMW
HStem: 35 21G<159 159> 174 43<119 200 119 200 119 200> 708 94<23 119 23 302 200 302 23 304 200 200>
VStem: 119 81<217 708>
LayerCount: 2
Fore
SplineSet
154 93 m 5
 98 71 l 5
 118 122 l 5
 83 161 l 5
 138 160 l 5
 166.275390625 207.739257812 l 5
 184 153 l 5
 242 150 l 5
 194 114 l 5
 206 62 l 5
 154 93 l 5
302 802 m 5
 304 708 l 5
 200 708 l 5
 200 217 l 5
 119 217 l 5
 119 708 l 5
 23 708 l 5
 23 802 l 5
 302 802 l 5
EndSplineSet
Validated: 524289
Substitution2: "Single Substitution lookup 7 subtable" T
Substitution2: "Single Substitution lookup 6 subtable" T.1
Substitution2: "Single Substitution lookup 5 subtable" t
Substitution2: "'salt' Stylistic Alternatives in Latin lookup 4 subtable" T.2
EndChar

StartChar: U
Encoding: 85 85 54
Width: 339
GlyphClass: 1
Flags: MW
HStem: -45 96<168.5 206 168.5 231.5> 693 20G<67 67>
VStem: 59 81 253 80
LayerCount: 2
Fore
SplineSet
263 711 m 1
 340 707 l 1
 326 150 l 2
 323 20 275 -45 188 -45 c 0
 94 -45 51 19 51 148 c 2
 67 713 l 1
 148 709 l 1
 133 131 l 2
 132 84 149 51 188 51 c 0
 224 51 241 78 243 132 c 2
 263 711 l 1
EndSplineSet
Validated: 33
Substitution2: "Single Substitution lookup 7 subtable" U
Substitution2: "Single Substitution lookup 6 subtable" U.1
Substitution2: "Single Substitution lookup 5 subtable" u
EndChar

StartChar: V
Encoding: 86 86 55
Width: 314
GlyphClass: 1
Flags: MW
HStem: 24 21G<123 209 123 123> 747 20G<98 98>
LayerCount: 2
Fore
SplineSet
239 765 m 1
 318 759 l 1
 209 24 l 1
 123 24 l 1
 20 764 l 1
 98 767 l 1
 169 195 l 1
 239 765 l 1
EndSplineSet
Validated: 1
Substitution2: "Single Substitution lookup 7 subtable" V
Substitution2: "Single Substitution lookup 6 subtable" V.1
Substitution2: "Single Substitution lookup 5 subtable" v
EndChar

StartChar: W
Encoding: 87 87 56
Width: 459
GlyphClass: 1
Flags: MW
HStem: 46 21G<103 103> 782 20G<85 85>
LayerCount: 2
Fore
SplineSet
376 790 m 1
 451 790 l 1
 365 48 l 1
 298 48 l 1
 233 564 l 1
 173 48 l 1
 103 46 l 1
 6 797 l 1
 85 802 l 1
 142 259 l 1
 194 766 l 1
 263 766 l 1
 331 261 l 1
 376 790 l 1
EndSplineSet
Validated: 1
Substitution2: "Single Substitution lookup 7 subtable" W
Substitution2: "Single Substitution lookup 6 subtable" W.1
Substitution2: "Single Substitution lookup 5 subtable" w
EndChar

StartChar: X
Encoding: 88 88 57
Width: 314
GlyphClass: 1
Flags: MW
HStem: -8 21G<7 89 7 7> -6 21G<230 313 230 230> 736 20G<226 308 308 308>
LayerCount: 2
Fore
SplineSet
198 380 m 1xa0
 313 -6 l 1
 230 -6 l 1x60
 162 239 l 1
 89 -8 l 1
 7 -8 l 1
 112 369 l 1
 2 733 l 1
 86 733 l 1
 154 511 l 1
 226 756 l 1
 308 756 l 1
 198 380 l 1xa0
EndSplineSet
Validated: 1
Substitution2: "Single Substitution lookup 7 subtable" X
Substitution2: "Single Substitution lookup 6 subtable" X.1
Substitution2: "Single Substitution lookup 5 subtable" x
EndChar

StartChar: Y
Encoding: 89 89 58
Width: 295
GlyphClass: 1
Flags: MW
HStem: 11 21G<107 107> 736 20G<276 276>
VStem: 103 81
LayerCount: 2
Fore
SplineSet
194 753 m 1
 276 756 l 1
 180 320 l 1
 188 13 l 1
 107 11 l 1
 100 303 l 1
 -10 739 l 1
 68 744 l 1
 140 450 l 1
 194 753 l 1
EndSplineSet
Validated: 1
Substitution2: "Single Substitution lookup 7 subtable" Y
Substitution2: "Single Substitution lookup 6 subtable" Y.1
Substitution2: "Single Substitution lookup 5 subtable" y
EndChar

StartChar: Z
Encoding: 90 90 59
Width: 295
GlyphClass: 1
Flags: MW
HStem: 7 98<118 289 118 289 35 289> 646 98<77 212 77 77>
LayerCount: 2
Fore
SplineSet
68 744 m 1
 298 744 l 1
 298 644 l 1
 118 105 l 1
 289 105 l 1
 289 7 l 1
 35 7 l 1
 35 114 l 1
 212 646 l 1
 77 646 l 1
 68 744 l 1
EndSplineSet
Validated: 1
Substitution2: "Single Substitution lookup 7 subtable" Z
Substitution2: "Single Substitution lookup 6 subtable" Z.1
Substitution2: "Single Substitution lookup 5 subtable" z
EndChar

StartChar: bracketleft
Encoding: 91 91 60
Width: 205
GlyphClass: 1
Flags: MW
HStem: -121 21G<65 201 65 65> 711 20G<65 201 201 201>
VStem: 65 72<-40 651 -40 731> 65 136<-121 -40 651 731>
LayerCount: 2
Fore
SplineSet
201 -40 m 1xd0
 201 -121 l 1
 65 -121 l 1
 65 731 l 1
 201 731 l 1
 201 651 l 1xd0
 137 651 l 1
 137 -40 l 1xe0
 201 -40 l 1xd0
EndSplineSet
Validated: 1
EndChar

StartChar: backslash
Encoding: 92 92 61
Width: 264
GlyphClass: 1
Flags: MW
HStem: -84 21G<212 212> 744 20G<-2 -2>
LayerCount: 2
Fore
SplineSet
-2 764 m 1
 267 -82 l 1
 212 -84 l 1
 -57 762 l 1
 -2 764 l 1
EndSplineSet
Validated: 1
EndChar

StartChar: bracketright
Encoding: 93 93 62
Width: 188
GlyphClass: 1
Flags: MW
HStem: -88 21G<39 39> 749 20G<143 143>
VStem: 11 147 37 121 88 70
LayerCount: 2
Fore
SplineSet
143 769 m 1xc0
 173 -83 l 1
 39 -88 l 1
 36 -7 l 1
 100 -5 l 1
 76 685 l 1
 12 683 l 1
 10 764 l 1
 143 769 l 1xc0
EndSplineSet
Validated: 8388609
EndChar

StartChar: asciicircum
Encoding: 94 94 63
Width: 481
GlyphClass: 1
Flags: MW
HStem: 477 21G<-25 -25> 751 20G<239 239>
LayerCount: 2
Fore
SplineSet
239 771 m 1
 451 506 l 1
 361 501 l 1
 201 702 l 1
 65 483 l 1
 -25 477 l 1
 154 766 l 1
 239 771 l 1
EndSplineSet
Validated: 1
EndChar

StartChar: underscore
Encoding: 95 95 64
Width: 417
GlyphClass: 1
Flags: MW
HStem: -245 75<0 417 0 417>
LayerCount: 2
Fore
SplineSet
417 -170 m 1
 417 -245 l 1
 0 -245 l 1
 0 -170 l 1
 417 -170 l 1
EndSplineSet
Validated: 1
EndChar

StartChar: grave
Encoding: 96 96 65
Width: 180
GlyphClass: 1
Flags: MW
HStem: 797 21G<93 93 93 150> 878 20G<29 108 108 108>
LayerCount: 2
Fore
SplineSet
93 797 m 1
 29 898 l 1
 108 898 l 1
 150 797 l 1
 93 797 l 1
EndSplineSet
Validated: 1
EndChar

StartChar: a
Encoding: 97 97 66
Width: 328
GlyphClass: 1
Flags: MW
HStem: 27 21G<330 330> 218 92 776 20G<142 142>
LayerCount: 2
Fore
SplineSet
252 793 m 1
 330 27 l 1
 248 30 l 1
 225 217 l 1
 120 220 l 1
 94 58 l 1
 15 61 l 1
 142 796 l 1
 252 793 l 1
133 312 m 1
 219 308 l 1
 193 641 l 1
 133 312 l 1
EndSplineSet
Validated: 1
Substitution2: "Single Substitution lookup 6 subtable" A
Substitution2: "Single Substitution lookup 5 subtable" A.1
EndChar

StartChar: b
Encoding: 98 98 67
Width: 339
GlyphClass: 1
Flags: MW
HStem: -12 96<55 145> 322 95<123 157 120 166.5> 639 92<142 169>
VStem: 42 85 220 81<537 560> 239 84<175 194 194 197.5>
LayerCount: 2
Fore
SplineSet
301 560 m 0xf8
 301 552 302 545 302 538 c 0
 302 470 280 414 238 372 c 1
 295 332 323 267 323 172 c 0xf4
 323 58 279 -2 192 -7 c 0
 189 -7 146 -9 55 -12 c 1
 30 728 l 1
 81 729 110 731 121 731 c 0
 251 731 294 684 301 560 c 0xf8
220 541 m 0
 216 618 192 639 146 639 c 0
 138 639 126 638 112 638 c 1
 120 417 l 1
 157 417 l 2
 199 420 221 454 221 519 c 0
 221 526 220 533 220 541 c 0
238 219 m 0
 230 312 210 322 123 322 c 1
 131 84 l 1
 145 84 l 1
 220 89 239 114 239 175 c 2
 239 194 l 2xf4
 239 201 239 210 238 219 c 0
EndSplineSet
Validated: 1
Substitution2: "Single Substitution lookup 6 subtable" B
Substitution2: "Single Substitution lookup 5 subtable" B.1
EndChar

StartChar: c
Encoding: 99 99 68
Width: 324
GlyphClass: 1
Flags: MW
HStem: 14 88<156 192.5 156 220> 697 90<161 173>
VStem: 29 84 208 81 230 78<175 223>
LayerCount: 2
Fore
SplineSet
308 286 m 2xe8
 308 252 l 2xe8
 308 95 265 14 175 14 c 0
 87 14 40 78 36 212 c 2
 23 608 l 2
 23 710 62 783 161 787 c 0
 229 787 289 743 289 601 c 2
 289 519 l 1
 206 515 l 1
 208 533 206 558 208 593 c 0xf0
 207 662 190 697 156 697 c 0
 120 697 105 668 105 614 c 2
 105 612 l 2
 105 605 106 574 108 519 c 2
 119 187 l 2
 121 131 138 102 174 102 c 0
 211 102 230 137 230 213 c 0
 230 233 227 263 224 307 c 1
 307 309 l 1
 308 303 308 295 308 286 c 2xe8
EndSplineSet
Validated: 33
Substitution2: "Single Substitution lookup 6 subtable" C
Substitution2: "Single Substitution lookup 5 subtable" C.1
EndChar

StartChar: d
Encoding: 100 100 69
Width: 342
GlyphClass: 1
Flags: MW
HStem: -49 21G<56 56> -48 98<100 168 107 168> 599 96<114 205.5 114 205.5>
VStem: 43 80 226 88 232 82 232 88
LayerCount: 2
Fore
SplineSet
308 500 m 2xb4
 320 157 l 1
 320 140 l 2x72
 320 -6 274 -43 144 -48 c 1
 107 -48 l 2x74
 93 -48 76 -48 56 -49 c 1
 31 690 l 1
 157 695 l 2
 254 695 303 635 308 500 c 2xb4
238 140 m 1
 226 503 l 2x78
 223 580 196 599 121 599 c 2
 114 599 l 1
 132 49 l 1
 168 50 l 2
 224 51 238 73 238 131 c 2
 238 140 l 1
EndSplineSet
Validated: 1
Substitution2: "Single Substitution lookup 6 subtable" D
Substitution2: "Single Substitution lookup 5 subtable" D.1
EndChar

StartChar: e
Encoding: 101 101 70
Width: 276
GlyphClass: 1
Flags: MW
HStem: 57 99<134 275 134 275 49 275> 396 95<134 240 134 134> 704 94<132 258 132 132>
VStem: 49 85<156 396 156 798> 49 191<396 491 396 798>
LayerCount: 2
Fore
SplineSet
275 156 m 1xf0
 275 57 l 1
 49 57 l 1
 49 798 l 1
 258 798 l 1
 258 704 l 1
 132 704 l 1
 132 491 l 1
 240 491 l 1
 240 396 l 1xe8
 134 396 l 1
 134 156 l 1
 275 156 l 1xf0
EndSplineSet
Validated: 1
Substitution2: "Single Substitution lookup 6 subtable" E
Substitution2: "Single Substitution lookup 5 subtable" E.1
EndChar

StartChar: f
Encoding: 102 102 71
Width: 263
GlyphClass: 1
Flags: MW
HStem: 31 21G<56 136 56 56> 372 94 680 92 755 20G<249 249>
VStem: 48 84 48 187
LayerCount: 2
Fore
SplineSet
249 775 m 1xd0
 251 682 l 1
 127 679 l 1
 127 466 l 1
 234 466 l 1
 237 374 l 1
 129 371 l 1
 136 31 l 1
 56 31 l 1
 40 770 l 1
 249 775 l 1xd0
EndSplineSet
Validated: 8388609
Substitution2: "Single Substitution lookup 6 subtable" F
Substitution2: "Single Substitution lookup 5 subtable" F.1
EndChar

StartChar: g
Encoding: 103 103 72
Width: 322
GlyphClass: 1
Flags: MW
HStem: -52 84<162.5 176> 627 89<177.5 213>
VStem: 52 82 185 132 239 78
LayerCount: 2
Fore
SplineSet
320 322 m 1xe8
 311 -43 l 1
 249 -43 l 1
 245 11 l 1
 224 -31 195 -52 157 -52 c 0
 89 -52 47 11 47 129 c 0
 47 136 48 143 48 150 c 2
 57 538 l 2
 59 640 108 716 195 716 c 0
 276 716 317 660 317 541 c 0
 317 525 314 495 313 445 c 1
 236 446 l 1
 239 467 241 497 244 538 c 0
 244 596 230 627 196 627 c 0
 159 627 140 602 139 543 c 2
 129 120 l 2
 129 63 144 32 181 32 c 0
 218 32 237 58 238 118 c 2
 240 245 l 1
 184 245 l 1
 187 326 l 1
 320 322 l 1xe8
EndSplineSet
Validated: 8388609
Substitution2: "Single Substitution lookup 6 subtable" G
Substitution2: "Single Substitution lookup 5 subtable" G.1
EndChar

StartChar: h
Encoding: 104 104 73
Width: 338
GlyphClass: 1
Flags: MW
HStem: 54 21G<238 238> 390 92 770 20G<106 106>
VStem: 39 72 39 86 218 88 232 74
LayerCount: 2
Fore
SplineSet
213 772 m 1xe0
 294 775 l 1
 318 56 l 1
 238 54 l 1
 226 392 l 1
 120 388 l 1
 131 71 l 1
 51 69 l 1
 27 787 l 1
 106 790 l 1
 117 481 l 1
 223 484 l 1
 213 772 l 1xe0
EndSplineSet
Validated: 8388609
Substitution2: "Single Substitution lookup 6 subtable" H
Substitution2: "Single Substitution lookup 5 subtable" H.1
EndChar

StartChar: i
Encoding: 105 105 74
Width: 211
GlyphClass: 1
Flags: HMW
HStem: -27 21G<99 99> 83 200<51 205 51 205> 112 43 240 43 369 43 497 43 626 50 721 20G<125 125>
VStem: 52 82
LayerCount: 2
Fore
SplineSet
86.87109375 33.7490234375 m 5x8f80
 31.390625 10.60546875 l 5
 52.0341796875 62.0341796875 l 5
 17.1982421875 101.890625 l 5
 72.6787109375 99.3193359375 l 5
 99.7734375 148.176757812 l 5
 117.836914062 94.1767578125 l 5
 177.1875 90.3203125 l 5
 126.868164062 54.3193359375 l 5
 139.771484375 2.890625 l 5
 86.87109375 33.7490234375 l 5x8f80
136 156 m 5
 54 155 l 5xaf80
 51 239 l 5
 133 242 l 5
 136 156 l 5
133 284 m 5
 51 283 l 5xcf80
 49 368 l 5
 131 370 l 5
 133 284 l 5
130 413 m 5
 48 412 l 5
 46 496 l 5
 130 499 l 5
 130 413 l 5
127 541 m 5
 44 540 l 5
 44 625 l 5
 127 627 l 5
 127 541 l 5
125 676 m 5
 42 676 l 5
 42 739 l 5
 125 741 l 5
 125 676 l 5
EndSplineSet
Validated: 524289
Substitution2: "Single Substitution lookup 6 subtable" I
Substitution2: "Single Substitution lookup 5 subtable" I.1
Substitution2: "'salt' Stylistic Alternatives in Latin lookup 4 subtable" dotlessi
EndChar

StartChar: j
Encoding: 106 106 75
Width: 340
GlyphClass: 1
Flags: MW
HStem: -61 88<180.5 218 180.5 241.5> 184 66 688 20G<233 233>
VStem: 57 82<102.5 183 102.5 220> 233 80<700 708> 252 81<100 116 116 117 117 117>
LayerCount: 2
Fore
SplineSet
333 146 m 1xf4
 333 116 l 2
 333 -2 287 -61 196 -61 c 0
 100 -61 64 -3 57 183 c 1
 140 186 l 1
 140 163 l 2
 139 158 139 153 139 149 c 2
 139 140 l 2
 139 65 160 27 201 27 c 0
 235 27 252 51 252 100 c 2
 252 117 l 1xf4
 248 250 241 443 233 708 c 1
 313 700 l 1xf8
 320 576 325 394 333 146 c 1xf4
93 361 m 1
 205 257 l 1
 138 255 l 1
 139 224 l 1
 57 220 l 1
 56 251 l 1
 -12 249 l 1
 93 361 l 1
EndSplineSet
Validated: 1
Substitution2: "Single Substitution lookup 6 subtable" J
Substitution2: "Single Substitution lookup 5 subtable" J.1
Substitution2: "'salt' Stylistic Alternatives in Latin lookup 4 subtable" .notdef
EndChar

StartChar: k
Encoding: 107 107 76
Width: 343
GlyphClass: 1
Flags: MW
HStem: 35 21G<259 259> 774 20G<120 120>
VStem: 47 76
LayerCount: 2
Fore
SplineSet
344 36 m 1
 259 35 l 1
 185 138 210 322 170 427 c 1
 130 320 l 1
 136 54 l 1
 55 52 l 1
 40 791 l 1
 120 794 l 1
 127 477 l 1
 237 776 l 1
 314 776 l 1
 219 525 l 1
 273 412 251 158 344 36 c 1
EndSplineSet
Validated: 1
Substitution2: "Single Substitution lookup 6 subtable" K
Substitution2: "Single Substitution lookup 5 subtable" K.1
EndChar

StartChar: l
Encoding: 108 108 77
Width: 278
GlyphClass: 1
Flags: MW
HStem: 13 92<134 278 134 278 58 278> 734 20G<134 134>
VStem: 58 76<105 105 105 753 753 753>
LayerCount: 2
Fore
SplineSet
134 105 m 1
 278 105 l 1
 278 13 l 1
 58 13 l 1
 58 753 l 1
 134 754 l 1
 134 105 l 1
EndSplineSet
Validated: 1
Substitution2: "Single Substitution lookup 6 subtable" L
Substitution2: "Single Substitution lookup 5 subtable" L.1
EndChar

StartChar: m
Encoding: 109 109 78
Width: 445
GlyphClass: 1
Flags: MW
HStem: -4 21G<427 427> -1 21G<221 257 221 221> 720 20G<65 179 179 179>
VStem: 65 64<24 518 24 740> 361 66<-2 514 514 514>
LayerCount: 2
Fore
SplineSet
324 737 m 1x78
 427 737 l 1
 427 -4 l 1xb8
 361 -2 l 1
 361 514 l 1
 257 -1 l 1
 221 -1 l 1
 129 518 l 1
 129 24 l 1
 65 24 l 1
 65 740 l 1
 179 740 l 1
 245 268 l 1
 324 737 l 1x78
EndSplineSet
Validated: 1
Substitution2: "Single Substitution lookup 6 subtable" M
Substitution2: "Single Substitution lookup 5 subtable" M.1
EndChar

StartChar: n
Encoding: 110 110 79
Width: 356
GlyphClass: 1
Flags: MW
HStem: -77 21G<50 130 50 50> 655 20G
VStem: 50 80<-77 392 -77 675> 259 81<181 655 -64 655>
LayerCount: 2
Fore
SplineSet
259 655 m 1
 340 655 l 1
 340 -64 l 1
 264 -64 l 1
 130 392 l 1
 130 -77 l 1
 50 -77 l 1
 50 675 l 1
 123 675 l 1
 259 181 l 1
 259 655 l 1
EndSplineSet
Validated: 1
Substitution2: "Single Substitution lookup 6 subtable" N
Substitution2: "Single Substitution lookup 5 subtable" N.1
EndChar

StartChar: o
Encoding: 111 111 80
Width: 333
GlyphClass: 1
Flags: MW
HStem: -10 84<167.5 186> 679 84<183 198.5>
VStem: 46 82 237 83
LayerCount: 2
Fore
SplineSet
321 585 m 2
 321 577 l 1
 319 189 l 2
 318 59 273 -7 186 -10 c 0
 93 -10 46 52 45 180 c 2
 48 581 l 2
 49 694 97 759 183 763 c 0
 266 763 319 700 321 585 c 2
237 165 m 1
 238 593 l 2
 238 643 214 679 183 679 c 0
 150 679 130 637 130 588 c 2
 127 161 l 2
 127 110 153 74 182 74 c 0
 217 74 232 114 237 165 c 1
EndSplineSet
Validated: 1
Substitution2: "Single Substitution lookup 6 subtable" O
Substitution2: "Single Substitution lookup 5 subtable" O.1
EndChar

StartChar: p
Encoding: 112 112 81
Width: 324
GlyphClass: 1
Flags: MW
HStem: 0 21G<53 53> 652 92<163.5 181>
VStem: 40 76 40 89 224 82<462 561.5>
LayerCount: 2
Fore
SplineSet
306 524 m 0xc8
 306 400 275 332 215 315 c 0
 206 312 175 310 124 309 c 1
 134 4 l 1
 53 0 l 1
 27 739 l 1
 118 742 162 744 165 744 c 0
 259 744 306 671 306 524 c 0xc8
224 508 m 0
 224 615 207 652 155 652 c 0
 144 652 131 651 112 649 c 1
 120 401 l 1
 183 401 224 408 224 508 c 0
EndSplineSet
Validated: 8388609
Substitution2: "Single Substitution lookup 6 subtable" P
Substitution2: "Single Substitution lookup 5 subtable" P.1
EndChar

StartChar: q
Encoding: 113 113 82
Width: 333
GlyphClass: 1
Flags: MW
HStem: -131 21G<245 245> -40 82 647 84<167.5 199>
VStem: 45 81 235 82
LayerCount: 2
Fore
SplineSet
317 148 m 0
 314 57 288 -2 239 -27 c 1
 251 -50 270 -70 295 -88 c 1
 245 -131 l 1
 208 -114 183 -84 169 -40 c 1
 85 -35 43 29 43 153 c 0
 43 241 43 375 45 557 c 0
 46 664 101 731 185 731 c 0
 314 731 319 605 319 429 c 0
 319 353 319 260 317 148 c 0
234 130 m 2
 234 133 l 1
 236 562 l 2
 236 603 215 647 183 647 c 0
 152 647 127 614 127 560 c 2
 125 134 l 2
 125 88 144 42 179 42 c 0
 208 42 232 77 234 130 c 2
EndSplineSet
Validated: 1
Substitution2: "Single Substitution lookup 6 subtable" Q
Substitution2: "Single Substitution lookup 5 subtable" Q.1
EndChar

StartChar: r
Encoding: 114 114 83
Width: 311
GlyphClass: 1
Flags: MW
HStem: 67 21G<261 261> 716 96<111 149.5>
VStem: 28 72 28 93 206 77
LayerCount: 2
Fore
SplineSet
344 71 m 1xc8
 261 67 l 1
 216 115 208 135 206 271 c 0
 205 325 193 365 168 390 c 1
 112 387 l 1
 130 78 l 1
 50 75 l 1
 7 803 l 1
 32 807 77 812 132 812 c 0
 236 812 283 759 289 585 c 0
 289 511 273 458 239 424 c 1
 262 403 275 368 280 318 c 2
 287 186 l 1
 295 134 314 96 344 71 c 1xc8
207 585 m 0
 204 705 182 716 117 716 c 0
 105 716 97 715 93 715 c 1
 107 480 l 1
 168 480 207 487 207 585 c 0
EndSplineSet
Validated: 8388609
Substitution2: "Single Substitution lookup 6 subtable" R
Substitution2: "Single Substitution lookup 5 subtable" R.1
EndChar

StartChar: s
Encoding: 115 115 84
Width: 313
GlyphClass: 1
Flags: MW
HStem: 33 98<143 186 143 211> 619 181 711 89<118 152>
VStem: 3 79<618.5 663.5 618.5 687.5> 173 81<620 711.5> 225 78<188 225>
LayerCount: 2
Fore
SplineSet
303 222 m 0xb4
 303 101 255 33 167 33 c 0
 82 33 21 121 15 234 c 1
 92 240 l 1
 99 165 125 131 161 131 c 0
 211 131 225 168 225 208 c 0xd4
 225 242 220 262 182 319 c 0
 150 366 99 413 64 459 c 0
 22 514 3 576 3 634 c 0
 3 741 52 800 130 800 c 0
 189 800 254 764 254 659 c 0
 254 646 254 634 253 618 c 1
 173 620 l 1xd8
 173 681 168 711 136 711 c 0
 100 711 82 686 82 641 c 0
 82 596 90 564 140 504 c 0
 173 463 211 425 243 384 c 0
 282 334 303 279 303 222 c 0xb4
EndSplineSet
Validated: 1
Substitution2: "Single Substitution lookup 6 subtable" S
Substitution2: "Single Substitution lookup 5 subtable" S.1
EndChar

StartChar: t
Encoding: 116 116 85
Width: 287
GlyphClass: 1
Flags: HMWO
HStem: 7 21G<159 159> 146 44 686 88 758 20G<274 274>
VStem: -2 186 104 80
LayerCount: 2
Fore
SplineSet
145 70 m 5xc0
 90 47 l 5
 110 98 l 5
 76 138 l 5
 130 136 l 5
 158.176757812 184.301757812 l 5
 176 130 l 5
 234 126 l 5
 185 90 l 5
 198 38 l 5
 145 70 l 5xc0
274 778 m 5xd0
 278 688 l 5
 176 684 l 5
 193 192 l 5
 113 188 l 5
 96 679 l 5
 -1 677 l 5
 -4 770 l 5
 274 778 l 5xd0
EndSplineSet
Validated: 524289
Substitution2: "Single Substitution lookup 6 subtable" T
Substitution2: "Single Substitution lookup 5 subtable" T.1
Substitution2: "'salt' Stylistic Alternatives in Latin lookup 4 subtable" T.2
EndChar

StartChar: u
Encoding: 117 117 86
Width: 339
GlyphClass: 1
Flags: MW
HStem: 23 96<169 203.5 169 232.5> 759 20G<51 134 134 134> 760 20G<244 244>
VStem: 50 82 242 82
LayerCount: 2
Fore
SplineSet
244 780 m 1xb8
 326 778 l 1
 322 221 l 2
 321 91 276 23 189 23 c 0
 96 23 49 84 49 212 c 2
 51 779 l 1
 134 779 l 1xd8
 131 198 l 2
 131 157 153 119 185 119 c 0
 222 119 240 146 240 201 c 2
 244 780 l 1xb8
EndSplineSet
Validated: 1
Substitution2: "Single Substitution lookup 6 subtable" U
Substitution2: "Single Substitution lookup 5 subtable" U.1
EndChar

StartChar: v
Encoding: 118 118 87
Width: 314
GlyphClass: 1
Flags: MW
HStem: -11 21G<124 211 124 124> 713 20G<80 80 301 301>
LayerCount: 2
Fore
SplineSet
224 731 m 1
 301 733 l 1
 211 -11 l 1
 124 -11 l 1
 4 728 l 1
 80 733 l 1
 165 162 l 1
 224 731 l 1
EndSplineSet
Validated: 1
Substitution2: "Single Substitution lookup 6 subtable" V
Substitution2: "Single Substitution lookup 5 subtable" V.1
EndChar

StartChar: w
Encoding: 119 119 88
Width: 459
GlyphClass: 1
Flags: MW
HStem: 4 21G<106 173 106 106> 5 21G<298 365 298 298> 734 20G<6 81 81 81>
LayerCount: 2
Fore
SplineSet
376 746 m 1xa0
 451 746 l 1
 365 5 l 1
 298 5 l 1x60
 233 527 l 1
 173 4 l 1
 106 4 l 1
 6 754 l 1
 81 754 l 1
 142 213 l 1
 194 724 l 1
 263 724 l 1
 331 215 l 1
 376 746 l 1xa0
EndSplineSet
Validated: 1
Substitution2: "Single Substitution lookup 6 subtable" W
Substitution2: "Single Substitution lookup 5 subtable" W.1
EndChar

StartChar: x
Encoding: 120 120 89
Width: 314
GlyphClass: 1
Flags: MW
HStem: 45 21G<8 8> 793 20G<219 300 300 300>
LayerCount: 2
Fore
SplineSet
194 436 m 1
 314 50 l 1
 231 50 l 1
 159 295 l 1
 90 48 l 1
 8 45 l 1
 109 424 l 1
 -5 785 l 1
 79 787 l 1
 149 565 l 1
 219 813 l 1
 300 813 l 1
 194 436 l 1
EndSplineSet
Validated: 1
Substitution2: "Single Substitution lookup 6 subtable" X
Substitution2: "Single Substitution lookup 5 subtable" X.1
EndChar

StartChar: y
Encoding: 121 121 90
Width: 295
GlyphClass: 1
Flags: MW
HStem: 49 21G<107 107> 773 20G<276 276>
VStem: 103 81
LayerCount: 2
Fore
SplineSet
194 790 m 1
 276 793 l 1
 180 357 l 1
 188 52 l 1
 107 49 l 1
 100 342 l 1
 -10 775 l 1
 70 780 l 1
 140 487 l 1
 194 790 l 1
EndSplineSet
Validated: 1
Substitution2: "Single Substitution lookup 6 subtable" Y
Substitution2: "Single Substitution lookup 5 subtable" Y.1
EndChar

StartChar: z
Encoding: 122 122 91
Width: 295
GlyphClass: 1
Flags: MW
HStem: -18 104 623 101 707 20G<275 275>
LayerCount: 2
Fore
SplineSet
42 722 m 1xc0
 275 727 l 1xa0
 275 627 l 1
 114 84 l 1
 289 88 l 1
 289 -18 l 1
 31 -18 l 1
 31 89 l 1
 190 625 l 1
 55 622 l 1
 42 722 l 1xc0
EndSplineSet
Validated: 1
Substitution2: "Single Substitution lookup 6 subtable" Z
Substitution2: "Single Substitution lookup 5 subtable" Z.1
EndChar

StartChar: braceleft
Encoding: 123 123 92
Width: 359
GlyphClass: 1
Flags: MW
HStem: -221 76<317.5 329.5> 212 76<57 76 57 62> 675 77<314 319>
VStem: 152 86 164 74<367.5 403.5 351.5 430> 184 78
LayerCount: 2
Fore
SplineSet
369 -143 m 1xe4
 372 -219 l 1
 351 -220 335 -221 324 -221 c 0
 234 -221 203 -194 193 -55 c 2
 184 74 l 2xe4
 176 183 149 212 76 212 c 2
 62 212 l 1
 57 288 l 1
 138 291 164 326 164 409 c 0xe8
 164 451 152 582 152 619 c 0
 152 716 180 743 314 752 c 1
 319 675 l 1
 244 671 228 656 228 564 c 0
 228 532 238 419 238 388 c 0xf0
 238 315 212 281 140 253 c 1
 262 224 258 150 262 -19 c 1
 272 -133 293 -145 342 -145 c 0
 349 -145 358 -144 369 -143 c 1xe4
EndSplineSet
Validated: 1
EndChar

StartChar: bar
Encoding: 124 124 93
Width: 217
GlyphClass: 1
Flags: MW
HStem: -244 21G<95 95> 793 20G<119 119>
VStem: 76 61
LayerCount: 2
Fore
SplineSet
119 813 m 1
 155 -242 l 1
 95 -244 l 1
 58 810 l 1
 119 813 l 1
EndSplineSet
Validated: 1
EndChar

StartChar: braceright
Encoding: 125 125 94
Width: 355
GlyphClass: 1
Flags: MW
HStem: -240 75<70 84 70 86> 207 77<312.5 355> 655 77<70 86 86 108.5>
VStem: 70 169<-240 -67 -165 -67> 168 71<-24 -4 -4 -1.5 451 494 494 557> 168 187<207 494>
LayerCount: 2
Fore
SplineSet
355 284 m 1xe4
 355 207 l 1xe4
 270 207 239 177 239 63 c 2
 239 -67 l 2
 239 -220 203 -240 84 -240 c 2
 70 -240 l 1
 70 -165 l 1xf0
 86 -165 l 2
 141 -165 168 -155 168 -24 c 2
 168 -4 l 2
 168 1 169 7 169 15 c 0
 169 28 167 52 167 64 c 2
 167 81 l 2
 167 189 193 221 274 245 c 1
 191 269 167 299 167 409 c 2
 167 427 l 2
 167 434 167 442 168 451 c 2
 168 494 l 2xe8
 168 651 147 655 70 655 c 1
 70 732 l 1
 86 732 l 2
 200 732 239 710 239 557 c 2
 239 427 l 2xf0
 239 314 269 284 355 284 c 1xe4
EndSplineSet
Validated: 1
EndChar

StartChar: asciitilde
Encoding: 126 126 95
Width: 377
GlyphClass: 1
Flags: MW
HStem: 248 21G<24 24> 250 66<253.5 281.5 245.5 290.5> 296 20 296 64<80.5 103.5 70.5 116> 354 20G<347 347>
LayerCount: 2
Fore
SplineSet
24 248 m 1xa8
 24 334 l 1
 39 351 58 360 83 360 c 0x90
 124 360 225 316 266 316 c 0
 297 316 324 335 347 374 c 1
 347 285 l 1
 328 262 305 250 276 250 c 0x48
 231 250 137 296 95 296 c 0
 66 296 43 280 24 248 c 1xa8
EndSplineSet
Validated: 1
EndChar

StartChar: exclamdown
Encoding: 161 161 97
Width: 203
GlyphClass: 1
Flags: MW
HStem: 0 21G<73 73> 565 43 565 71 727 20G<88 88>
VStem: 63 82
LayerCount: 2
Fore
SplineSet
73 0 m 1x98
 54 564 l 1
 136 566 l 1
 155 4 l 1
 73 0 l 1x98
51 638 m 1
 -17 635 l 1
 88 747 l 1
 200 644 l 1
 133 641 l 1
 134 609 l 1
 52 607 l 1
 51 638 l 1
EndSplineSet
Validated: 8388609
EndChar

StartChar: cent
Encoding: 162 162 98
Width: 324
GlyphClass: 1
Flags: MW
HStem: -84 21G<144 144> 348 82 763 20G<174 174>
VStem: 24 77 114 61 211 76<432 458> 227 72<224.5 259.5>
LayerCount: 2
Fore
SplineSet
174 783 m 1xfa
 177 698 l 1
 237 691 287 643 287 514 c 2
 287 432 l 1
 211 429 l 1xfc
 211 487 206 599 180 611 c 1
 195 143 l 1
 216 158 227 193 227 249 c 0
 227 270 226 300 222 346 c 1
 298 350 l 1
 299 344 299 336 299 293 c 0
 299 156 266 77 198 59 c 1
 204 -82 l 1
 144 -84 l 1
 138 57 l 1
 68 70 30 134 27 253 c 2
 21 521 l 2
 21 606 48 672 116 693 c 1
 113 780 l 1
 174 783 l 1xfa
105 222 m 2
 106 181 116 154 135 141 c 1
 119 607 l 1
 104 594 97 569 97 531 c 0
 97 523 97 493 98 434 c 2
 105 222 l 2
EndSplineSet
Validated: 1
EndChar

StartChar: sterling
Encoding: 163 163 99
Width: 324
GlyphClass: 1
Flags: MW
HStem: 40 92<113 296 113 300> 357 64<113 250 113 113> 696 88<145 180>
VStem: 30 80 214 81<582 597 578.5 626>
LayerCount: 2
Fore
SplineSet
250 421 m 1
 250 357 l 1
 113 357 l 1
 113 132 l 1
 296 132 l 1
 300 40 l 1
 13 40 l 1
 13 134 l 1
 32 134 l 1
 29 608 l 2
 28 717 77 784 168 784 c 0
 238 784 295 740 295 597 c 2
 295 582 l 2
 295 575 295 567 294 557 c 2
 294 516 l 1
 211 514 l 1
 211 529 214 573 214 591 c 0
 214 661 197 696 163 696 c 0
 127 696 108 669 109 614 c 2
 111 421 l 1
 250 421 l 1
EndSplineSet
Validated: 33
EndChar

StartChar: yen
Encoding: 165 165 100
Width: 295
GlyphClass: 1
Flags: MW
HStem: 11 21G<105 105> 12 165 112 65 231 63 736 20G<276 276>
VStem: 26 160 105 81 105 162<11 295 112 295>
LayerCount: 2
Fore
SplineSet
180 293 m 1x5c
 267 295 l 1
 267 232 l 1x59
 183 230 l 1
 183 176 l 1
 263 179 l 1
 263 118 l 1
 184 115 l 1
 188 13 l 1
 105 11 l 1
 105 112 l 1xba
 26 112 l 1xbc
 26 174 l 1
 101 174 l 1
 101 227 l 1
 31 227 l 1
 31 288 l 1
 100 290 l 1
 100 303 l 1
 -10 739 l 1
 71 739 l 1
 140 450 l 1
 194 753 l 1
 276 756 l 1
 180 320 l 1
 180 293 l 1x5c
EndSplineSet
Validated: 1
EndChar

StartChar: brokenbar
Encoding: 166 166 101
Width: 225
GlyphClass: 1
Flags: MW
HStem: -244 21G<99 99> 793 20G<123 123>
VStem: 68 61 92 60
LayerCount: 2
Fore
SplineSet
99 -244 m 1xc0
 85 148 l 1
 145 153 l 1
 159 -242 l 1
 99 -244 l 1xc0
123 813 m 1
 136 425 l 1
 75 419 l 1
 62 810 l 1
 123 813 l 1
EndSplineSet
Validated: 8388609
EndChar

StartChar: dieresis
Encoding: 168 168 102
Width: 293
GlyphClass: 1
Flags: MW
HStem: 787 21G<40 40> 795 102 878 20G<260 260>
VStem: 38 77 185 77
LayerCount: 2
Fore
SplineSet
260 898 m 1x38
 264 796 l 1
 187 794 l 1
 184 896 l 1
 260 898 l 1x38
113 891 m 1
 117 789 l 1
 40 787 l 1x98
 37 889 l 1
 113 891 l 1
EndSplineSet
Validated: 8388609
EndChar

StartChar: copyright
Encoding: 169 169 103
Width: 641
GlyphClass: 1
Flags: MW
HStem: -5 73<210 423.5 210 437.5> 418 65<320.5 332.5 295 336> 601 70<210 425>
VStem: 35 66<219.5 449.5 219.5 482.5> 237 66<295 372 295 400> 237 139<190 400> 534 66<219 442>
LayerCount: 2
Fore
SplineSet
318 601 m 0xf6
 102 601 101 566 101 333 c 0
 101 106 102 68 318 68 c 0
 529 68 534 105 534 333 c 0
 534 551 532 601 318 601 c 0xf6
318 671 m 0
 563 671 600 644 600 337 c 0
 600 29 564 -5 311 -5 c 0
 81 -5 35 40 35 334 c 0
 35 631 82 671 318 671 c 0
376 475 m 1
 376 408 l 1xf6
 357 416 344 418 328 418 c 0
 313 418 303 411 303 333 c 0xfa
 303 257 314 251 328 251 c 0
 347 251 361 251 376 259 c 1
 376 190 l 1
 361 186 344 182 325 182 c 0
 279 182 237 191 237 333 c 0
 237 467 272 483 318 483 c 0
 347 483 366 480 376 475 c 1
EndSplineSet
Validated: 1
EndChar

StartChar: ordfeminine
Encoding: 170 170 104
Width: 210
GlyphClass: 1
Flags: MW
HStem: 208 21G<143 201 143 143> 609 20G<82 151 151 151>
LayerCount: 2
Fore
SplineSet
151 629 m 1
 201 208 l 1
 143 208 l 1
 131 307 l 1
 83 309 l 1
 71 223 l 1
 17 223 l 1
 82 629 l 1
 151 629 l 1
93 370 m 1
 125 369 l 1
 113 493 l 1
 93 370 l 1
EndSplineSet
Validated: 1
EndChar

StartChar: guillemotleft
Encoding: 171 171 105
Width: 406
GlyphClass: 1
Flags: MW
HStem: 205 21G<203 203 382 382> 502 20G<203 203 382 382>
LayerCount: 2
Fore
SplineSet
203 420 m 1
 113 362 l 1
 203 303 l 1
 203 205 l 1
 27 325 l 1
 27 397 l 1
 203 522 l 1
 203 420 l 1
382 420 m 1
 292 362 l 1
 382 303 l 1
 382 205 l 1
 206 325 l 1
 206 397 l 1
 382 522 l 1
 382 420 l 1
EndSplineSet
Validated: 1
EndChar

StartChar: registered
Encoding: 174 174 106
Width: 458
GlyphClass: 1
Flags: MW
HStem: 211 50<157.5 296 157.5 313.5> 624 47<155 296>
VStem: 35 47<359.5 522 359.5 545.5> 154 48<312 427 476 534> 256 44<496 515.5> 371 49<363.5 515>
LayerCount: 2
Fore
SplineSet
227 624 m 0
 83 624 82 603 82 441 c 0
 82 278 88 261 227 261 c 0
 365 261 371 286 371 441 c 0
 371 589 365 624 227 624 c 0
227 671 m 0
 399 671 420 647 420 444 c 0
 420 240 399 211 228 211 c 0
 68 211 35 235 35 443 c 0
 35 648 69 671 227 671 c 0
202 534 m 1
 202 476 l 1
 233 476 l 2
 248 476 256 486 256 506 c 0
 256 525 248 534 233 534 c 2
 202 534 l 1
202 427 m 1
 202 312 l 1
 154 312 l 1
 154 583 l 1
 233 583 l 2
 281 583 300 555 300 506 c 0
 300 458 286 441 262 432 c 1
 275 419 284 329 301 312 c 1
 251 312 l 1
 235 328 232 410 213 427 c 1
 202 427 l 1
EndSplineSet
Validated: 1
EndChar

StartChar: macron
Encoding: 175 175 107
Width: 239
GlyphClass: 1
Flags: MW
HStem: 846 44<31 207 31 207>
LayerCount: 2
Fore
SplineSet
31 846 m 1
 31 890 l 1
 207 890 l 1
 207 846 l 1
 31 846 l 1
EndSplineSet
Validated: 1
EndChar

StartChar: degree
Encoding: 176 176 108
Width: 319
GlyphClass: 1
Flags: MW
HStem: 377 80<148.5 173.5 148.5 192.5> 608 73<148.5 173.5>
VStem: 31 76<512.5 552.5 512.5 571.5> 209 78<512.5 552.5>
LayerCount: 2
Fore
SplineSet
161 608 m 0
 136 608 107 572 107 533 c 0
 107 492 136 457 161 457 c 0
 186 457 209 492 209 533 c 0
 209 572 186 608 161 608 c 0
157 377 m 0
 89 377 31 446 31 530 c 0
 31 613 89 681 157 681 c 0
 238 681 287 617 287 530 c 0
 287 446 228 377 157 377 c 0
EndSplineSet
Validated: 1
EndChar

StartChar: plusminus
Encoding: 177 177 109
Width: 246
GlyphClass: 1
Flags: MW
HStem: 23 71<8 239 8 239> 268 71<15 102 15 102 161 246 15 161> 444 20G<102 161 161 161>
VStem: 102 59<142 268 142 268 339 464>
LayerCount: 2
Fore
SplineSet
246 339 m 1
 246 268 l 1
 161 268 l 1
 161 142 l 1
 102 142 l 1
 102 268 l 1
 15 268 l 1
 15 339 l 1
 102 339 l 1
 102 464 l 1
 161 464 l 1
 161 339 l 1
 246 339 l 1
239 94 m 1
 239 23 l 1
 8 23 l 1
 8 94 l 1
 239 94 l 1
EndSplineSet
Validated: 1
EndChar

StartChar: twosuperior
Encoding: 178 178 110
Width: 198
GlyphClass: 1
Flags: MW
HStem: 384 21G<27 27> 386 63 746 57<92 109>
VStem: 26 51<662 672 672 677 662 715.5> 124 50<686.5 724.5>
LayerCount: 2
Fore
SplineSet
176 450 m 1x78
 176 388 l 1
 27 384 l 1xb8
 26 445 l 1
 67 523 124 649 124 714 c 0
 124 735 117 746 101 746 c 0
 83 746 77 726 77 677 c 2
 77 662 l 1
 26 662 l 1
 26 672 l 2
 26 759 49 803 103 803 c 0
 148 803 174 768 174 705 c 0
 174 668 163 621 142 568 c 0
 133 545 116 506 85 448 c 1
 176 450 l 1x78
EndSplineSet
Validated: 1
EndChar

StartChar: threesuperior
Encoding: 179 179 111
Width: 198
GlyphClass: 1
Flags: MW
HStem: 319 61<92.5 107.5 92.5 125> 730 20G<68 113>
VStem: 19 57 111 49<604 646.5> 111 61
LayerCount: 2
Fore
SplineSet
172 433 m 0xe8
 172 357 149 319 101 319 c 0
 54 319 29 365 24 457 c 1
 76 459 l 1
 77 406 85 380 100 380 c 0
 115 380 121 395 121 426 c 0
 121 504 110 512 73 512 c 1
 70 562 l 1
 97 565 111 576 111 626 c 0
 111 667 104 687 89 687 c 0
 76 687 70 672 70 647 c 0
 70 634 70 626 72 616 c 1
 21 613 l 1
 20 620 19 630 19 646 c 0
 19 706 46 750 90 750 c 0
 136 750 160 707 160 622 c 0xf0
 160 586 151 559 135 542 c 1
 160 524 172 494 172 433 c 0xe8
EndSplineSet
Validated: 1
EndChar

StartChar: acute
Encoding: 180 180 112
Width: 162
GlyphClass: 1
Flags: MW
HStem: 800 21G<21 82 21 21> 882 20G<64 145 145 145>
LayerCount: 2
Fore
SplineSet
145 902 m 1
 82 800 l 1
 21 800 l 1
 64 902 l 1
 145 902 l 1
EndSplineSet
Validated: 1
EndChar

StartChar: periodcentered
Encoding: 183 183 113
Width: 188
GlyphClass: 1
Flags: MW
HStem: 292 135<76 112>
VStem: 26 136<341 377.5>
LayerCount: 2
Fore
SplineSet
26 359 m 0
 26 396 58 427 94 427 c 0
 130 427 162 396 162 359 c 0
 162 323 130 292 94 292 c 0
 58 292 26 323 26 359 c 0
EndSplineSet
Validated: 1
EndChar

StartChar: cedilla
Encoding: 184 184 114
Width: 175
GlyphClass: 1
Flags: MW
HStem: -168 21G<56 80 56 56> -28 20G<118 118>
LayerCount: 2
Fore
SplineSet
118 -8 m 1
 119 -76 l 1
 80 -168 l 1
 56 -168 l 1
 70 -81 l 1
 42 -81 l 1
 42 -9 l 1
 118 -8 l 1
EndSplineSet
Validated: 1
EndChar

StartChar: onesuperior
Encoding: 185 185 115
Width: 126
GlyphClass: 1
Flags: MW
HStem: 374 21G<50 50> 764 20G<95 95>
VStem: 46 53
LayerCount: 2
Fore
SplineSet
95 784 m 1
 104 376 l 1
 50 374 l 1
 43 689 l 1
 3 687 l 1
 2 731 l 1
 26 742 45 760 57 783 c 1
 95 784 l 1
EndSplineSet
Validated: 1
EndChar

StartChar: ordmasculine
Encoding: 186 186 116
Width: 213
GlyphClass: 1
Flags: MW
HStem: 204 21G<88 141> 609 20G<99 148>
VStem: 40 55 141 55
LayerCount: 2
Fore
SplineSet
201 522 m 1
 196 314 l 2
 195 241 167 204 115 204 c 0
 61 204 37 240 37 312 c 2
 43 528 l 2
 45 592 74 629 124 629 c 0
 172 629 201 590 201 534 c 2
 201 522 l 1
138 302 m 2
 145 532 l 2
 145 563 135 573 123 573 c 0
 110 573 99 561 98 530 c 2
 92 297 l 2
 91 273 103 259 115 259 c 0
 129 259 137 272 138 302 c 2
EndSplineSet
Validated: 33
EndChar

StartChar: guillemotright
Encoding: 187 187 117
Width: 414
GlyphClass: 1
Flags: MW
HStem: 203 21G<33 33 212 212> 501 20G<33 33 212 212>
LayerCount: 2
Fore
SplineSet
212 306 m 1
 302 364 l 1
 212 422 l 1
 212 521 l 1
 388 401 l 1
 388 328 l 1
 212 203 l 1
 212 306 l 1
33 306 m 1
 124 364 l 1
 33 422 l 1
 33 521 l 1
 209 401 l 1
 209 328 l 1
 33 203 l 1
 33 306 l 1
EndSplineSet
Validated: 1
EndChar

StartChar: onequarter
Encoding: 188 188 118
Width: 483
GlyphClass: 1
Flags: MW
HStem: -8 21G<80 139 80 80> 129 59 764 20G<142 142>
VStem: 93 53 391 50
LayerCount: 2
Fore
SplineSet
142 784 m 1
 151 376 l 1
 97 374 l 1
 90 689 l 1
 50 687 l 1
 49 731 l 1
 73 742 92 760 104 783 c 1
 142 784 l 1
346 732 m 1
 406 732 l 1
 139 -8 l 1
 80 -8 l 1
 346 732 l 1
481 189 m 1
 483 133 l 1
 447 132 l 1
 450 35 l 1
 399 31 l 1
 395 131 l 1
 311 127 l 1
 309 183 l 1
 384 440 l 1
 437 442 l 1
 445 188 l 1
 481 189 l 1
359 185 m 1
 393 187 l 1
 389 298 l 1
 359 185 l 1
EndSplineSet
Validated: 1
Ligature2: "'frac' Diagonal Fractions in Latin lookup 0 subtable" one slash four
EndChar

StartChar: onehalf
Encoding: 189 189 119
Width: 470
GlyphClass: 1
Flags: MW
HStem: -8 21G<80 139 80 80> 10 63 375 52 764 20G<142 142>
VStem: 93 53 320 51<286 296 296 301 286 339.5> 418 50<310.5 348.5>
LayerCount: 2
Fore
SplineSet
142 784 m 1x7e
 151 376 l 1
 97 374 l 1
 90 689 l 1
 50 687 l 1
 49 731 l 1
 73 742 92 760 104 783 c 1
 142 784 l 1x7e
346 732 m 1
 406 732 l 1
 139 -8 l 1
 80 -8 l 1xbe
 346 732 l 1
470 74 m 1
 470 12 l 1
 321 8 l 1
 320 69 l 1
 361 147 418 273 418 338 c 0
 418 359 411 370 395 370 c 0
 377 370 371 350 371 301 c 2
 371 286 l 1
 320 286 l 1
 320 296 l 2
 320 383 343 427 397 427 c 0
 442 427 468 392 468 329 c 0
 468 292 457 245 436 192 c 0
 427 169 410 130 379 72 c 1
 470 74 l 1
EndSplineSet
Validated: 1
Ligature2: "'frac' Diagonal Fractions in Latin lookup 0 subtable" one slash two
EndChar

StartChar: threequarters
Encoding: 190 190 120
Width: 503
GlyphClass: 1
Flags: MW
HStem: -8 21G<110 169 110 110> 127 59 307 61<122.5 137.5 122.5 155> 718 20G<98 143>
VStem: 49 57 141 49<592 634.5> 141 61 411 50
LayerCount: 2
Fore
SplineSet
202 421 m 0xfb
 202 345 179 307 131 307 c 0
 84 307 59 353 54 445 c 1
 106 447 l 1
 107 394 115 368 130 368 c 0
 145 368 151 383 151 414 c 0
 151 492 140 500 103 500 c 1
 100 550 l 1
 127 553 141 564 141 614 c 0
 141 655 134 675 119 675 c 0
 106 675 100 660 100 635 c 0
 100 622 100 614 102 604 c 1
 51 601 l 1
 50 608 49 618 49 634 c 0
 49 694 76 738 120 738 c 0
 166 738 190 695 190 610 c 0xfd
 190 574 181 547 165 530 c 1
 190 512 202 482 202 421 c 0xfb
376 732 m 1
 436 732 l 1
 169 -8 l 1
 110 -8 l 1
 376 732 l 1
501 187 m 1
 503 131 l 1
 467 130 l 1
 470 33 l 1
 419 29 l 1
 415 129 l 1
 331 125 l 1
 329 181 l 1
 404 438 l 1
 457 440 l 1
 465 186 l 1
 501 187 l 1
379 183 m 1
 413 185 l 1
 409 296 l 1
 379 183 l 1
EndSplineSet
Validated: 1
Ligature2: "'frac' Diagonal Fractions in Latin lookup 0 subtable" three slash four
EndChar

StartChar: questiondown
Encoding: 191 191 121
Width: 252
GlyphClass: 1
Flags: MW
HStem: -13 86<106.5 131.5 106.5 152> 583 47 750 20G<96 96>
VStem: 6 71<118 146.5> 76 69<485.5 514>
LayerCount: 2
Fore
SplineSet
6 131 m 0xf0
 6 162 14 197 29 238 c 0
 60 326 76 414 76 502 c 0
 76 526 75 551 74 582 c 1
 144 585 l 1
 145 578 145 569 145 560 c 2
 145 532 l 2xe8
 145 439 138 362 125 303 c 1
 126 307 77 171 77 132 c 0
 77 104 93 73 120 73 c 0
 143 73 163 100 179 155 c 1
 242 126 l 1
 223 33 183 -13 121 -13 c 0
 52 -13 6 42 6 131 c 0xf0
62 659 m 1
 -5 655 l 1
 96 770 l 1
 211 668 l 1
 144 664 l 1
 146 633 l 1
 64 628 l 1
 62 659 l 1
EndSplineSet
Validated: 37
EndChar

StartChar: Agrave
Encoding: 192 192 122
Width: 328
GlyphClass: 1
Flags: MW
HStem: 33 21G<246 330 246 246> 221 91 904 20G<103 182 182 182>
LayerCount: 2
Fore
SplineSet
242 796 m 1
 330 33 l 1
 246 33 l 1
 223 219 l 1
 117 223 l 1
 93 61 l 1
 14 61 l 1
 131 796 l 1
 242 796 l 1
130 313 m 1
 215 311 l 1
 184 644 l 1
 130 313 l 1
167 823 m 1
 103 924 l 1
 182 924 l 1
 224 823 l 1
 167 823 l 1
EndSplineSet
Validated: 1
EndChar

StartChar: Aacute
Encoding: 193 193 123
Width: 328
GlyphClass: 1
Flags: MW
HStem: 33 21G<246 330 246 246> 221 91 913 20G<190 271 271 271>
LayerCount: 2
Fore
SplineSet
242 796 m 1
 330 33 l 1
 246 33 l 1
 223 219 l 1
 117 223 l 1
 93 61 l 1
 14 61 l 1
 131 796 l 1
 242 796 l 1
130 313 m 1
 215 311 l 1
 184 644 l 1
 130 313 l 1
271 933 m 1
 208 831 l 1
 147 831 l 1
 190 933 l 1
 271 933 l 1
EndSplineSet
Validated: 1
EndChar

StartChar: Acircumflex
Encoding: 194 194 124
Width: 328
GlyphClass: 1
Flags: MW
HStem: 33 21G<246 330 246 246> 796 24 933 20G<219 219>
LayerCount: 2
Fore
SplineSet
242 796 m 1
 330 33 l 1
 246 33 l 1
 223 219 l 1
 117 223 l 1
 93 61 l 1
 14 61 l 1
 131 796 l 1
 242 796 l 1
130 313 m 1
 215 311 l 1
 184 644 l 1
 130 313 l 1
243 827 m 1
 189 913 l 1
 137 822 l 1
 61 819 l 1
 152 950 l 1
 219 953 l 1
 316 831 l 1
 243 827 l 1
EndSplineSet
Validated: 1
EndChar

StartChar: Atilde
Encoding: 195 195 125
Width: 328
GlyphClass: 1
Flags: MW
HStem: 33 21G<246 330 246 246> 221 91 827 53<224 238 220 242.5> 864 52<136.5 148 131.5 154.5> 907 20G<271 271>
VStem: 108 163<855 895 895 895>
LayerCount: 2
Fore
SplineSet
242 796 m 1xd4
 330 33 l 1
 246 33 l 1
 223 219 l 1
 117 223 l 1
 93 61 l 1
 14 61 l 1
 131 796 l 1
 242 796 l 1xd4
130 313 m 1
 215 311 l 1
 184 644 l 1
 130 313 l 1
108 825 m 1
 108 895 l 1
 115 909 125 916 138 916 c 0xd4
 158 916 210 880 230 880 c 0
 246 880 260 896 271 927 c 1
 271 855 l 1
 262 836 250 827 235 827 c 0xec
 213 827 165 864 144 864 c 0
 129 864 117 851 108 825 c 1
EndSplineSet
Validated: 1
EndChar

StartChar: Adieresis
Encoding: 196 196 126
Width: 328
GlyphClass: 1
Flags: MW
HStem: 33 21G<246 330 246 246> 221 91 821 102 904 20G<311 311>
VStem: 89 77 236 77
LayerCount: 2
Fore
SplineSet
242 796 m 1xec
 330 33 l 1
 246 33 l 1
 223 219 l 1
 117 223 l 1
 93 61 l 1
 14 61 l 1
 131 796 l 1
 242 796 l 1xec
130 313 m 1
 215 311 l 1
 184 644 l 1
 130 313 l 1
311 924 m 1xdc
 315 822 l 1
 238 820 l 1
 235 922 l 1
 311 924 l 1xdc
164 917 m 1
 168 815 l 1
 91 813 l 1
 88 915 l 1
 164 917 l 1
EndSplineSet
Validated: 1
EndChar

StartChar: Aring
Encoding: 197 197 127
Width: 328
GlyphClass: 1
Flags: MW
HStem: 33 21G<246 330 246 246> 221 91 808 31<184.5 201.5 184.5 210.5> 909 34<184.5 201.5>
VStem: 132 30<864 883.5 864 892.5> 222 33<864 883.5>
LayerCount: 2
Fore
SplineSet
242 796 m 1
 330 33 l 1
 246 33 l 1
 223 219 l 1
 117 223 l 1
 93 61 l 1
 14 61 l 1
 131 796 l 1
 242 796 l 1
130 313 m 1
 215 311 l 1
 184 644 l 1
 130 313 l 1
162 874 m 0
 162 854 176 839 193 839 c 0
 210 839 222 854 222 874 c 0
 222 893 210 909 193 909 c 0
 176 909 162 893 162 874 c 0
193 808 m 0
 157 808 132 836 132 872 c 0
 132 913 157 943 193 943 c 0
 228 943 255 911 255 872 c 0
 255 836 228 808 193 808 c 0
EndSplineSet
Validated: 1
EndChar

StartChar: AE
Encoding: 198 198 128
Width: 476
GlyphClass: 1
Flags: MW
HStem: 58 98<333 472 333 474 246 472> 312 95<333 438 333 333> 704 94<330 457 330 330>
VStem: 239 91<407 703 703 703>
LayerCount: 2
Fore
SplineSet
472 156 m 1
 474 58 l 1
 246 58 l 1
 240 307 l 1
 143 307 l 1
 94 58 l 1
 15 61 l 1
 142 798 l 1
 457 798 l 1
 457 704 l 1
 330 704 l 1
 330 407 l 1
 438 407 l 1
 438 312 l 1
 333 312 l 1
 333 156 l 1
 472 156 l 1
158 400 m 1
 239 400 l 1
 239 703 l 1
 208 702 l 1
 158 400 l 1
EndSplineSet
Validated: 1
EndChar

StartChar: Ccedilla
Encoding: 199 199 129
Width: 324
GlyphClass: 1
Flags: MW
HStem: -168 21G<159 183 159 159> -8 20<132 221> 12 88<161.5 195.5 161.5 220.5> 696 88<145 180>
VStem: 33 82 145 166 214 81<577.5 626> 232 79<178 243.5>
LayerCount: 2
Fore
SplineSet
311 249 m 0xb9
 311 91 266 12 175 12 c 0
 89 12 41 78 38 211 c 2
 29 608 l 2
 29 717 77 784 168 784 c 0
 238 784 295 740 295 597 c 0
 295 558 295 537 293 516 c 1
 211 514 l 1
 212 531 214 558 214 591 c 0xda
 214 661 197 696 163 696 c 0
 127 696 109 669 109 614 c 2
 122 186 l 2
 124 122 146 100 177 100 c 0
 214 100 232 139 232 217 c 0
 232 270 231 289 229 305 c 1
 309 307 l 1
 310 294 311 282 311 249 c 0xb9
221 -8 m 1
 222 -76 l 1
 183 -168 l 1
 159 -168 l 1
 173 -81 l 1
 145 -81 l 1
 145 -9 l 1xdc
 221 -8 l 1
EndSplineSet
Validated: 1
EndChar

StartChar: Egrave
Encoding: 200 200 130
Width: 276
GlyphClass: 1
Flags: MW
HStem: 26 21G<54 54> 29 99 369 94 677 92 878 20G<55 134 134 134>
VStem: 40 75
LayerCount: 2
Fore
SplineSet
270 131 m 1x7c
 273 33 l 1
 54 26 l 1xbc
 27 765 l 1
 237 774 l 1
 239 679 l 1
 112 675 l 1
 119 462 l 1
 227 465 l 1
 230 371 l 1
 123 368 l 1
 131 126 l 1
 270 131 l 1x7c
119 797 m 1
 55 898 l 1
 134 898 l 1
 176 797 l 1
 119 797 l 1
EndSplineSet
Validated: 1
EndChar

StartChar: Eacute
Encoding: 201 201 131
Width: 276
GlyphClass: 1
Flags: MW
HStem: 26 21G<54 54> 29 99 369 94 677 92 882 20G<138 219 219 219>
VStem: 40 75
LayerCount: 2
Fore
SplineSet
270 131 m 1x7c
 273 33 l 1
 54 26 l 1xbc
 27 765 l 1
 237 774 l 1
 239 679 l 1
 112 675 l 1
 119 462 l 1
 227 465 l 1
 230 371 l 1
 123 368 l 1
 131 126 l 1
 270 131 l 1x7c
219 902 m 1
 156 800 l 1
 95 800 l 1
 138 902 l 1
 219 902 l 1
EndSplineSet
Validated: 1
EndChar

StartChar: Ecircumflex
Encoding: 202 202 132
Width: 276
GlyphClass: 1
Flags: MW
HStem: 26 21G<54 54> 29 99 369 94 677 92 920 20G<161 161>
VStem: 40 75
LayerCount: 2
Fore
SplineSet
270 131 m 1x7c
 273 33 l 1
 54 26 l 1xbc
 27 765 l 1
 237 774 l 1
 239 679 l 1
 112 675 l 1
 119 462 l 1
 227 465 l 1
 230 371 l 1
 123 368 l 1
 131 126 l 1
 270 131 l 1x7c
185 814 m 1
 131 900 l 1
 79 809 l 1
 3 806 l 1
 94 937 l 1
 161 940 l 1
 258 818 l 1
 185 814 l 1
EndSplineSet
Validated: 1
EndChar

StartChar: Edieresis
Encoding: 203 203 133
Width: 276
GlyphClass: 1
Flags: MW
HStem: 26 21G<54 54> 29 99 369 94 677 92 810 102 893 20G<250 250>
VStem: 28 87 175 77
LayerCount: 2
Fore
SplineSet
270 131 m 1x7b
 273 33 l 1
 54 26 l 1xbb
 27 765 l 1
 237 774 l 1
 239 679 l 1
 112 675 l 1
 119 462 l 1
 227 465 l 1
 230 371 l 1
 123 368 l 1
 131 126 l 1
 270 131 l 1x7b
250 913 m 1x77
 254 811 l 1
 177 809 l 1
 174 911 l 1
 250 913 l 1x77
103 906 m 1
 107 804 l 1
 30 802 l 1
 27 904 l 1
 103 906 l 1
EndSplineSet
Validated: 1
EndChar

StartChar: Igrave
Encoding: 204 204 134
Width: 211
GlyphClass: 1
Flags: MW
HStem: -27 21G<99 99> 83 200<51 205 51 205> 112 43 240 43 369 43 497 43 626 50 883 20G<-9 70 70 70>
VStem: 52 82
LayerCount: 2
Fore
SplineSet
99 -27 m 1xcf80
 -12 80 l 1
 55 80 l 1
 55 111 l 1
 137 113 l 1
 137 83 l 1
 205 83 l 1
 99 -27 l 1xcf80
136 156 m 1
 54 155 l 1xbf80
 51 239 l 1
 133 242 l 1
 136 156 l 1
133 284 m 1
 51 283 l 1xcf80
 49 368 l 1
 131 370 l 1
 133 284 l 1
130 413 m 1
 48 412 l 1
 46 496 l 1
 130 499 l 1
 130 413 l 1
127 541 m 1
 44 540 l 1
 44 625 l 1
 127 627 l 1
 127 541 l 1
125 676 m 1
 42 676 l 1
 42 739 l 1
 125 741 l 1
 125 676 l 1
55 802 m 1
 -9 903 l 1
 70 903 l 1
 112 802 l 1
 55 802 l 1
EndSplineSet
Validated: 1
EndChar

StartChar: Iacute
Encoding: 205 205 135
Width: 211
GlyphClass: 1
Flags: MW
HStem: -27 21G<99 99> 83 200<51 205 51 205> 112 43 240 43 369 43 497 43 626 50 889 20G<94 175 175 175>
VStem: 52 82
LayerCount: 2
Fore
SplineSet
99 -27 m 1xcf80
 -12 80 l 1
 55 80 l 1
 55 111 l 1
 137 113 l 1
 137 83 l 1
 205 83 l 1
 99 -27 l 1xcf80
136 156 m 1
 54 155 l 1xbf80
 51 239 l 1
 133 242 l 1
 136 156 l 1
133 284 m 1
 51 283 l 1xcf80
 49 368 l 1
 131 370 l 1
 133 284 l 1
130 413 m 1
 48 412 l 1
 46 496 l 1
 130 499 l 1
 130 413 l 1
127 541 m 1
 44 540 l 1
 44 625 l 1
 127 627 l 1
 127 541 l 1
125 676 m 1
 42 676 l 1
 42 739 l 1
 125 741 l 1
 125 676 l 1
175 909 m 1
 112 807 l 1
 51 807 l 1
 94 909 l 1
 175 909 l 1
EndSplineSet
Validated: 1
EndChar

StartChar: Icircumflex
Encoding: 206 206 136
Width: 211
GlyphClass: 1
Flags: MW
HStem: -27 21G<99 99> 83 200<51 205 51 205> 112 43 240 43 369 43 497 43 626 50 913 20G<122 122>
VStem: 52 82
LayerCount: 2
Fore
SplineSet
99 -27 m 1xcf80
 -12 80 l 1
 55 80 l 1
 55 111 l 1
 137 113 l 1
 137 83 l 1
 205 83 l 1
 99 -27 l 1xcf80
136 156 m 1
 54 155 l 1xbf80
 51 239 l 1
 133 242 l 1
 136 156 l 1
133 284 m 1
 51 283 l 1xcf80
 49 368 l 1
 131 370 l 1
 133 284 l 1
130 413 m 1
 48 412 l 1
 46 496 l 1
 130 499 l 1
 130 413 l 1
127 541 m 1
 44 540 l 1
 44 625 l 1
 127 627 l 1
 127 541 l 1
125 676 m 1
 42 676 l 1
 42 739 l 1
 125 741 l 1
 125 676 l 1
146 807 m 1
 92 893 l 1
 40 802 l 1
 -36 799 l 1
 55 930 l 1
 122 933 l 1
 219 811 l 1
 146 807 l 1
EndSplineSet
Validated: 1
EndChar

StartChar: Idieresis
Encoding: 207 207 137
Width: 211
GlyphClass: 1
Flags: MW
HStem: -27 21G<99 99> 83 200<51 205 51 205> 112 43 240 43 369 43 497 43 626 50 676 64 740 55 795 102 878 20G<205 205>
VStem: -16 76 130 77
LayerCount: 2
Fore
SplineSet
99 -27 m 1xceb8
 -12 80 l 1
 55 80 l 1
 55 111 l 1
 137 113 l 1
 137 83 l 1
 205 83 l 1
 99 -27 l 1xceb8
136 156 m 1
 54 155 l 1xbeb8
 51 239 l 1
 133 242 l 1
 136 156 l 1
133 284 m 1
 51 283 l 1xcf58
 49 368 l 1
 131 370 l 1
 133 284 l 1
130 413 m 1
 48 412 l 1
 46 496 l 1
 130 499 l 1
 130 413 l 1
127 541 m 1
 44 540 l 1
 44 625 l 1
 127 627 l 1
 127 541 l 1
125 676 m 1
 42 676 l 1
 42 739 l 1
 125 741 l 1
 125 676 l 1
205 898 m 1xceb8
 209 796 l 1
 132 794 l 1
 129 896 l 1
 205 898 l 1xceb8
58 891 m 1
 62 789 l 1
 -15 787 l 1
 -18 889 l 1
 58 891 l 1
EndSplineSet
Validated: 8388609
EndChar

StartChar: Eth
Encoding: 208 208 138
Width: 342
GlyphClass: 1
Flags: MW
HStem: -25 98<121.5 169 133 143> -24 21G<52 99 52 52> 312 55<-5 49 -5 49 -5 52 133 133 133 214> 622 95 698 20G<175 223>
VStem: 49 82<367 622 367 716> 240 81
LayerCount: 2
Fore
SplineSet
-5 312 m 1x76
 -5 367 l 1
 49 367 l 1
 49 716 l 1
 175 718 l 2
 271 718 320 652 321 519 c 0
 322 300 324 186 324 175 c 0
 324 18 278 -25 143 -25 c 2
 125 -25 l 2xae
 118 -25 109 -25 99 -24 c 2
 52 -24 l 1
 52 312 l 1
 -5 312 l 1x76
242 161 m 2
 238 525 l 2
 237 601 213 622 136 622 c 2
 131 622 l 1xb6
 131 367 l 1
 214 367 l 1
 214 312 l 1
 133 312 l 1
 133 73 l 1
 169 73 l 2
 223 73 243 92 242 161 c 2
EndSplineSet
Validated: 33
EndChar

StartChar: Ntilde
Encoding: 209 209 139
Width: 356
GlyphClass: 1
Flags: MW
HStem: -38 21G<127 127> 760 53<259 273 255 277.5> 797 52<171.5 183 166.5 189.5> 840 20G<306 306>
VStem: 64 69 143 163<788 828 828 828> 275 72
LayerCount: 2
Fore
SplineSet
282 688 m 1xda
 357 685 l 1
 338 -33 l 1
 262 -31 l 1
 142 434 l 1
 139 433 l 1
 127 -38 l 1
 54 -36 l 1
 74 713 l 1
 146 713 l 1
 268 215 l 1
 282 688 l 1xda
143 758 m 1xac
 143 828 l 1xdc
 150 842 160 849 173 849 c 0xaa
 193 849 245 813 265 813 c 0
 281 813 295 829 306 860 c 1
 306 788 l 1xdc
 297 769 285 760 270 760 c 0xda
 248 760 200 797 179 797 c 0
 164 797 152 784 143 758 c 1xac
EndSplineSet
Validated: 1
EndChar

StartChar: Ograve
Encoding: 210 210 140
Width: 333
GlyphClass: 1
Flags: MW
HStem: 25 83<167.5 199 167.5 228> 713 84<183 213> 899 20G<115 194 194 194>
VStem: 54 82 245 79 251 73
LayerCount: 2
Fore
SplineSet
333 607 m 1xf4
 324 220 l 2
 321 90 272 25 184 25 c 0
 90 25 49 89 49 217 c 2
 60 618 l 2
 63 731 114 797 200 797 c 0
 283 797 333 727 333 629 c 2
 333 607 l 1xf4
239 198 m 2
 251 625 l 2
 251 674 228 713 198 713 c 0
 168 713 143 679 142 622 c 2
 131 189 l 2
 131 148 152 108 183 108 c 0
 215 108 239 145 239 198 c 2
179 818 m 1
 115 919 l 1
 194 919 l 1
 236 818 l 1
 179 818 l 1
EndSplineSet
Validated: 8388609
EndChar

StartChar: Oacute
Encoding: 211 211 141
Width: 333
GlyphClass: 1
Flags: MW
HStem: 25 83<167.5 199 167.5 228> 713 84<183 213> 903 20G<198 279 279 279>
VStem: 54 82 245 79 251 73
LayerCount: 2
Fore
SplineSet
333 607 m 1xf4
 324 220 l 2
 321 90 272 25 184 25 c 0
 90 25 49 89 49 217 c 2
 60 618 l 2
 63 731 114 797 200 797 c 0
 283 797 333 727 333 629 c 2
 333 607 l 1xf4
239 198 m 2
 251 625 l 2
 251 674 228 713 198 713 c 0
 168 713 143 679 142 622 c 2
 131 189 l 2
 131 148 152 108 183 108 c 0
 215 108 239 145 239 198 c 2
279 923 m 1
 216 821 l 1
 155 821 l 1
 198 923 l 1
 279 923 l 1
EndSplineSet
Validated: 8388609
EndChar

StartChar: Ocircumflex
Encoding: 212 212 142
Width: 333
GlyphClass: 1
Flags: MW
HStem: 25 83<167.5 199 167.5 228> 713 84<183 213> 929 20G<236 236>
VStem: 54 82 245 79 251 73
LayerCount: 2
Fore
SplineSet
333 607 m 1xf4
 324 220 l 2
 321 90 272 25 184 25 c 0
 90 25 49 89 49 217 c 2
 60 618 l 2
 63 731 114 797 200 797 c 0
 283 797 333 727 333 629 c 2
 333 607 l 1xf4
239 198 m 2
 251 625 l 2
 251 674 228 713 198 713 c 0
 168 713 143 679 142 622 c 2
 131 189 l 2
 131 148 152 108 183 108 c 0
 215 108 239 145 239 198 c 2
260 823 m 1
 206 909 l 1
 154 818 l 1
 78 815 l 1
 169 946 l 1
 236 949 l 1
 333 827 l 1
 260 823 l 1
EndSplineSet
Validated: 8388609
EndChar

StartChar: Otilde
Encoding: 213 213 143
Width: 333
GlyphClass: 1
Flags: MW
HStem: 25 83<167.5 199 167.5 228> 713 84<183 213> 817 53<238 252 234 256.5> 854 52<150.5 162 145.5 168.5> 897 20G<285 285>
VStem: 54 82 122 163<845 885 885 885> 245 79 251 73
LayerCount: 2
Fore
SplineSet
333 607 m 1xec80
 324 220 l 2
 321 90 272 25 184 25 c 0
 90 25 49 89 49 217 c 2
 60 618 l 2
 63 731 114 797 200 797 c 0
 283 797 333 727 333 629 c 2
 333 607 l 1xec80
239 198 m 2
 251 625 l 2
 251 674 228 713 198 713 c 0
 168 713 143 679 142 622 c 2
 131 189 l 2
 131 148 152 108 183 108 c 0
 215 108 239 145 239 198 c 2
122 815 m 1xd2
 122 885 l 1xea
 129 899 139 906 152 906 c 0xd5
 172 906 224 870 244 870 c 0
 260 870 274 886 285 917 c 1
 285 845 l 1xea
 276 826 264 817 249 817 c 0xed
 227 817 179 854 158 854 c 0
 143 854 131 841 122 815 c 1xd2
EndSplineSet
Validated: 1
EndChar

StartChar: Odieresis
Encoding: 214 214 144
Width: 333
GlyphClass: 1
Flags: MW
HStem: 25 83<167.5 199 167.5 228> 713 84<183 213> 810 102 893 20G<314 314>
VStem: 54 82 245 79 251 73
LayerCount: 2
Fore
SplineSet
333 607 m 1xea
 324 220 l 2
 321 90 272 25 184 25 c 0
 90 25 49 89 49 217 c 2
 60 618 l 2
 63 731 114 797 200 797 c 0
 283 797 333 727 333 629 c 2
 333 607 l 1xea
239 198 m 2
 251 625 l 2
 251 674 228 713 198 713 c 0
 168 713 143 679 142 622 c 2
 131 189 l 2
 131 148 152 108 183 108 c 0
 215 108 239 145 239 198 c 2
314 913 m 1xdc
 318 811 l 1
 241 809 l 1
 238 911 l 1
 314 913 l 1xdc
167 906 m 1
 171 804 l 1
 94 802 l 1
 91 904 l 1
 167 906 l 1
EndSplineSet
Validated: 1
EndChar

StartChar: multiply
Encoding: 215 215 145
Width: 267
GlyphClass: 1
Flags: MW
HStem: 190 21G<219 219> 447 20G<62 62>
LayerCount: 2
Fore
SplineSet
202 451 m 1
 244 402 l 1
 181 328 l 1
 259 236 l 1
 219 190 l 1
 141 281 l 1
 78 207 l 1
 37 256 l 1
 100 330 l 1
 23 420 l 1
 62 467 l 1
 140 377 l 1
 202 451 l 1
EndSplineSet
Validated: 1
EndChar

StartChar: Oslash
Encoding: 216 216 146
Width: 333
GlyphClass: 1
Flags: MW
HStem: -20 21G<72 72> 25 83<171.5 199 171.5 228.5> 713 84<183.5 213> 806 20G<304 304>
VStem: 54 83 243 85
LayerCount: 2
Fore
SplineSet
304 826 m 1
 359 799 l 1
 320 706 l 1
 328 677 334 649 333 616 c 2
 324 220 l 2
 320 90 273 25 184 25 c 0
 149 25 121 34 100 51 c 1
 72 -20 l 1
 19 6 l 1
 63 107 l 1
 53 132 48 162 48 198 c 0
 48 204 49 210 49 217 c 2
 60 618 l 2
 63 731 114 797 200 797 c 0
 234 797 262 786 283 765 c 1
 304 826 l 1
133 318 m 1
 252 666 l 1
 249 702 228 713 198 713 c 0
 169 713 144 679 142 622 c 2
 133 318 l 1
248 488 m 1
 136 155 l 1
 140 122 160 108 183 108 c 0
 215 108 239 145 239 198 c 2
 248 488 l 1
EndSplineSet
Validated: 33
EndChar

StartChar: Ugrave
Encoding: 217 217 147
Width: 339
GlyphClass: 1
Flags: MW
HStem: -45 96<168.5 206 168.5 231.5> 843 20G<124 203 203 203>
VStem: 59 81 253 80
LayerCount: 2
Fore
SplineSet
263 711 m 1
 340 707 l 1
 326 150 l 2
 323 20 275 -45 188 -45 c 0
 94 -45 51 19 51 148 c 2
 67 713 l 1
 148 709 l 1
 133 131 l 2
 132 84 149 51 188 51 c 0
 224 51 241 78 243 132 c 2
 263 711 l 1
188 762 m 1
 124 863 l 1
 203 863 l 1
 245 762 l 1
 188 762 l 1
EndSplineSet
Validated: 33
EndChar

StartChar: Uacute
Encoding: 218 218 148
Width: 339
GlyphClass: 1
Flags: MW
HStem: -45 96<168.5 206 168.5 231.5> 847 20G<195 276 276 276>
VStem: 59 81 253 80
LayerCount: 2
Fore
SplineSet
263 711 m 1
 340 707 l 1
 326 150 l 2
 323 20 275 -45 188 -45 c 0
 94 -45 51 19 51 148 c 2
 67 713 l 1
 148 709 l 1
 133 131 l 2
 132 84 149 51 188 51 c 0
 224 51 241 78 243 132 c 2
 263 711 l 1
276 867 m 1
 213 765 l 1
 152 765 l 1
 195 867 l 1
 276 867 l 1
EndSplineSet
Validated: 33
EndChar

StartChar: Ucircumflex
Encoding: 219 219 149
Width: 339
GlyphClass: 1
Flags: MW
HStem: -45 96<168.5 206 168.5 231.5> 711 60 884 20G<235 235>
VStem: 59 81 253 80
LayerCount: 2
Fore
SplineSet
263 711 m 1
 340 707 l 1
 326 150 l 2
 323 20 275 -45 188 -45 c 0
 94 -45 51 19 51 148 c 2
 67 713 l 1
 148 709 l 1
 133 131 l 2
 132 84 149 51 188 51 c 0
 224 51 241 78 243 132 c 2
 263 711 l 1
259 778 m 1
 205 864 l 1
 153 773 l 1
 77 770 l 1
 168 901 l 1
 235 904 l 1
 332 782 l 1
 259 778 l 1
EndSplineSet
Validated: 33
EndChar

StartChar: Udieresis
Encoding: 220 220 150
Width: 339
GlyphClass: 1
Flags: MW
HStem: -45 96<168.5 206 168.5 231.5> 766 102 849 20G<318 318>
VStem: 59 81 253 67
LayerCount: 2
Fore
SplineSet
263 711 m 1xd8
 340 707 l 1
 326 150 l 2
 323 20 275 -45 188 -45 c 0
 94 -45 51 19 51 148 c 2
 67 713 l 1
 148 709 l 1
 133 131 l 2
 132 84 149 51 188 51 c 0
 224 51 241 78 243 132 c 2
 263 711 l 1xd8
318 869 m 1xb8
 322 767 l 1
 245 765 l 1
 242 867 l 1
 318 869 l 1xb8
171 862 m 1
 175 760 l 1
 98 758 l 1
 95 860 l 1
 171 862 l 1
EndSplineSet
Validated: 33
EndChar

StartChar: Yacute
Encoding: 221 221 151
Width: 295
GlyphClass: 1
Flags: MW
HStem: 11 21G<107 107> 876 20G<129 210 210 210>
VStem: 103 81
LayerCount: 2
Fore
SplineSet
194 753 m 1
 276 756 l 1
 180 320 l 1
 188 13 l 1
 107 11 l 1
 100 303 l 1
 -10 739 l 1
 68 744 l 1
 140 450 l 1
 194 753 l 1
210 896 m 1
 147 794 l 1
 86 794 l 1
 129 896 l 1
 210 896 l 1
EndSplineSet
Validated: 1
EndChar

StartChar: Thorn
Encoding: 222 222 152
Width: 324
GlyphClass: 1
Flags: MW
HStem: 15 21G<54 54> 748 20G<106 106>
VStem: 40 68 40 81 228 83<355 400>
LayerCount: 2
Fore
SplineSet
311 417 m 0xc8
 311 293 281 223 220 208 c 0
 211 206 181 204 129 201 c 1
 133 29 l 1
 54 15 l 1
 27 765 l 1
 106 768 l 1
 111 635 l 1
 170 635 l 2
 264 635 311 562 311 417 c 0xc8
228 400 m 0
 225 526 212 541 138 541 c 2
 127 541 l 2
 124 541 121 541 117 540 c 1
 125 294 l 2
 128 294 131 293 134 293 c 0
 193 293 228 305 228 400 c 0
EndSplineSet
Validated: 8388609
EndChar

StartChar: germandbls
Encoding: 223 223 153
Width: 626
GlyphClass: 1
Flags: MW
HStem: -15 98<150.5 194.5 150.5 213> 21 98<456 499 456 524> 568 186 607 181 664 90<151.5 182> 699 89<431 465>
VStem: 35 67 35 79<566.5 612 566.5 632.5> 206 81<604.5 628> 234 78<145 180.5> 316 79<606.5 651.5 606.5 675.5> 486 81<608 699.5> 538 78<176 213>
LayerCount: 2
Fore
SplineSet
312 167 m 0x8970
 312 65 253 -15 173 -15 c 0
 85 -15 25 78 25 195 c 1
 102 196 l 1
 105 118 131 83 170 83 c 0
 219 83 234 125 234 165 c 0x8668
 234 196 230 215 197 270 c 0
 167 319 120 369 87 417 c 0
 52 468 35 524 35 576 c 0
 35 689 85 754 161 754 c 0
 224 754 287 717 287 606 c 0
 287 593 286 580 285 565 c 1
 204 571 l 1
 206 585 206 599 206 610 c 0xa2b0
 206 646 194 664 170 664 c 0
 133 664 114 638 114 586 c 0
 114 547 122 515 165 457 c 0
 196 415 231 375 261 332 c 0
 297 280 312 224 312 167 c 0x8970
616 210 m 0
 616 89 568 21 480 21 c 0
 395 21 334 109 328 222 c 1
 405 228 l 1
 412 153 438 119 474 119 c 0
 524 119 538 156 538 196 c 0x62a8
 538 230 533 250 495 307 c 0
 463 354 412 401 377 447 c 0
 335 502 316 564 316 622 c 0
 316 729 365 788 443 788 c 0
 502 788 567 752 567 647 c 0
 567 634 567 622 566 606 c 1
 486 608 l 1x92b0
 486 669 481 699 449 699 c 0
 413 699 395 674 395 629 c 0
 395 584 403 552 453 492 c 0
 486 451 524 413 556 372 c 0
 595 322 616 267 616 210 c 0
EndSplineSet
Validated: 1
EndChar

StartChar: agrave
Encoding: 224 224 154
Width: 328
GlyphClass: 1
Flags: MW
HStem: 27 21G<330 330> 218 92 892 20G<102 181 181 181>
LayerCount: 2
Fore
SplineSet
252 793 m 1
 330 27 l 1
 248 30 l 1
 225 217 l 1
 120 220 l 1
 94 58 l 1
 15 61 l 1
 142 796 l 1
 252 793 l 1
133 312 m 1
 219 308 l 1
 193 641 l 1
 133 312 l 1
166 811 m 1
 102 912 l 1
 181 912 l 1
 223 811 l 1
 166 811 l 1
EndSplineSet
Validated: 1
EndChar

StartChar: aacute
Encoding: 225 225 155
Width: 328
GlyphClass: 1
Flags: MW
HStem: 27 21G<330 330> 218 92 902 20G<194 275 275 275>
LayerCount: 2
Fore
SplineSet
252 793 m 1
 330 27 l 1
 248 30 l 1
 225 217 l 1
 120 220 l 1
 94 58 l 1
 15 61 l 1
 142 796 l 1
 252 793 l 1
133 312 m 1
 219 308 l 1
 193 641 l 1
 133 312 l 1
275 922 m 1
 212 820 l 1
 151 820 l 1
 194 922 l 1
 275 922 l 1
EndSplineSet
Validated: 1
EndChar

StartChar: acircumflex
Encoding: 226 226 156
Width: 328
GlyphClass: 1
Flags: MW
HStem: 27 21G<330 330> 794 21G 928 20G<224 224>
LayerCount: 2
Fore
SplineSet
252 793 m 1
 330 27 l 1
 248 30 l 1
 225 217 l 1
 120 220 l 1
 94 58 l 1
 15 61 l 1
 142 796 l 1
 252 793 l 1
133 312 m 1
 219 308 l 1
 193 641 l 1
 133 312 l 1
248 822 m 1
 194 908 l 1
 142 817 l 1
 66 814 l 1
 157 945 l 1
 224 948 l 1
 321 826 l 1
 248 822 l 1
EndSplineSet
Validated: 1
EndChar

StartChar: atilde
Encoding: 227 227 157
Width: 328
GlyphClass: 1
Flags: MW
HStem: 27 21G<330 330> 218 92 820 53<222 236 218 240.5> 857 52<134.5 146 129.5 152.5> 900 20G<269 269>
VStem: 106 163<848 888 888 888>
LayerCount: 2
Fore
SplineSet
252 793 m 1xd4
 330 27 l 1
 248 30 l 1
 225 217 l 1
 120 220 l 1
 94 58 l 1
 15 61 l 1
 142 796 l 1
 252 793 l 1xd4
133 312 m 1
 219 308 l 1
 193 641 l 1
 133 312 l 1
106 818 m 1
 106 888 l 1
 113 902 123 909 136 909 c 0xd4
 156 909 208 873 228 873 c 0
 244 873 258 889 269 920 c 1
 269 848 l 1
 260 829 248 820 233 820 c 0xec
 211 820 163 857 142 857 c 0
 127 857 115 844 106 818 c 1
EndSplineSet
Validated: 1
EndChar

StartChar: adieresis
Encoding: 228 228 158
Width: 328
GlyphClass: 1
Flags: MW
HStem: 27 21G<330 330> 218 92 810 102 893 20G<311 311>
VStem: 89 77 236 77
LayerCount: 2
Fore
SplineSet
252 793 m 1xec
 330 27 l 1
 248 30 l 1
 225 217 l 1
 120 220 l 1
 94 58 l 1
 15 61 l 1
 142 796 l 1
 252 793 l 1xec
133 312 m 1
 219 308 l 1
 193 641 l 1
 133 312 l 1
311 913 m 1xdc
 315 811 l 1
 238 809 l 1
 235 911 l 1
 311 913 l 1xdc
164 906 m 1
 168 804 l 1
 91 802 l 1
 88 904 l 1
 164 906 l 1
EndSplineSet
Validated: 1
EndChar

StartChar: aring
Encoding: 229 229 159
Width: 328
GlyphClass: 1
Flags: MW
HStem: 27 21G<330 330> 218 92 807 31<198.5 215.5 198.5 224.5> 908 34<198.5 215.5>
VStem: 146 30<863 882.5 863 891.5> 236 33<863 882.5>
LayerCount: 2
Fore
SplineSet
252 793 m 1
 330 27 l 1
 248 30 l 1
 225 217 l 1
 120 220 l 1
 94 58 l 1
 15 61 l 1
 142 796 l 1
 252 793 l 1
133 312 m 1
 219 308 l 1
 193 641 l 1
 133 312 l 1
176 873 m 0
 176 853 190 838 207 838 c 0
 224 838 236 853 236 873 c 0
 236 892 224 908 207 908 c 0
 190 908 176 892 176 873 c 0
207 807 m 0
 171 807 146 835 146 871 c 0
 146 912 171 942 207 942 c 0
 242 942 269 910 269 871 c 0
 269 835 242 807 207 807 c 0
EndSplineSet
Validated: 1
EndChar

StartChar: ae
Encoding: 230 230 160
Width: 476
GlyphClass: 1
Flags: MW
HStem: 58 98<333 472 333 474 246 472> 312 95<333 438 333 333> 704 94<330 457 330 330>
VStem: 239 91<407 703 703 703>
LayerCount: 2
Fore
SplineSet
472 156 m 1
 474 58 l 1
 246 58 l 1
 240 307 l 1
 143 307 l 1
 94 58 l 1
 15 61 l 1
 142 798 l 1
 457 798 l 1
 457 704 l 1
 330 704 l 1
 330 407 l 1
 438 407 l 1
 438 312 l 1
 333 312 l 1
 333 156 l 1
 472 156 l 1
158 400 m 1
 239 400 l 1
 239 703 l 1
 208 702 l 1
 158 400 l 1
EndSplineSet
Validated: 1
EndChar

StartChar: ccedilla
Encoding: 231 231 161
Width: 324
GlyphClass: 1
Flags: MW
HStem: -168 21G<159 183 159 159> -8 20<132 221> 12 88<161.5 195.5 161.5 220.5> 696 88<145 180>
VStem: 33 82 145 166 214 81<577.5 626> 232 79<178 243.5>
LayerCount: 2
Fore
SplineSet
311 249 m 0xb9
 311 91 266 12 175 12 c 0
 89 12 41 78 38 211 c 2
 29 608 l 2
 29 717 77 784 168 784 c 0
 238 784 295 740 295 597 c 0
 295 558 295 537 293 516 c 1
 211 514 l 1
 212 531 214 558 214 591 c 0xda
 214 661 197 696 163 696 c 0
 127 696 109 669 109 614 c 2
 122 186 l 2
 124 122 146 100 177 100 c 0
 214 100 232 139 232 217 c 0
 232 270 231 289 229 305 c 1
 309 307 l 1
 310 294 311 282 311 249 c 0xb9
221 -8 m 1
 222 -76 l 1
 183 -168 l 1
 159 -168 l 1
 173 -81 l 1
 145 -81 l 1
 145 -9 l 1xdc
 221 -8 l 1
EndSplineSet
Validated: 1
EndChar

StartChar: egrave
Encoding: 232 232 162
Width: 276
GlyphClass: 1
Flags: MW
HStem: 57 99<134 275 134 275 49 275> 396 95<134 240 134 134> 704 94<132 258 132 132> 896 20G<73 152 152 152>
VStem: 49 85<156 396 156 798> 49 191<396 491 396 798>
LayerCount: 2
Fore
SplineSet
275 156 m 1xf8
 275 57 l 1
 49 57 l 1
 49 798 l 1
 258 798 l 1
 258 704 l 1
 132 704 l 1
 132 491 l 1
 240 491 l 1
 240 396 l 1xf4
 134 396 l 1
 134 156 l 1
 275 156 l 1xf8
137 815 m 1
 73 916 l 1
 152 916 l 1
 194 815 l 1
 137 815 l 1
EndSplineSet
Validated: 1
EndChar

StartChar: eacute
Encoding: 233 233 163
Width: 276
GlyphClass: 1
Flags: MW
HStem: 57 99<134 275 134 275 49 275> 396 95<134 240 134 134> 704 94<132 258 132 132> 704 198<132 178 97 258 132 132>
VStem: 49 85<156 396 156 798> 49 191<396 491 396 798>
LayerCount: 2
Fore
SplineSet
275 156 m 1xe8
 275 57 l 1
 49 57 l 1
 49 798 l 1
 258 798 l 1
 258 704 l 1
 132 704 l 1
 132 491 l 1
 240 491 l 1
 240 396 l 1xe4
 134 396 l 1
 134 156 l 1
 275 156 l 1xe8
178 902 m 1xd8
 115 800 l 1
 54 800 l 1
 97 902 l 1
 178 902 l 1xd8
EndSplineSet
Validated: 1
EndChar

StartChar: ecircumflex
Encoding: 234 234 164
Width: 276
GlyphClass: 1
Flags: MW
HStem: 57 99<134 275 134 275 49 275> 396 95<134 240 134 134> 704 94<132 258 132 132> 933 20G<186 186>
VStem: 49 85<156 396 156 798> 49 191<396 491 396 798>
LayerCount: 2
Fore
SplineSet
275 156 m 1xf8
 275 57 l 1
 49 57 l 1
 49 798 l 1
 258 798 l 1
 258 704 l 1
 132 704 l 1
 132 491 l 1
 240 491 l 1
 240 396 l 1xf4
 134 396 l 1
 134 156 l 1
 275 156 l 1xf8
210 827 m 1
 156 913 l 1
 104 822 l 1
 28 819 l 1
 119 950 l 1
 186 953 l 1
 283 831 l 1
 210 827 l 1
EndSplineSet
Validated: 1
EndChar

StartChar: edieresis
Encoding: 235 235 165
Width: 276
GlyphClass: 1
Flags: MW
HStem: 57 99<134 275 134 275 49 275> 396 95<134 240 134 134> 704 94<132 258 132 132> 831 102 914 20G<265 265>
VStem: 49 71 49 85<156 396 156 798> 49 191<396 491 396 798> 190 77
LayerCount: 2
Fore
SplineSet
275 156 m 1xf280
 275 57 l 1
 49 57 l 1
 49 798 l 1
 258 798 l 1
 258 704 l 1
 132 704 l 1
 132 491 l 1
 240 491 l 1
 240 396 l 1xf1
 134 396 l 1
 134 156 l 1
 275 156 l 1xf280
265 934 m 1xec80
 269 832 l 1
 192 830 l 1
 189 932 l 1
 265 934 l 1xec80
118 927 m 1
 122 825 l 1
 45 823 l 1
 42 925 l 1
 118 927 l 1
EndSplineSet
Validated: 1
EndChar

StartChar: igrave
Encoding: 236 236 166
Width: 211
GlyphClass: 1
Flags: MW
HStem: 1 21G<45 139 45 45> 895 20G<-3 76 76 76>
VStem: 45 94<1 775>
LayerCount: 2
Fore
SplineSet
139 1 m 1
 45 1 l 1
 45 775 l 1
 139 775 l 1
 139 1 l 1
61 814 m 1
 -3 915 l 1
 76 915 l 1
 118 814 l 1
 61 814 l 1
EndSplineSet
Validated: 1
EndChar

StartChar: iacute
Encoding: 237 237 167
Width: 211
GlyphClass: 1
Flags: MW
HStem: 1 21G<45 139 45 45> 897 20G<93 174 174 174>
VStem: 45 94<1 775>
LayerCount: 2
Fore
SplineSet
139 1 m 1
 45 1 l 1
 45 775 l 1
 139 775 l 1
 139 1 l 1
174 917 m 1
 111 815 l 1
 50 815 l 1
 93 917 l 1
 174 917 l 1
EndSplineSet
Validated: 1
EndChar

StartChar: icircumflex
Encoding: 238 238 168
Width: 211
GlyphClass: 1
Flags: MW
HStem: 1 21G<45 139 45 45> 925 20G<117 117>
VStem: 45 94<1 775>
LayerCount: 2
Fore
SplineSet
139 1 m 1
 45 1 l 1
 45 775 l 1
 139 775 l 1
 139 1 l 1
141 819 m 1
 87 905 l 1
 35 814 l 1
 -41 811 l 1
 50 942 l 1
 117 945 l 1
 214 823 l 1
 141 819 l 1
EndSplineSet
Validated: 1
EndChar

StartChar: idieresis
Encoding: 239 239 169
Width: 211
GlyphClass: 1
Flags: MW
HStem: 1 21G<45 139 45 45> 810 102 893 20G<200 200>
VStem: -21 76 45 94<1 775> 125 77
LayerCount: 2
Fore
SplineSet
139 1 m 1xc8
 45 1 l 1
 45 775 l 1
 139 775 l 1
 139 1 l 1xc8
200 913 m 1xb4
 204 811 l 1
 127 809 l 1
 124 911 l 1
 200 913 l 1xb4
53 906 m 1
 57 804 l 1
 -20 802 l 1
 -23 904 l 1
 53 906 l 1
EndSplineSet
Validated: 1
EndChar

StartChar: eth
Encoding: 240 240 170
Width: 342
GlyphClass: 1
Flags: MW
HStem: -25 98<121.5 169 133 143> -24 21G<52 99 52 52> 312 55<-5 49 -5 49 -5 52 133 133 133 214> 622 95 698 20G<175 223>
VStem: 49 82<367 622 367 716> 240 81
LayerCount: 2
Fore
SplineSet
-5 312 m 1x76
 -5 367 l 1
 49 367 l 1
 49 716 l 1
 175 718 l 2
 271 718 320 652 321 519 c 0
 322 300 324 186 324 175 c 0
 324 18 278 -25 143 -25 c 2
 125 -25 l 2xae
 118 -25 109 -25 99 -24 c 2
 52 -24 l 1
 52 312 l 1
 -5 312 l 1x76
242 161 m 2
 238 525 l 2
 237 601 213 622 136 622 c 2
 131 622 l 1xb6
 131 367 l 1
 214 367 l 1
 214 312 l 1
 133 312 l 1
 133 73 l 1
 169 73 l 2
 223 73 243 92 242 161 c 2
EndSplineSet
Validated: 33
EndChar

StartChar: ntilde
Encoding: 241 241 171
Width: 356
GlyphClass: 1
Flags: MW
HStem: -77 21G<50 130 50 50> 719 53<228 242 224 246.5> 756 52<140.5 152 135.5 158.5> 799 20G<275 275>
VStem: 50 80<-77 392 -77 675> 112 163<747 787 787 787> 259 81<181 655 -64 655>
LayerCount: 2
Fore
SplineSet
259 655 m 1xda
 340 655 l 1
 340 -64 l 1
 264 -64 l 1
 130 392 l 1
 130 -77 l 1
 50 -77 l 1
 50 675 l 1
 123 675 l 1
 259 181 l 1
 259 655 l 1xda
112 717 m 1xa4
 112 787 l 1
 119 801 129 808 142 808 c 0xa4
 162 808 214 772 234 772 c 0
 250 772 264 788 275 819 c 1
 275 747 l 1
 266 728 254 719 239 719 c 0xd4
 217 719 169 756 148 756 c 0
 133 756 121 743 112 717 c 1xa4
EndSplineSet
Validated: 1
EndChar

StartChar: ograve
Encoding: 242 242 172
Width: 333
GlyphClass: 1
Flags: MW
HStem: -10 84<167.5 186> 679 84<183 198.5> 878 20G<84 163 163 163>
VStem: 46 82 237 83
LayerCount: 2
Fore
SplineSet
321 585 m 2
 321 577 l 1
 319 189 l 2
 318 59 273 -7 186 -10 c 0
 93 -10 46 52 45 180 c 2
 48 581 l 2
 49 694 97 759 183 763 c 0
 266 763 319 700 321 585 c 2
237 165 m 1
 238 593 l 2
 238 643 214 679 183 679 c 0
 150 679 130 637 130 588 c 2
 127 161 l 2
 127 110 153 74 182 74 c 0
 217 74 232 114 237 165 c 1
148 797 m 1
 84 898 l 1
 163 898 l 1
 205 797 l 1
 148 797 l 1
EndSplineSet
Validated: 1
EndChar

StartChar: oacute
Encoding: 243 243 173
Width: 333
GlyphClass: 1
Flags: MW
HStem: -10 84<167.5 186> 679 84<183 198.5> 882 20G<173 254 254 254>
VStem: 46 82 237 83
LayerCount: 2
Fore
SplineSet
321 585 m 2
 321 577 l 1
 319 189 l 2
 318 59 273 -7 186 -10 c 0
 93 -10 46 52 45 180 c 2
 48 581 l 2
 49 694 97 759 183 763 c 0
 266 763 319 700 321 585 c 2
237 165 m 1
 238 593 l 2
 238 643 214 679 183 679 c 0
 150 679 130 637 130 588 c 2
 127 161 l 2
 127 110 153 74 182 74 c 0
 217 74 232 114 237 165 c 1
254 902 m 1
 191 800 l 1
 130 800 l 1
 173 902 l 1
 254 902 l 1
EndSplineSet
Validated: 1
EndChar

StartChar: ocircumflex
Encoding: 244 244 174
Width: 333
GlyphClass: 1
Flags: MW
HStem: -10 84<167.5 186> 679 84<183 198.5> 763 44 920 20G<208 208>
VStem: 46 82 237 83
LayerCount: 2
Fore
SplineSet
321 585 m 2xdc
 321 577 l 1
 319 189 l 2
 318 59 273 -7 186 -10 c 0
 93 -10 46 52 45 180 c 2
 48 581 l 2
 49 694 97 759 183 763 c 0
 266 763 319 700 321 585 c 2xdc
237 165 m 1
 238 593 l 2
 238 643 214 679 183 679 c 0
 150 679 130 637 130 588 c 2
 127 161 l 2
 127 110 153 74 182 74 c 0
 217 74 232 114 237 165 c 1
232 814 m 1
 178 900 l 1
 126 809 l 1
 50 806 l 1
 141 937 l 1
 208 940 l 1
 305 818 l 1
 232 814 l 1
EndSplineSet
Validated: 8388609
EndChar

StartChar: otilde
Encoding: 245 245 175
Width: 333
GlyphClass: 1
Flags: MW
HStem: -10 84<167.5 186> 679 84<183 198.5> 801 53<216 230 212 234.5> 838 52<128.5 140 123.5 146.5> 881 20G<263 263>
VStem: 46 82 100 163<829 869 869 869> 237 83
LayerCount: 2
Fore
SplineSet
321 585 m 2xed
 321 577 l 1
 319 189 l 2
 318 59 273 -7 186 -10 c 0
 93 -10 46 52 45 180 c 2
 48 581 l 2
 49 694 97 759 183 763 c 0
 266 763 319 700 321 585 c 2xed
237 165 m 1
 238 593 l 2
 238 643 214 679 183 679 c 0
 150 679 130 637 130 588 c 2
 127 161 l 2
 127 110 153 74 182 74 c 0
 217 74 232 114 237 165 c 1
100 799 m 1xd2
 100 869 l 1xea
 107 883 117 890 130 890 c 0xd5
 150 890 202 854 222 854 c 0
 238 854 252 870 263 901 c 1
 263 829 l 1xea
 254 810 242 801 227 801 c 0xed
 205 801 157 838 136 838 c 0
 121 838 109 825 100 799 c 1xd2
EndSplineSet
Validated: 1
EndChar

StartChar: odieresis
Encoding: 246 246 176
Width: 333
GlyphClass: 1
Flags: MW
HStem: -10 84<167.5 186> 679 84<183 198.5> 788 102 871 20G<303 303>
VStem: 46 82 237 68
LayerCount: 2
Fore
SplineSet
321 585 m 2xec
 321 577 l 1
 319 189 l 2
 318 59 273 -7 186 -10 c 0
 93 -10 46 52 45 180 c 2
 48 581 l 2
 49 694 97 759 183 763 c 0
 266 763 319 700 321 585 c 2xec
237 165 m 1
 238 593 l 2
 238 643 214 679 183 679 c 0
 150 679 130 637 130 588 c 2
 127 161 l 2
 127 110 153 74 182 74 c 0
 217 74 232 114 237 165 c 1
303 891 m 1xdc
 307 789 l 1
 230 787 l 1
 227 889 l 1
 303 891 l 1xdc
156 884 m 1
 160 782 l 1
 83 780 l 1
 80 882 l 1
 156 884 l 1
EndSplineSet
Validated: 1
EndChar

StartChar: divide
Encoding: 247 247 177
Width: 246
GlyphClass: 1
Flags: MW
HStem: 83 21G<89 89> 84 103 268 71<15 246 15 246> 422 103
VStem: 93 77<423 525 423 525 423 525>
LayerCount: 2
Fore
SplineSet
246 339 m 1x78
 246 268 l 1
 15 268 l 1
 15 339 l 1
 246 339 l 1x78
170 525 m 1
 170 423 l 1
 93 421 l 1
 93 525 l 1
 170 525 l 1
166 187 m 1
 166 85 l 1
 89 83 l 1xb8
 89 187 l 1
 166 187 l 1
EndSplineSet
Validated: 1
EndChar

StartChar: oslash
Encoding: 248 248 178
Width: 333
GlyphClass: 1
Flags: MW
HStem: -20 21G<72 72> 25 83<171.5 199 171.5 228.5> 713 84<183.5 213> 806 20G<304 304>
VStem: 54 83 243 85
LayerCount: 2
Fore
SplineSet
304 826 m 1
 359 799 l 1
 320 706 l 1
 328 677 334 649 333 616 c 2
 324 220 l 2
 320 90 273 25 184 25 c 0
 149 25 121 34 100 51 c 1
 72 -20 l 1
 19 6 l 1
 63 107 l 1
 53 132 48 162 48 198 c 0
 48 204 49 210 49 217 c 2
 60 618 l 2
 63 731 114 797 200 797 c 0
 234 797 262 786 283 765 c 1
 304 826 l 1
133 318 m 1
 252 666 l 1
 249 702 228 713 198 713 c 0
 169 713 144 679 142 622 c 2
 133 318 l 1
248 488 m 1
 136 155 l 1
 140 122 160 108 183 108 c 0
 215 108 239 145 239 198 c 2
 248 488 l 1
EndSplineSet
Validated: 33
EndChar

StartChar: ugrave
Encoding: 249 249 179
Width: 339
GlyphClass: 1
Flags: MW
HStem: 23 96<169 203.5 169 232.5> 893 20G<103 182 182 182>
VStem: 50 82 242 82
LayerCount: 2
Fore
SplineSet
244 780 m 1
 326 778 l 1
 322 221 l 2
 321 91 276 23 189 23 c 0
 96 23 49 84 49 212 c 2
 51 779 l 1
 134 779 l 1
 131 198 l 2
 131 157 153 119 185 119 c 0
 222 119 240 146 240 201 c 2
 244 780 l 1
167 812 m 1
 103 913 l 1
 182 913 l 1
 224 812 l 1
 167 812 l 1
EndSplineSet
Validated: 1
EndChar

StartChar: uacute
Encoding: 250 250 180
Width: 339
GlyphClass: 1
Flags: MW
HStem: 23 96<169 203.5 169 232.5> 892 20G<178 259 259 259>
VStem: 50 82 242 82
LayerCount: 2
Fore
SplineSet
244 780 m 1
 326 778 l 1
 322 221 l 2
 321 91 276 23 189 23 c 0
 96 23 49 84 49 212 c 2
 51 779 l 1
 134 779 l 1
 131 198 l 2
 131 157 153 119 185 119 c 0
 222 119 240 146 240 201 c 2
 244 780 l 1
259 912 m 1
 196 810 l 1
 135 810 l 1
 178 912 l 1
 259 912 l 1
EndSplineSet
Validated: 1
EndChar

StartChar: ucircumflex
Encoding: 251 251 181
Width: 339
GlyphClass: 1
Flags: MW
HStem: 23 96<169 203.5 169 232.5> 779 37 929 20G<213 213>
VStem: 50 82 242 82
LayerCount: 2
Fore
SplineSet
244 780 m 1
 326 778 l 1
 322 221 l 2
 321 91 276 23 189 23 c 0
 96 23 49 84 49 212 c 2
 51 779 l 1
 134 779 l 1
 131 198 l 2
 131 157 153 119 185 119 c 0
 222 119 240 146 240 201 c 2
 244 780 l 1
237 823 m 1
 183 909 l 1
 131 818 l 1
 55 815 l 1
 146 946 l 1
 213 949 l 1
 310 827 l 1
 237 823 l 1
EndSplineSet
Validated: 1
EndChar

StartChar: udieresis
Encoding: 252 252 182
Width: 339
GlyphClass: 1
Flags: MW
HStem: 23 96<169 203.5 169 232.5> 801 102 884 20G<305 305>
VStem: 50 82 230 77
LayerCount: 2
Fore
SplineSet
244 780 m 1xd8
 326 778 l 1
 322 221 l 2
 321 91 276 23 189 23 c 0
 96 23 49 84 49 212 c 2
 51 779 l 1
 134 779 l 1
 131 198 l 2
 131 157 153 119 185 119 c 0
 222 119 240 146 240 201 c 2
 244 780 l 1xd8
305 904 m 1xb8
 309 802 l 1
 232 800 l 1
 229 902 l 1
 305 904 l 1xb8
158 897 m 1
 162 795 l 1
 85 793 l 1
 82 895 l 1
 158 897 l 1
EndSplineSet
Validated: 1
EndChar

StartChar: yacute
Encoding: 253 253 183
Width: 295
GlyphClass: 1
Flags: MW
HStem: 49 21G<107 107> 882 20G<129 210 210 210>
VStem: 103 81
LayerCount: 2
Fore
SplineSet
194 790 m 1
 276 793 l 1
 180 357 l 1
 188 52 l 1
 107 49 l 1
 100 342 l 1
 -10 775 l 1
 70 780 l 1
 140 487 l 1
 194 790 l 1
210 902 m 1
 147 800 l 1
 86 800 l 1
 129 902 l 1
 210 902 l 1
EndSplineSet
Validated: 1
EndChar

StartChar: thorn
Encoding: 254 254 184
Width: 324
GlyphClass: 1
Flags: MW
HStem: 15 21G<54 54> 748 20G<106 106>
VStem: 40 68 40 81 228 83<355 400>
LayerCount: 2
Fore
SplineSet
311 417 m 0xc8
 311 293 281 223 220 208 c 0
 211 206 181 204 129 201 c 1
 133 29 l 1
 54 15 l 1
 27 765 l 1
 106 768 l 1
 111 635 l 1
 170 635 l 2
 264 635 311 562 311 417 c 0xc8
228 400 m 0
 225 526 212 541 138 541 c 2
 127 541 l 2
 124 541 121 541 117 540 c 1
 125 294 l 2
 128 294 131 293 134 293 c 0
 193 293 228 305 228 400 c 0
EndSplineSet
Validated: 8388609
EndChar

StartChar: ydieresis
Encoding: 255 255 185
Width: 295
GlyphClass: 1
Flags: MW
HStem: 49 21G<107 107> 813 102 896 20G<253 253>
VStem: 31 77 178 77
LayerCount: 2
Fore
SplineSet
194 790 m 1xd8
 276 793 l 1
 180 357 l 1
 188 52 l 1
 107 49 l 1
 100 342 l 1
 -10 775 l 1
 70 780 l 1
 140 487 l 1
 194 790 l 1xd8
253 916 m 1xb8
 257 814 l 1
 180 812 l 1
 177 914 l 1
 253 916 l 1xb8
106 909 m 1
 110 807 l 1
 33 805 l 1
 30 907 l 1
 106 909 l 1
EndSplineSet
Validated: 1
EndChar

StartChar: Amacron
Encoding: 256 256 186
Width: 328
GlyphClass: 1
Flags: MW
HStem: 33 21G<246 330 246 246> 221 91 846 44<101 277 101 277>
LayerCount: 2
Fore
SplineSet
242 796 m 1
 330 33 l 1
 246 33 l 1
 223 219 l 1
 117 223 l 1
 93 61 l 1
 14 61 l 1
 131 796 l 1
 242 796 l 1
130 313 m 1
 215 311 l 1
 184 644 l 1
 130 313 l 1
101 846 m 1
 101 890 l 1
 277 890 l 1
 277 846 l 1
 101 846 l 1
EndSplineSet
Validated: 1
EndChar

StartChar: amacron
Encoding: 257 257 187
Width: 328
GlyphClass: 1
Flags: MW
HStem: 33 21G<246 330 246 246> 221 91 846 44<101 277 101 277>
LayerCount: 2
Fore
SplineSet
242 796 m 1
 330 33 l 1
 246 33 l 1
 223 219 l 1
 117 223 l 1
 93 61 l 1
 14 61 l 1
 131 796 l 1
 242 796 l 1
130 313 m 1
 215 311 l 1
 184 644 l 1
 130 313 l 1
101 846 m 1
 101 890 l 1
 277 890 l 1
 277 846 l 1
 101 846 l 1
EndSplineSet
Validated: 1
EndChar

StartChar: Abreve
Encoding: 258 258 188
Width: 328
GlyphClass: 1
Flags: MW
HStem: -3 21G<231 315 231 231> 185 91 798 46<160.5 189.5 160.5 201> 798 102<71 201>
LayerCount: 2
Fore
SplineSet
227 760 m 1xd0
 315 -3 l 1
 231 -3 l 1
 208 183 l 1
 102 187 l 1
 78 25 l 1
 -1 25 l 1
 116 760 l 1
 227 760 l 1xd0
115 277 m 1
 200 275 l 1
 169 608 l 1
 115 277 l 1
175 798 m 0
 122 798 78 833 71 900 c 1
 130 900 l 1xd0
 138 867 146 844 175 844 c 0xe0
 204 844 211 867 216 900 c 1
 280 900 l 1
 269 833 227 798 175 798 c 0
EndSplineSet
Validated: 1
EndChar

StartChar: abreve
Encoding: 259 259 189
Width: 328
GlyphClass: 1
Flags: MW
HStem: -3 21G<231 315 231 231> 185 91 798 46<160.5 189.5 160.5 201> 798 102<71 201>
LayerCount: 2
Fore
SplineSet
227 760 m 1xd0
 315 -3 l 1
 231 -3 l 1
 208 183 l 1
 102 187 l 1
 78 25 l 1
 -1 25 l 1
 116 760 l 1
 227 760 l 1xd0
115 277 m 1
 200 275 l 1
 169 608 l 1
 115 277 l 1
175 798 m 0
 122 798 78 833 71 900 c 1
 130 900 l 1xd0
 138 867 146 844 175 844 c 0xe0
 204 844 211 867 216 900 c 1
 280 900 l 1
 269 833 227 798 175 798 c 0
EndSplineSet
Validated: 1
EndChar

StartChar: Aogonek
Encoding: 260 260 190
Width: 328
GlyphClass: 1
Flags: MW
HStem: -139 48<300.5 312.5> 221 91 776 20G<131 242 242 242>
VStem: 226 43<-61.5 -49>
LayerCount: 2
Fore
SplineSet
242 796 m 1
 330 33 l 1
 289 1 269 -25 269 -46 c 0
 269 -77 290 -91 311 -91 c 0
 326 -91 341 -83 355 -66 c 1
 355 -122 l 1
 340 -133 322 -139 303 -139 c 0
 248 -139 226 -117 226 -61 c 0
 226 -37 234 -17 250 0 c 1
 223 219 l 1
 117 223 l 1
 93 61 l 1
 14 61 l 1
 131 796 l 1
 242 796 l 1
130 313 m 1
 215 311 l 1
 184 644 l 1
 130 313 l 1
EndSplineSet
Validated: 1
EndChar

StartChar: aogonek
Encoding: 261 261 191
Width: 328
GlyphClass: 1
Flags: MW
HStem: -139 48<300.5 312.5> 221 91 776 20G<131 242 242 242>
VStem: 226 43<-61.5 -49>
LayerCount: 2
Fore
SplineSet
242 796 m 1
 330 33 l 1
 289 1 269 -25 269 -46 c 0
 269 -77 290 -91 311 -91 c 0
 326 -91 341 -83 355 -66 c 1
 355 -122 l 1
 340 -133 322 -139 303 -139 c 0
 248 -139 226 -117 226 -61 c 0
 226 -37 234 -17 250 0 c 1
 223 219 l 1
 117 223 l 1
 93 61 l 1
 14 61 l 1
 131 796 l 1
 242 796 l 1
130 313 m 1
 215 311 l 1
 184 644 l 1
 130 313 l 1
EndSplineSet
Validated: 1
EndChar

StartChar: Cacute
Encoding: 262 262 192
Width: 324
GlyphClass: 1
Flags: MW
HStem: -8 88<161.5 195.5 161.5 220.5> 676 88<145 180> 882 20G<163 244 244 244>
VStem: 33 82 214 81<557.5 606> 232 79<158 223.5>
LayerCount: 2
Fore
SplineSet
311 229 m 0xf4
 311 71 266 -8 175 -8 c 0
 89 -8 41 58 38 191 c 2
 29 588 l 2
 29 697 77 764 168 764 c 0
 238 764 295 720 295 577 c 0
 295 538 295 517 293 496 c 1
 211 494 l 1
 212 511 214 538 214 571 c 0xf8
 214 641 197 676 163 676 c 0
 127 676 109 649 109 594 c 2
 122 166 l 2
 124 102 146 80 177 80 c 0
 214 80 232 119 232 197 c 0
 232 250 231 269 229 285 c 1
 309 287 l 1
 310 274 311 262 311 229 c 0xf4
244 902 m 1
 181 800 l 1
 120 800 l 1
 163 902 l 1
 244 902 l 1
EndSplineSet
Validated: 1
EndChar

StartChar: cacute
Encoding: 263 263 193
Width: 324
GlyphClass: 1
Flags: MW
HStem: -8 88<161.5 195.5 161.5 220.5> 676 88<145 180> 882 20G<163 244 244 244>
VStem: 33 82 214 81<557.5 606> 232 79<158 223.5>
LayerCount: 2
Fore
SplineSet
311 229 m 0xf4
 311 71 266 -8 175 -8 c 0
 89 -8 41 58 38 191 c 2
 29 588 l 2
 29 697 77 764 168 764 c 0
 238 764 295 720 295 577 c 0
 295 538 295 517 293 496 c 1
 211 494 l 1
 212 511 214 538 214 571 c 0xf8
 214 641 197 676 163 676 c 0
 127 676 109 649 109 594 c 2
 122 166 l 2
 124 102 146 80 177 80 c 0
 214 80 232 119 232 197 c 0
 232 250 231 269 229 285 c 1
 309 287 l 1
 310 274 311 262 311 229 c 0xf4
244 902 m 1
 181 800 l 1
 120 800 l 1
 163 902 l 1
 244 902 l 1
EndSplineSet
Validated: 1
EndChar

StartChar: Cdotaccent
Encoding: 266 266 194
Width: 324
GlyphClass: 1
Flags: MW
HStem: -15 88<161.5 195.5 161.5 220.5> 669 88<145 180> 788 102 871 20G<198 198>
VStem: 33 82 123 77 214 81<550.5 599> 232 79<151 216.5>
LayerCount: 2
Fore
SplineSet
311 222 m 0xed
 311 64 266 -15 175 -15 c 0
 89 -15 41 51 38 184 c 2
 29 581 l 2
 29 690 77 757 168 757 c 0
 238 757 295 713 295 570 c 0
 295 531 295 510 293 489 c 1
 211 487 l 1
 212 504 214 531 214 564 c 0xee
 214 634 197 669 163 669 c 0
 127 669 109 642 109 587 c 2
 122 159 l 2
 124 95 146 73 177 73 c 0
 214 73 232 112 232 190 c 0
 232 243 231 262 229 278 c 1
 309 280 l 1
 310 267 311 255 311 222 c 0xed
198 891 m 1xde
 202 789 l 1
 125 787 l 1
 122 889 l 1
 198 891 l 1xde
EndSplineSet
Validated: 1
EndChar

StartChar: cdotaccent
Encoding: 267 267 195
Width: 324
GlyphClass: 1
Flags: MW
HStem: -15 88<161.5 195.5 161.5 220.5> 669 88<145 180> 788 102 871 20G<198 198>
VStem: 33 82 123 77 214 81<550.5 599> 232 79<151 216.5>
LayerCount: 2
Fore
SplineSet
311 222 m 0xed
 311 64 266 -15 175 -15 c 0
 89 -15 41 51 38 184 c 2
 29 581 l 2
 29 690 77 757 168 757 c 0
 238 757 295 713 295 570 c 0
 295 531 295 510 293 489 c 1
 211 487 l 1
 212 504 214 531 214 564 c 0xee
 214 634 197 669 163 669 c 0
 127 669 109 642 109 587 c 2
 122 159 l 2
 124 95 146 73 177 73 c 0
 214 73 232 112 232 190 c 0
 232 243 231 262 229 278 c 1
 309 280 l 1
 310 267 311 255 311 222 c 0xed
198 891 m 1xde
 202 789 l 1
 125 787 l 1
 122 889 l 1
 198 891 l 1xde
EndSplineSet
Validated: 1
EndChar

StartChar: Ccaron
Encoding: 268 268 196
Width: 324
GlyphClass: 1
Flags: MW
HStem: -7 88<161.5 195.5 161.5 220.5> 677 88<145 180> 878 20G<66 125 125 125 201 258 258 258>
VStem: 33 82 214 81<558.5 607> 232 79<159 224.5>
LayerCount: 2
Fore
SplineSet
311 230 m 0xf4
 311 72 266 -7 175 -7 c 0
 89 -7 41 59 38 192 c 2
 29 589 l 2
 29 698 77 765 168 765 c 0
 238 765 295 721 295 578 c 0
 295 539 295 518 293 497 c 1
 211 495 l 1
 212 512 214 539 214 572 c 0xf8
 214 642 197 677 163 677 c 0
 127 677 109 650 109 595 c 2
 122 167 l 2
 124 103 146 81 177 81 c 0
 214 81 232 120 232 198 c 0
 232 251 231 270 229 286 c 1
 309 288 l 1
 310 275 311 263 311 230 c 0xf4
125 898 m 1
 164 827 l 1
 201 898 l 1
 258 898 l 1
 197 797 l 1
 130 797 l 1
 66 898 l 1
 125 898 l 1
EndSplineSet
Validated: 1
EndChar

StartChar: ccaron
Encoding: 269 269 197
Width: 324
GlyphClass: 1
Flags: MW
HStem: -7 88<161.5 195.5 161.5 220.5> 677 88<145 180> 878 20G<66 125 125 125 201 258 258 258>
VStem: 33 82 214 81<558.5 607> 232 79<159 224.5>
LayerCount: 2
Fore
SplineSet
311 230 m 0xf4
 311 72 266 -7 175 -7 c 0
 89 -7 41 59 38 192 c 2
 29 589 l 2
 29 698 77 765 168 765 c 0
 238 765 295 721 295 578 c 0
 295 539 295 518 293 497 c 1
 211 495 l 1
 212 512 214 539 214 572 c 0xf8
 214 642 197 677 163 677 c 0
 127 677 109 650 109 595 c 2
 122 167 l 2
 124 103 146 81 177 81 c 0
 214 81 232 120 232 198 c 0
 232 251 231 270 229 286 c 1
 309 288 l 1
 310 275 311 263 311 230 c 0xf4
125 898 m 1
 164 827 l 1
 201 898 l 1
 258 898 l 1
 197 797 l 1
 130 797 l 1
 66 898 l 1
 125 898 l 1
EndSplineSet
Validated: 1
EndChar

StartChar: Dcaron
Encoding: 270 270 198
Width: 342
GlyphClass: 1
Flags: MW
HStem: 21 98<121.5 169 133 143> 22 21G<49 99 49 49> 668 95 878 20G<75 134 134 134 210 267 267 267>
VStem: 49 84<119 668 119 762> 240 81
LayerCount: 2
Fore
SplineSet
324 221 m 0x7c
 324 64 278 21 143 21 c 2
 125 21 l 2xbc
 118 21 109 21 99 22 c 2
 49 22 l 1
 49 762 l 1
 175 764 l 2
 271 764 320 698 321 565 c 0
 322 346 324 232 324 221 c 0x7c
242 207 m 2
 238 571 l 2
 237 647 213 668 136 668 c 2
 133 668 l 1
 133 119 l 1
 169 119 l 2
 223 119 243 138 242 207 c 2
134 898 m 1
 173 827 l 1
 210 898 l 1
 267 898 l 1
 206 797 l 1
 139 797 l 1
 75 898 l 1
 134 898 l 1
EndSplineSet
Validated: 33
EndChar

StartChar: dcaron
Encoding: 271 271 199
Width: 342
GlyphClass: 1
Flags: MW
HStem: 21 98<121.5 169 133 143> 22 21G<49 99 49 49> 668 95 878 20G<75 134 134 134 210 267 267 267>
VStem: 49 84<119 668 119 762> 240 81
LayerCount: 2
Fore
SplineSet
324 221 m 0x7c
 324 64 278 21 143 21 c 2
 125 21 l 2xbc
 118 21 109 21 99 22 c 2
 49 22 l 1
 49 762 l 1
 175 764 l 2
 271 764 320 698 321 565 c 0
 322 346 324 232 324 221 c 0x7c
242 207 m 2
 238 571 l 2
 237 647 213 668 136 668 c 2
 133 668 l 1
 133 119 l 1
 169 119 l 2
 223 119 243 138 242 207 c 2
134 898 m 1
 173 827 l 1
 210 898 l 1
 267 898 l 1
 206 797 l 1
 139 797 l 1
 75 898 l 1
 134 898 l 1
EndSplineSet
Validated: 33
EndChar

StartChar: Dcroat
Encoding: 272 272 200
Width: 342
GlyphClass: 1
Flags: MW
HStem: -25 98<121.5 169 133 143> -24 21G<52 99 52 52> 312 55<-5 49 -5 49 -5 52 133 133 133 214> 622 95 698 20G<175 223>
VStem: 49 82<367 622 367 716> 240 81
LayerCount: 2
Fore
SplineSet
-5 312 m 1x76
 -5 367 l 1
 49 367 l 1
 49 716 l 1
 175 718 l 2
 271 718 320 652 321 519 c 0
 322 300 324 186 324 175 c 0
 324 18 278 -25 143 -25 c 2
 125 -25 l 2xae
 118 -25 109 -25 99 -24 c 2
 52 -24 l 1
 52 312 l 1
 -5 312 l 1x76
242 161 m 2
 238 525 l 2
 237 601 213 622 136 622 c 2
 131 622 l 1xb6
 131 367 l 1
 214 367 l 1
 214 312 l 1
 133 312 l 1
 133 73 l 1
 169 73 l 2
 223 73 243 92 242 161 c 2
EndSplineSet
Validated: 33
EndChar

StartChar: dcroat
Encoding: 273 273 201
Width: 342
GlyphClass: 1
Flags: MW
HStem: -25 98<121.5 169 133 143> -24 21G<52 99 52 52> 312 55<-5 49 -5 49 -5 52 133 133 133 214> 622 95 698 20G<175 223>
VStem: 49 82<367 622 367 716> 240 81
LayerCount: 2
Fore
SplineSet
-5 312 m 1x76
 -5 367 l 1
 49 367 l 1
 49 716 l 1
 175 718 l 2
 271 718 320 652 321 519 c 0
 322 300 324 186 324 175 c 0
 324 18 278 -25 143 -25 c 2
 125 -25 l 2xae
 118 -25 109 -25 99 -24 c 2
 52 -24 l 1
 52 312 l 1
 -5 312 l 1x76
242 161 m 2
 238 525 l 2
 237 601 213 622 136 622 c 2
 131 622 l 1xb6
 131 367 l 1
 214 367 l 1
 214 312 l 1
 133 312 l 1
 133 73 l 1
 169 73 l 2
 223 73 243 92 242 161 c 2
EndSplineSet
Validated: 33
EndChar

StartChar: Emacron
Encoding: 274 274 202
Width: 276
GlyphClass: 1
Flags: MW
HStem: 39 21G<54 54> 42 99 382 94 690 92 846 44<50 226 50 226>
VStem: 40 75
LayerCount: 2
Fore
SplineSet
270 144 m 1x7c
 273 46 l 1
 54 39 l 1xbc
 27 778 l 1
 237 787 l 1
 239 692 l 1
 112 688 l 1
 119 475 l 1
 227 478 l 1
 230 384 l 1
 123 381 l 1
 131 139 l 1
 270 144 l 1x7c
50 846 m 1
 50 890 l 1
 226 890 l 1
 226 846 l 1
 50 846 l 1
EndSplineSet
Validated: 1
EndChar

StartChar: emacron
Encoding: 275 275 203
Width: 276
GlyphClass: 1
Flags: MW
HStem: 39 21G<54 54> 42 99 382 94 690 92 846 44<50 226 50 226>
VStem: 40 75
LayerCount: 2
Fore
SplineSet
270 144 m 1x7c
 273 46 l 1
 54 39 l 1xbc
 27 778 l 1
 237 787 l 1
 239 692 l 1
 112 688 l 1
 119 475 l 1
 227 478 l 1
 230 384 l 1
 123 381 l 1
 131 139 l 1
 270 144 l 1x7c
50 846 m 1
 50 890 l 1
 226 890 l 1
 226 846 l 1
 50 846 l 1
EndSplineSet
Validated: 1
EndChar

StartChar: Ebreve
Encoding: 276 276 204
Width: 276
GlyphClass: 1
Flags: MW
HStem: 25 21G<53 53> 28 99 368 94 676 92 798 46<122.5 151.5 122.5 163> 798 102<33 163>
VStem: 39 75
LayerCount: 2
Fore
SplineSet
269 130 m 1x7a
 272 32 l 1
 53 25 l 1xb6
 26 764 l 1
 236 773 l 1
 238 678 l 1
 111 674 l 1
 118 461 l 1
 226 464 l 1
 229 370 l 1
 122 367 l 1
 130 125 l 1
 269 130 l 1x7a
137 798 m 0
 84 798 40 833 33 900 c 1
 92 900 l 1x76
 100 867 108 844 137 844 c 0x7a
 166 844 173 867 178 900 c 1
 242 900 l 1
 231 833 189 798 137 798 c 0
EndSplineSet
Validated: 1
EndChar

StartChar: ebreve
Encoding: 277 277 205
Width: 276
GlyphClass: 1
Flags: MW
HStem: 25 21G<53 53> 28 99 368 94 676 92 798 46<122.5 151.5 122.5 163> 798 102<33 163>
VStem: 39 75
LayerCount: 2
Fore
SplineSet
269 130 m 1x7a
 272 32 l 1
 53 25 l 1xb6
 26 764 l 1
 236 773 l 1
 238 678 l 1
 111 674 l 1
 118 461 l 1
 226 464 l 1
 229 370 l 1
 122 367 l 1
 130 125 l 1
 269 130 l 1x7a
137 798 m 0
 84 798 40 833 33 900 c 1
 92 900 l 1x76
 100 867 108 844 137 844 c 0x7a
 166 844 173 867 178 900 c 1
 242 900 l 1
 231 833 189 798 137 798 c 0
EndSplineSet
Validated: 1
EndChar

StartChar: Edotaccent
Encoding: 278 278 206
Width: 276
GlyphClass: 1
Flags: MW
HStem: 9 21G<54 54> 12 99 352 94 660 92 788 102 871 20G<174 174>
VStem: 40 75
LayerCount: 2
Fore
SplineSet
270 114 m 1x7a
 273 16 l 1
 54 9 l 1xba
 27 748 l 1
 237 757 l 1
 239 662 l 1
 112 658 l 1
 119 445 l 1
 227 448 l 1
 230 354 l 1
 123 351 l 1
 131 109 l 1
 270 114 l 1x7a
174 891 m 1x76
 178 789 l 1
 101 787 l 1
 98 889 l 1
 174 891 l 1x76
EndSplineSet
Validated: 1
EndChar

StartChar: edotaccent
Encoding: 279 279 207
Width: 276
GlyphClass: 1
Flags: MW
HStem: 9 21G<54 54> 12 99 352 94 660 92 788 102 871 20G<174 174>
VStem: 40 75
LayerCount: 2
Fore
SplineSet
270 114 m 1x7a
 273 16 l 1
 54 9 l 1xba
 27 748 l 1
 237 757 l 1
 239 662 l 1
 112 658 l 1
 119 445 l 1
 227 448 l 1
 230 354 l 1
 123 351 l 1
 131 109 l 1
 270 114 l 1x7a
174 891 m 1x76
 178 789 l 1
 101 787 l 1
 98 889 l 1
 174 891 l 1x76
EndSplineSet
Validated: 1
EndChar

StartChar: Eogonek
Encoding: 280 280 208
Width: 276
GlyphClass: 1
Flags: MW
HStem: -139 48<243.5 255.5> 29 99 369 94 677 92 754 20G<237 237>
VStem: 40 75 169 43<-61.5 -39>
LayerCount: 2
Fore
SplineSet
270 131 m 1xf6
 273 33 l 1
 232 1 212 -25 212 -46 c 0
 212 -77 233 -91 254 -91 c 0
 269 -91 284 -83 298 -66 c 1
 298 -122 l 1
 283 -133 265 -139 246 -139 c 0
 191 -139 169 -117 169 -61 c 0
 169 -17 196 12 244 32 c 1
 54 26 l 1
 27 765 l 1
 237 774 l 1xee
 239 679 l 1
 112 675 l 1
 119 462 l 1
 227 465 l 1
 230 371 l 1
 123 368 l 1
 131 126 l 1
 270 131 l 1xf6
EndSplineSet
Validated: 1
EndChar

StartChar: eogonek
Encoding: 281 281 209
Width: 276
GlyphClass: 1
Flags: MW
HStem: -139 48<243.5 255.5> 29 99 369 94 677 92 754 20G<237 237>
VStem: 40 75 169 43<-61.5 -39>
LayerCount: 2
Fore
SplineSet
270 131 m 1xf6
 273 33 l 1
 232 1 212 -25 212 -46 c 0
 212 -77 233 -91 254 -91 c 0
 269 -91 284 -83 298 -66 c 1
 298 -122 l 1
 283 -133 265 -139 246 -139 c 0
 191 -139 169 -117 169 -61 c 0
 169 -17 196 12 244 32 c 1
 54 26 l 1
 27 765 l 1
 237 774 l 1xee
 239 679 l 1
 112 675 l 1
 119 462 l 1
 227 465 l 1
 230 371 l 1
 123 368 l 1
 131 126 l 1
 270 131 l 1xf6
EndSplineSet
Validated: 1
EndChar

StartChar: Ecaron
Encoding: 282 282 210
Width: 276
GlyphClass: 1
Flags: MW
HStem: 26 21G<54 54> 29 99 369 94 677 92 878 20G<34 93 93 93 169 226 226 226>
VStem: 40 75
LayerCount: 2
Fore
SplineSet
270 131 m 1x7c
 273 33 l 1
 54 26 l 1xbc
 27 765 l 1
 237 774 l 1
 239 679 l 1
 112 675 l 1
 119 462 l 1
 227 465 l 1
 230 371 l 1
 123 368 l 1
 131 126 l 1
 270 131 l 1x7c
93 898 m 1
 132 827 l 1
 169 898 l 1
 226 898 l 1
 165 797 l 1
 98 797 l 1
 34 898 l 1
 93 898 l 1
EndSplineSet
Validated: 1
EndChar

StartChar: ecaron
Encoding: 283 283 211
Width: 276
GlyphClass: 1
Flags: MW
HStem: 26 21G<54 54> 29 99 369 94 677 92 878 20G<34 93 93 93 169 226 226 226>
VStem: 40 75
LayerCount: 2
Fore
SplineSet
270 131 m 1x7c
 273 33 l 1
 54 26 l 1xbc
 27 765 l 1
 237 774 l 1
 239 679 l 1
 112 675 l 1
 119 462 l 1
 227 465 l 1
 230 371 l 1
 123 368 l 1
 131 126 l 1
 270 131 l 1x7c
93 898 m 1
 132 827 l 1
 169 898 l 1
 226 898 l 1
 165 797 l 1
 98 797 l 1
 34 898 l 1
 93 898 l 1
EndSplineSet
Validated: 1
EndChar

StartChar: Gbreve
Encoding: 286 286 212
Width: 322
GlyphClass: 1
Flags: MW
HStem: -6 86<161.5 173.5> 675 89<161.5 196.5> 798 46<163.5 192.5 163.5 204> 798 102<74 204>
VStem: 43 82<194 582 582 589> 179 125 234 70
LayerCount: 2
Fore
SplineSet
312 374 m 1xec
 312 7 l 1
 249 7 l 1
 245 60 l 1
 224 16 193 -6 154 -6 c 0
 81 -6 43 76 43 194 c 2
 43 582 l 2
 43 692 94 764 183 764 c 0
 262 764 304 710 304 595 c 0
 304 549 303 523 300 495 c 1
 225 495 l 1
 227 512 230 541 230 587 c 0
 230 646 213 675 180 675 c 0
 143 675 125 646 125 589 c 2
 125 167 l 2
 125 109 143 80 180 80 c 0
 216 80 234 109 234 167 c 2
 234 293 l 1xda
 179 293 l 1
 179 374 l 1
 312 374 l 1xec
178 798 m 0
 125 798 81 833 74 900 c 1
 133 900 l 1xdc
 141 867 149 844 178 844 c 0xec
 207 844 214 867 219 900 c 1
 283 900 l 1
 272 833 230 798 178 798 c 0
EndSplineSet
Validated: 1
EndChar

StartChar: gbreve
Encoding: 287 287 213
Width: 322
GlyphClass: 1
Flags: MW
HStem: -6 86<161.5 173.5> 675 89<161.5 196.5> 798 46<163.5 192.5 163.5 204> 798 102<74 204>
VStem: 43 82<194 582 582 589> 179 125 234 70
LayerCount: 2
Fore
SplineSet
312 374 m 1xec
 312 7 l 1
 249 7 l 1
 245 60 l 1
 224 16 193 -6 154 -6 c 0
 81 -6 43 76 43 194 c 2
 43 582 l 2
 43 692 94 764 183 764 c 0
 262 764 304 710 304 595 c 0
 304 549 303 523 300 495 c 1
 225 495 l 1
 227 512 230 541 230 587 c 0
 230 646 213 675 180 675 c 0
 143 675 125 646 125 589 c 2
 125 167 l 2
 125 109 143 80 180 80 c 0
 216 80 234 109 234 167 c 2
 234 293 l 1xda
 179 293 l 1
 179 374 l 1
 312 374 l 1xec
178 798 m 0
 125 798 81 833 74 900 c 1
 133 900 l 1xdc
 141 867 149 844 178 844 c 0xec
 207 844 214 867 219 900 c 1
 283 900 l 1
 272 833 230 798 178 798 c 0
EndSplineSet
Validated: 1
EndChar

StartChar: Gdotaccent
Encoding: 288 288 214
Width: 322
GlyphClass: 1
Flags: MW
HStem: -16 86<149.5 161.5> -3 21G<237 300 237 237> 665 89<149.5 184.5> 788 102 871 20G<197 197>
VStem: 31 82<184 572 572 579> 122 77 167 125 222 70
LayerCount: 2
Fore
SplineSet
300 364 m 1xb680
 300 -3 l 1
 237 -3 l 1x7680
 233 50 l 1
 212 6 181 -16 142 -16 c 0
 69 -16 31 66 31 184 c 2
 31 572 l 2
 31 682 82 754 171 754 c 0
 250 754 292 700 292 585 c 0
 292 539 291 513 288 485 c 1
 213 485 l 1
 215 502 218 531 218 577 c 0
 218 636 201 665 168 665 c 0
 131 665 113 636 113 579 c 2
 113 157 l 2
 113 99 131 70 168 70 c 0
 204 70 222 99 222 157 c 2
 222 283 l 1xb680
 167 283 l 1
 167 364 l 1xb5
 300 364 l 1xb680
197 891 m 1xae80
 201 789 l 1
 124 787 l 1
 121 889 l 1
 197 891 l 1xae80
EndSplineSet
Validated: 1
EndChar

StartChar: gdotaccent
Encoding: 289 289 215
Width: 322
GlyphClass: 1
Flags: MW
HStem: -16 86<149.5 161.5> -3 21G<237 300 237 237> 665 89<149.5 184.5> 788 102 871 20G<197 197>
VStem: 31 82<184 572 572 579> 122 77 167 125 222 70
LayerCount: 2
Fore
SplineSet
300 364 m 1xb680
 300 -3 l 1
 237 -3 l 1x7680
 233 50 l 1
 212 6 181 -16 142 -16 c 0
 69 -16 31 66 31 184 c 2
 31 572 l 2
 31 682 82 754 171 754 c 0
 250 754 292 700 292 585 c 0
 292 539 291 513 288 485 c 1
 213 485 l 1
 215 502 218 531 218 577 c 0
 218 636 201 665 168 665 c 0
 131 665 113 636 113 579 c 2
 113 157 l 2
 113 99 131 70 168 70 c 0
 204 70 222 99 222 157 c 2
 222 283 l 1xb680
 167 283 l 1
 167 364 l 1xb5
 300 364 l 1xb680
197 891 m 1xae80
 201 789 l 1
 124 787 l 1
 121 889 l 1
 197 891 l 1xae80
EndSplineSet
Validated: 1
EndChar

StartChar: Gcommaaccent
Encoding: 290 290 216
Width: 322
GlyphClass: 1
Flags: MW
HStem: -168 21G<136 160 136 136> -8 31 23 86<148.5 160.5> 403 121<212 287 212 299 212 299> 704 89<148.5 183.5>
VStem: 30 82<223 611 611 618> 221 70
LayerCount: 2
Fore
SplineSet
299 403 m 1xbe
 299 36 l 1
 236 36 l 1
 232 89 l 1
 211 45 180 23 141 23 c 0
 68 23 30 105 30 223 c 2
 30 611 l 2
 30 721 81 793 170 793 c 0
 249 793 291 739 291 624 c 0
 291 578 290 552 287 524 c 1
 212 524 l 1
 214 541 217 570 217 616 c 0
 217 675 200 704 167 704 c 0
 130 704 112 675 112 618 c 2
 112 196 l 2
 112 138 130 109 167 109 c 0
 203 109 221 138 221 196 c 2
 221 322 l 1
 166 322 l 1
 166 403 l 1
 299 403 l 1xbe
198 -8 m 1xde
 199 -76 l 1
 160 -168 l 1
 136 -168 l 1
 150 -81 l 1
 122 -81 l 1
 122 -9 l 1
 198 -8 l 1xde
EndSplineSet
Validated: 1
EndChar

StartChar: gcommaaccent
Encoding: 291 291 217
Width: 322
GlyphClass: 1
Flags: MW
HStem: -168 21G<136 160 136 136> -8 31 23 86<148.5 160.5> 403 121<212 287 212 299 212 299> 704 89<148.5 183.5>
VStem: 30 82<223 611 611 618> 221 70
LayerCount: 2
Fore
SplineSet
299 403 m 1xbe
 299 36 l 1
 236 36 l 1
 232 89 l 1
 211 45 180 23 141 23 c 0
 68 23 30 105 30 223 c 2
 30 611 l 2
 30 721 81 793 170 793 c 0
 249 793 291 739 291 624 c 0
 291 578 290 552 287 524 c 1
 212 524 l 1
 214 541 217 570 217 616 c 0
 217 675 200 704 167 704 c 0
 130 704 112 675 112 618 c 2
 112 196 l 2
 112 138 130 109 167 109 c 0
 203 109 221 138 221 196 c 2
 221 322 l 1
 166 322 l 1
 166 403 l 1
 299 403 l 1xbe
198 -8 m 1xde
 199 -76 l 1
 160 -168 l 1
 136 -168 l 1
 150 -81 l 1
 122 -81 l 1
 122 -9 l 1
 198 -8 l 1xde
EndSplineSet
Validated: 1
EndChar

StartChar: Hbar
Encoding: 294 294 218
Width: 338
GlyphClass: 1
Flags: MW
HStem: -30 21G<228 309 228 228> 311 93 517 44 517 198
VStem: 50 76 232 83
LayerCount: 2
Fore
SplineSet
14 522 m 1xec
 16 566 l 1
 58 565 l 1
 62 715 l 1
 142 715 l 1xdc
 137 563 l 1
 244 560 l 1
 247 690 l 1
 327 688 l 1
 323 558 l 1
 369 557 l 1
 369 513 l 1
 322 514 l 1
 309 -30 l 1
 228 -30 l 1
 237 310 l 1
 131 313 l 1
 122 -4 l 1
 43 -1 l 1
 57 521 l 1
 14 522 l 1xec
133 406 m 1
 240 403 l 1
 243 516 l 1
 136 519 l 1
 133 406 l 1
EndSplineSet
Validated: 1
EndChar

StartChar: hbar
Encoding: 295 295 219
Width: 338
GlyphClass: 1
Flags: MW
HStem: -30 21G<228 309 228 228> 311 93 517 44 517 198
VStem: 50 76 232 83
LayerCount: 2
Fore
SplineSet
14 522 m 1xec
 16 566 l 1
 58 565 l 1
 62 715 l 1
 142 715 l 1xdc
 137 563 l 1
 244 560 l 1
 247 690 l 1
 327 688 l 1
 323 558 l 1
 369 557 l 1
 369 513 l 1
 322 514 l 1
 309 -30 l 1
 228 -30 l 1
 237 310 l 1
 131 313 l 1
 122 -4 l 1
 43 -1 l 1
 57 521 l 1
 14 522 l 1xec
133 406 m 1
 240 403 l 1
 243 516 l 1
 136 519 l 1
 133 406 l 1
EndSplineSet
Validated: 1
EndChar

StartChar: uni012A
Encoding: 298 298 220
Width: 211
GlyphClass: 1
Flags: MW
HStem: 1 21G<52 146 52 52> 846 44<18 194 18 194>
VStem: 52 94<1 775>
LayerCount: 2
Fore
SplineSet
18 846 m 1
 18 890 l 1
 194 890 l 1
 194 846 l 1
 18 846 l 1
146 1 m 1
 52 1 l 1
 52 775 l 1
 146 775 l 1
 146 1 l 1
EndSplineSet
Validated: 1
EndChar

StartChar: imacron
Encoding: 299 299 221
Width: 211
GlyphClass: 1
Flags: MW
HStem: 1 21G<52 146 52 52> 846 44<18 194 18 194>
VStem: 52 94<1 775>
LayerCount: 2
Fore
SplineSet
18 846 m 1
 18 890 l 1
 194 890 l 1
 194 846 l 1
 18 846 l 1
146 1 m 1
 52 1 l 1
 52 775 l 1
 146 775 l 1
 146 1 l 1
EndSplineSet
Validated: 1
EndChar

StartChar: Ibreve
Encoding: 300 300 222
Width: 211
GlyphClass: 1
Flags: MW
HStem: -27 21G<112 112> 83 200<64 218 64 218> 112 43 240 43 369 43 497 43 626 50 740 55 795 46<84.5 113.5 84.5 125> 795 102<-5 125>
VStem: 65 82
LayerCount: 2
Fore
SplineSet
99 795 m 0xce60
 46 795 2 830 -5 897 c 1
 54 897 l 1xce60
 62 864 70 841 99 841 c 0xcea0
 128 841 135 864 140 897 c 1
 204 897 l 1
 193 830 151 795 99 795 c 0xce60
112 -27 m 1
 1 80 l 1
 68 80 l 1
 68 111 l 1
 150 113 l 1
 150 83 l 1
 218 83 l 1
 112 -27 l 1
149 156 m 1
 67 155 l 1xbf20
 64 239 l 1
 146 242 l 1
 149 156 l 1
146 284 m 1
 64 283 l 1xcf20
 62 368 l 1
 144 370 l 1
 146 284 l 1
143 413 m 1
 61 412 l 1
 59 496 l 1
 143 499 l 1
 143 413 l 1
140 541 m 1
 57 540 l 1
 57 625 l 1
 140 627 l 1
 140 541 l 1
138 676 m 1
 55 676 l 1
 55 739 l 1
 138 741 l 1
 138 676 l 1
EndSplineSet
Validated: 1
EndChar

StartChar: ibreve
Encoding: 301 301 223
Width: 211
GlyphClass: 1
Flags: MW
HStem: -27 21G<112 112> 83 200<64 218 64 218> 112 43 240 43 369 43 497 43 626 50 740 55 795 46<84.5 113.5 84.5 125> 795 102<-5 125>
VStem: 65 82
LayerCount: 2
Fore
SplineSet
99 795 m 0xce60
 46 795 2 830 -5 897 c 1
 54 897 l 1xce60
 62 864 70 841 99 841 c 0xcea0
 128 841 135 864 140 897 c 1
 204 897 l 1
 193 830 151 795 99 795 c 0xce60
112 -27 m 1
 1 80 l 1
 68 80 l 1
 68 111 l 1
 150 113 l 1
 150 83 l 1
 218 83 l 1
 112 -27 l 1
149 156 m 1
 67 155 l 1xbf20
 64 239 l 1
 146 242 l 1
 149 156 l 1
146 284 m 1
 64 283 l 1xcf20
 62 368 l 1
 144 370 l 1
 146 284 l 1
143 413 m 1
 61 412 l 1
 59 496 l 1
 143 499 l 1
 143 413 l 1
140 541 m 1
 57 540 l 1
 57 625 l 1
 140 627 l 1
 140 541 l 1
138 676 m 1
 55 676 l 1
 55 739 l 1
 138 741 l 1
 138 676 l 1
EndSplineSet
Validated: 1
EndChar

StartChar: Iogonek
Encoding: 302 302 224
Width: 211
GlyphClass: 1
Flags: MW
HStem: -157 48<114.5 126.5> 61 63<71 152 71 154> 175 85 303 85<75 156 75 156> 432 85 560 85<77 161 77 161> 645 44<161 161> 807 20G<121 121>
VStem: 40 43<-79.5 -57> 78 82
LayerCount: 2
Fore
SplineSet
121 827 m 1xfb40
 228 719 l 1
 162 719 l 1
 162 689 l 1
 80 689 l 1
 80 721 l 1
 12 721 l 1
 121 827 l 1xfb40
79 646 m 1
 161 645 l 1
 159 560 l 1
 77 560 l 1xfd40
 79 646 l 1
77 518 m 1
 158 516 l 1
 158 432 l 1
 77 432 l 1
 77 518 l 1
75 389 m 1
 156 388 l 1
 156 303 l 1
 75 303 l 1
 75 389 l 1
74 261 m 1
 155 259 l 1
 155 175 l 1
 74 175 l 1
 74 261 l 1
71 124 m 1
 154 124 l 1
 152 61 l 1
 71 61 l 1
 71 124 l 1
117 15 m 1
 144 15 l 1
 103 -17 83 -43 83 -64 c 0
 83 -95 104 -109 125 -109 c 0
 140 -109 155 -101 169 -84 c 1
 169 -140 l 1
 154 -151 136 -157 117 -157 c 0
 62 -157 40 -135 40 -79 c 0xfd80
 40 -35 68 -5 117 15 c 1
EndSplineSet
Validated: 1
EndChar

StartChar: iogonek
Encoding: 303 303 225
Width: 211
GlyphClass: 1
Flags: MW
HStem: -157 48<114.5 126.5> 61 63<71 152 71 154> 175 85 303 85<75 156 75 156> 432 85 560 85<77 161 77 161> 645 44<161 161> 807 20G<121 121>
VStem: 40 43<-79.5 -57> 78 82
LayerCount: 2
Fore
SplineSet
121 827 m 1xfb40
 228 719 l 1
 162 719 l 1
 162 689 l 1
 80 689 l 1
 80 721 l 1
 12 721 l 1
 121 827 l 1xfb40
79 646 m 1
 161 645 l 1
 159 560 l 1
 77 560 l 1xfd40
 79 646 l 1
77 518 m 1
 158 516 l 1
 158 432 l 1
 77 432 l 1
 77 518 l 1
75 389 m 1
 156 388 l 1
 156 303 l 1
 75 303 l 1
 75 389 l 1
74 261 m 1
 155 259 l 1
 155 175 l 1
 74 175 l 1
 74 261 l 1
71 124 m 1
 154 124 l 1
 152 61 l 1
 71 61 l 1
 71 124 l 1
117 15 m 1
 144 15 l 1
 103 -17 83 -43 83 -64 c 0
 83 -95 104 -109 125 -109 c 0
 140 -109 155 -101 169 -84 c 1
 169 -140 l 1
 154 -151 136 -157 117 -157 c 0
 62 -157 40 -135 40 -79 c 0xfd80
 40 -35 68 -5 117 15 c 1
EndSplineSet
Validated: 1
EndChar

StartChar: Idotaccent
Encoding: 304 304 226
Width: 211
GlyphClass: 1
Flags: MW
HStem: -29 21G<57 151 57 57> 788 102 871 20G<141 141>
VStem: 57 94<-29 745>
LayerCount: 2
Fore
SplineSet
141 891 m 1xb0
 145 789 l 1
 68 787 l 1
 65 889 l 1
 141 891 l 1xb0
151 -29 m 1
 57 -29 l 1
 57 745 l 1
 151 745 l 1
 151 -29 l 1
EndSplineSet
Validated: 8388609
EndChar

StartChar: dotlessi
Encoding: 305 305 227
Width: 211
GlyphClass: 1
Flags: MW
HStem: 1 21G<45 139 45 45> 755 20G<45 139 139 139>
VStem: 45 94<1 775>
LayerCount: 2
Fore
SplineSet
139 1 m 1
 45 1 l 1
 45 775 l 1
 139 775 l 1
 139 1 l 1
EndSplineSet
Validated: 1
EndChar

StartChar: IJ
Encoding: 306 306 228
Width: 557
GlyphClass: 1
Flags: MW
HStem: -2 88<372.5 410 372.5 437> 61 63<71 152 71 154> 124 51<74 154 154 154> 175 85 243 37 260 43 388 44<156 156> 517 43 645 44<161 161> 807 20G<121 121>
VStem: 78 82 250 82<242 242> 434 72 434 91
LayerCount: 2
Fore
SplineSet
121 827 m 1xabf8
 228 719 l 1
 162 719 l 1
 162 689 l 1
 80 689 l 1
 80 721 l 1
 12 721 l 1
 121 827 l 1xabf8
79 646 m 1
 161 645 l 1
 159 560 l 1
 77 560 l 1
 79 646 l 1
77 518 m 1
 158 516 l 1
 158 432 l 1
 77 432 l 1
 77 518 l 1
75 389 m 1
 156 388 l 1
 156 303 l 1
 75 303 l 1xa7f8
 75 389 l 1
74 261 m 1
 155 259 l 1
 155 175 l 1
 74 175 l 1x53f4
 74 261 l 1
71 124 m 1
 154 124 l 1
 152 61 l 1
 71 61 l 1
 71 124 l 1
525 205 m 1
 526 186 l 1
 526 61 484 -2 390 -2 c 0
 289 -2 257 58 250 242 c 1
 332 245 l 1
 332 199 l 2
 332 124 352 86 393 86 c 0
 427 86 444 110 444 159 c 2
 425 766 l 1
 506 759 l 1xabf8
 513 635 517 452 525 205 c 1
285 420 m 1xabf4
 397 315 l 1
 330 313 l 1
 331 282 l 1
 249 278 l 1
 248 311 l 1
 181 308 l 1
 285 420 l 1xabf4
EndSplineSet
Validated: 1
EndChar

StartChar: ij
Encoding: 307 307 229
Width: 551
GlyphClass: 1
Flags: MW
HStem: -61 88<391.5 429 391.5 452.5> 155 85 283 86 412 85 540 86 676 64 721 20G<125 125>
VStem: 52 82 268 82<102.5 183 102.5 220> 444 80<700 708> 463 81<100 116 116 117 117 117>
LayerCount: 2
Fore
SplineSet
99 -27 m 1xfdc0
 -12 80 l 1
 55 80 l 1
 55 111 l 1
 137 113 l 1
 137 83 l 1
 205 83 l 1
 99 -27 l 1xfdc0
136 156 m 1
 54 155 l 1
 51 239 l 1
 133 242 l 1
 136 156 l 1
133 284 m 1
 51 283 l 1
 49 368 l 1
 131 370 l 1
 133 284 l 1
130 413 m 1
 48 412 l 1
 46 496 l 1
 130 499 l 1
 130 413 l 1
127 541 m 1
 44 540 l 1
 44 625 l 1
 127 627 l 1
 127 541 l 1
125 676 m 1
 42 676 l 1xfda0
 42 739 l 1
 125 741 l 1xfbc0
 125 676 l 1
544 146 m 1
 544 116 l 2
 544 -2 498 -61 407 -61 c 0
 311 -61 275 -3 268 183 c 1
 351 186 l 1
 351 163 l 2
 350 158 350 153 350 149 c 2
 350 140 l 2
 350 65 371 27 412 27 c 0
 446 27 463 51 463 100 c 2
 463 117 l 1xfda0
 459 250 452 443 444 708 c 1
 524 700 l 1xfdc0
 531 576 536 394 544 146 c 1
304 361 m 1
 416 257 l 1
 349 255 l 1
 350 224 l 1
 268 220 l 1
 267 251 l 1
 199 249 l 1
 304 361 l 1
EndSplineSet
Validated: 1
EndChar

StartChar: Kcommaaccent
Encoding: 310 310 230
Width: 343
GlyphClass: 1
Flags: MW
HStem: -168 21G<170 194 170 170> 738 20G<108 108>
VStem: 41 73
LayerCount: 2
Fore
SplineSet
343 4 m 1
 259 1 l 1
 184 98 204 285 164 393 c 1
 125 284 l 1
 134 18 l 1
 54 15 l 1
 29 754 l 1
 108 758 l 1
 120 441 l 1
 225 740 l 1
 303 743 l 1
 212 490 l 1
 272 365 250 130 343 4 c 1
232 -8 m 1
 233 -76 l 1
 194 -168 l 1
 170 -168 l 1
 184 -81 l 1
 156 -81 l 1
 156 -9 l 1
 232 -8 l 1
EndSplineSet
Validated: 1
EndChar

StartChar: kcommaaccent
Encoding: 311 311 231
Width: 343
GlyphClass: 1
Flags: MW
HStem: -168 21G<170 194 170 170> 738 20G<108 108>
VStem: 41 73
LayerCount: 2
Fore
SplineSet
343 4 m 1
 259 1 l 1
 184 98 204 285 164 393 c 1
 125 284 l 1
 134 18 l 1
 54 15 l 1
 29 754 l 1
 108 758 l 1
 120 441 l 1
 225 740 l 1
 303 743 l 1
 212 490 l 1
 272 365 250 130 343 4 c 1
232 -8 m 1
 233 -76 l 1
 194 -168 l 1
 170 -168 l 1
 184 -81 l 1
 156 -81 l 1
 156 -9 l 1
 232 -8 l 1
EndSplineSet
Validated: 1
EndChar

StartChar: Lacute
Encoding: 313 313 232
Width: 278
GlyphClass: 1
Flags: MW
HStem: 20 92<114 260 114 260 38 260> 882 20G<100 181 181 181>
VStem: 38 76<112 112 112 760>
LayerCount: 2
Fore
SplineSet
114 112 m 1
 260 112 l 1
 260 20 l 1
 38 20 l 1
 38 760 l 1
 115 764 l 1
 114 112 l 1
181 902 m 1
 118 800 l 1
 57 800 l 1
 100 902 l 1
 181 902 l 1
EndSplineSet
Validated: 1
EndChar

StartChar: lacute
Encoding: 314 314 233
Width: 278
GlyphClass: 1
Flags: MW
HStem: 20 92<114 260 114 260 38 260> 882 20G<100 181 181 181>
VStem: 38 76<112 112 112 760>
LayerCount: 2
Fore
SplineSet
114 112 m 1
 260 112 l 1
 260 20 l 1
 38 20 l 1
 38 760 l 1
 115 764 l 1
 114 112 l 1
181 902 m 1
 118 800 l 1
 57 800 l 1
 100 902 l 1
 181 902 l 1
EndSplineSet
Validated: 1
EndChar

StartChar: Lcommaaccent
Encoding: 315 315 234
Width: 278
GlyphClass: 1
Flags: MW
HStem: -168 21G<130 154 130 130> -8 53<192 192> 45 92<134 280 134 280 58 280> 769 20G<135 135>
VStem: 58 76<137 137 137 785>
LayerCount: 2
Fore
SplineSet
134 137 m 1xd8
 280 137 l 1xb8
 280 45 l 1
 58 45 l 1
 58 785 l 1
 135 789 l 1
 134 137 l 1xd8
192 -8 m 1xd8
 193 -76 l 1
 154 -168 l 1
 130 -168 l 1
 144 -81 l 1
 116 -81 l 1
 116 -9 l 1
 192 -8 l 1xd8
EndSplineSet
Validated: 1
EndChar

StartChar: lcommaaccent
Encoding: 316 316 235
Width: 278
GlyphClass: 1
Flags: MW
HStem: -168 21G<130 154 130 130> -8 53<192 192> 45 92<134 280 134 280 58 280> 769 20G<135 135>
VStem: 58 76<137 137 137 785>
LayerCount: 2
Fore
SplineSet
134 137 m 1xd8
 280 137 l 1xb8
 280 45 l 1
 58 45 l 1
 58 785 l 1
 135 789 l 1
 134 137 l 1xd8
192 -8 m 1xd8
 193 -76 l 1
 154 -168 l 1
 130 -168 l 1
 144 -81 l 1
 116 -81 l 1
 116 -9 l 1
 192 -8 l 1xd8
EndSplineSet
Validated: 1
EndChar

StartChar: Lcaron
Encoding: 317 317 236
Width: 278
GlyphClass: 1
Flags: MW
HStem: 45 92<134 280 134 280 58 280> 783 20G<264 264>
VStem: 58 76<137 137 137 785>
LayerCount: 2
Fore
SplineSet
134 137 m 1
 280 137 l 1
 280 45 l 1
 58 45 l 1
 58 785 l 1
 135 789 l 1
 134 137 l 1
264 803 m 1
 265 735 l 1
 226 643 l 1
 202 643 l 1
 216 730 l 1
 188 730 l 1
 188 802 l 1
 264 803 l 1
EndSplineSet
Validated: 1
EndChar

StartChar: lcaron
Encoding: 318 318 237
Width: 278
GlyphClass: 1
Flags: MW
HStem: 45 92<134 280 134 280 58 280> 783 20G<264 264>
VStem: 58 76<137 137 137 785>
LayerCount: 2
Fore
SplineSet
134 137 m 1
 280 137 l 1
 280 45 l 1
 58 45 l 1
 58 785 l 1
 135 789 l 1
 134 137 l 1
264 803 m 1
 265 735 l 1
 226 643 l 1
 202 643 l 1
 216 730 l 1
 188 730 l 1
 188 802 l 1
 264 803 l 1
EndSplineSet
Validated: 1
EndChar

StartChar: Ldot
Encoding: 319 319 238
Width: 278
GlyphClass: 1
Flags: MW
HStem: 45 92<134 280 134 280 58 280> 374 102 769 20G<135 135>
VStem: 58 76<137 137 137 785> 179 77
LayerCount: 2
Fore
SplineSet
134 137 m 1
 280 137 l 1
 280 45 l 1
 58 45 l 1
 58 785 l 1
 135 789 l 1
 134 137 l 1
254 477 m 1
 258 375 l 1
 181 373 l 1
 178 475 l 1
 254 477 l 1
EndSplineSet
Validated: 1
EndChar

StartChar: ldot
Encoding: 320 320 239
Width: 278
GlyphClass: 1
Flags: MW
HStem: 45 92<134 280 134 280 58 280> 374 102 769 20G<135 135>
VStem: 58 76<137 137 137 785> 179 77
LayerCount: 2
Fore
SplineSet
134 137 m 1
 280 137 l 1
 280 45 l 1
 58 45 l 1
 58 785 l 1
 135 789 l 1
 134 137 l 1
254 477 m 1
 258 375 l 1
 181 373 l 1
 178 475 l 1
 254 477 l 1
EndSplineSet
Validated: 1
EndChar

StartChar: Lslash
Encoding: 321 321 240
Width: 278
GlyphClass: 1
Flags: MW
HStem: 45 92<134 280 134 280 58 280> 776 20G<136 136>
VStem: 58 78<455 785 785 785>
LayerCount: 2
Fore
SplineSet
232 536 m 1
 263 491 l 1
 134 381 l 1
 134 137 l 1
 280 137 l 1
 280 45 l 1
 58 45 l 1
 58 785 l 1
 136 796 l 1
 136 455 l 1
 232 536 l 1
EndSplineSet
Validated: 1
EndChar

StartChar: lslash
Encoding: 322 322 241
Width: 278
GlyphClass: 1
Flags: MW
HStem: 65 92<127 273 127 273 51 273> 796 20G<129 129>
VStem: 51 78<475 805 805 805>
LayerCount: 2
Fore
SplineSet
225 556 m 1
 256 511 l 1
 127 401 l 1
 127 157 l 1
 273 157 l 1
 273 65 l 1
 51 65 l 1
 51 805 l 1
 129 816 l 1
 129 475 l 1
 225 556 l 1
EndSplineSet
Validated: 1
EndChar

StartChar: Nacute
Encoding: 323 323 242
Width: 356
GlyphClass: 1
Flags: MW
HStem: -38 21G<127 127> 837 20G<207 288 288 288>
VStem: 64 69 275 72
LayerCount: 2
Fore
SplineSet
282 688 m 1
 357 685 l 1
 338 -33 l 1
 262 -31 l 1
 142 434 l 1
 139 433 l 1
 127 -38 l 1
 54 -36 l 1
 74 713 l 1
 146 713 l 1
 268 215 l 1
 282 688 l 1
288 857 m 1
 225 755 l 1
 164 755 l 1
 207 857 l 1
 288 857 l 1
EndSplineSet
Validated: 1
EndChar

StartChar: nacute
Encoding: 324 324 243
Width: 356
GlyphClass: 1
Flags: MW
HStem: -38 21G<127 127> 837 20G<207 288 288 288>
VStem: 64 69 275 72
LayerCount: 2
Fore
SplineSet
282 688 m 1
 357 685 l 1
 338 -33 l 1
 262 -31 l 1
 142 434 l 1
 139 433 l 1
 127 -38 l 1
 54 -36 l 1
 74 713 l 1
 146 713 l 1
 268 215 l 1
 282 688 l 1
288 857 m 1
 225 755 l 1
 164 755 l 1
 207 857 l 1
 288 857 l 1
EndSplineSet
Validated: 1
EndChar

StartChar: Ncommaaccent
Encoding: 325 325 244
Width: 356
GlyphClass: 1
Flags: MW
HStem: -155 21G<156 180 156 156> 751 20G<55 127 127 127>
VStem: 45 69 256 72
LayerCount: 2
Fore
SplineSet
263 746 m 1
 338 743 l 1
 319 25 l 1
 243 27 l 1
 123 492 l 1
 120 491 l 1
 108 20 l 1
 35 22 l 1
 55 771 l 1
 127 771 l 1
 249 273 l 1
 263 746 l 1
218 5 m 1
 219 -63 l 1
 180 -155 l 1
 156 -155 l 1
 170 -68 l 1
 142 -68 l 1
 142 4 l 1
 218 5 l 1
EndSplineSet
Validated: 1
EndChar

StartChar: ncommaaccent
Encoding: 326 326 245
Width: 356
GlyphClass: 1
Flags: MW
HStem: -155 21G<156 180 156 156> 751 20G<55 127 127 127>
VStem: 45 69 256 72
LayerCount: 2
Fore
SplineSet
263 746 m 1
 338 743 l 1
 319 25 l 1
 243 27 l 1
 123 492 l 1
 120 491 l 1
 108 20 l 1
 35 22 l 1
 55 771 l 1
 127 771 l 1
 249 273 l 1
 263 746 l 1
218 5 m 1
 219 -63 l 1
 180 -155 l 1
 156 -155 l 1
 170 -68 l 1
 142 -68 l 1
 142 4 l 1
 218 5 l 1
EndSplineSet
Validated: 1
EndChar

StartChar: Ncaron
Encoding: 327 327 246
Width: 356
GlyphClass: 1
Flags: MW
HStem: -38 21G<127 127> 840 20G<123 182 182 182 258 315 315 315>
VStem: 64 69 275 72
LayerCount: 2
Fore
SplineSet
282 688 m 1
 357 685 l 1
 338 -33 l 1
 262 -31 l 1
 142 434 l 1
 139 433 l 1
 127 -38 l 1
 54 -36 l 1
 74 713 l 1
 146 713 l 1
 268 215 l 1
 282 688 l 1
182 860 m 1
 221 789 l 1
 258 860 l 1
 315 860 l 1
 254 759 l 1
 187 759 l 1
 123 860 l 1
 182 860 l 1
EndSplineSet
Validated: 1
EndChar

StartChar: ncaron
Encoding: 328 328 247
Width: 356
GlyphClass: 1
Flags: MW
HStem: -38 21G<127 127> 840 20G<123 182 182 182 258 315 315 315>
VStem: 64 69 275 72
LayerCount: 2
Fore
SplineSet
282 688 m 1
 357 685 l 1
 338 -33 l 1
 262 -31 l 1
 142 434 l 1
 139 433 l 1
 127 -38 l 1
 54 -36 l 1
 74 713 l 1
 146 713 l 1
 268 215 l 1
 282 688 l 1
182 860 m 1
 221 789 l 1
 258 860 l 1
 315 860 l 1
 254 759 l 1
 187 759 l 1
 123 860 l 1
 182 860 l 1
EndSplineSet
Validated: 1
EndChar

StartChar: Eng
Encoding: 330 330 248
Width: 356
GlyphClass: 1
Flags: MW
HStem: -217 88<175 200 175 222> 693 20G<44 116 116 116>
VStem: 34 69 234 84 247 71
LayerCount: 2
Fore
SplineSet
327 685 m 1xe8
 310 -40 l 2
 306 -171 264 -217 180 -217 c 0
 145 -217 112 -204 91 -189 c 1
 140 -113 l 1
 149 -121 167 -129 183 -129 c 0
 217 -129 234 -108 234 -31 c 1xf0
 112 434 l 1
 109 433 l 1
 97 -38 l 1
 24 -36 l 1
 44 713 l 1
 116 713 l 1
 243 213 l 1
 252 688 l 1
 327 685 l 1xe8
EndSplineSet
Validated: 1
EndChar

StartChar: eng
Encoding: 331 331 249
Width: 356
GlyphClass: 1
Flags: MW
HStem: -217 88<175 200 175 222> 693 20G<44 116 116 116>
VStem: 34 69 234 84 247 71
LayerCount: 2
Fore
SplineSet
327 685 m 1xe8
 310 -40 l 2
 306 -171 264 -217 180 -217 c 0
 145 -217 112 -204 91 -189 c 1
 140 -113 l 1
 149 -121 167 -129 183 -129 c 0
 217 -129 234 -108 234 -31 c 1xf0
 112 434 l 1
 109 433 l 1
 97 -38 l 1
 24 -36 l 1
 44 713 l 1
 116 713 l 1
 243 213 l 1
 252 688 l 1
 327 685 l 1xe8
EndSplineSet
Validated: 1
EndChar

StartChar: Omacron
Encoding: 332 332 250
Width: 333
GlyphClass: 1
Flags: MW
HStem: -4 83<146.5 178 146.5 207> 684 84<162 192> 833 44<103 279 103 279>
VStem: 33 82 224 79 230 73
LayerCount: 2
Fore
SplineSet
312 578 m 1xf4
 303 191 l 2
 300 61 251 -4 163 -4 c 0
 69 -4 28 60 28 188 c 2
 39 589 l 2
 42 702 93 768 179 768 c 0
 262 768 312 698 312 600 c 2
 312 578 l 1xf4
218 169 m 2
 230 596 l 2
 230 645 207 684 177 684 c 0
 147 684 122 650 121 593 c 2
 110 160 l 2
 110 119 131 79 162 79 c 0
 194 79 218 116 218 169 c 2
103 833 m 1
 103 877 l 1
 279 877 l 1
 279 833 l 1
 103 833 l 1
EndSplineSet
Validated: 8388609
EndChar

StartChar: omacron
Encoding: 333 333 251
Width: 333
GlyphClass: 1
Flags: MW
HStem: -4 83<146.5 178 146.5 207> 684 84<162 192> 833 44<103 279 103 279>
VStem: 33 82 224 79 230 73
LayerCount: 2
Fore
SplineSet
312 578 m 1xf4
 303 191 l 2
 300 61 251 -4 163 -4 c 0
 69 -4 28 60 28 188 c 2
 39 589 l 2
 42 702 93 768 179 768 c 0
 262 768 312 698 312 600 c 2
 312 578 l 1xf4
218 169 m 2
 230 596 l 2
 230 645 207 684 177 684 c 0
 147 684 122 650 121 593 c 2
 110 160 l 2
 110 119 131 79 162 79 c 0
 194 79 218 116 218 169 c 2
103 833 m 1
 103 877 l 1
 279 877 l 1
 279 833 l 1
 103 833 l 1
EndSplineSet
Validated: 8388609
EndChar

StartChar: Obreve
Encoding: 334 334 252
Width: 333
GlyphClass: 1
Flags: MW
HStem: -20 83<145.5 177 145.5 206> 668 84<161 191> 786 46<170.5 199.5 170.5 211> 786 102<81 211>
VStem: 32 82 223 79 229 73
LayerCount: 2
Fore
SplineSet
311 562 m 1xda
 302 175 l 2
 299 45 250 -20 162 -20 c 0
 68 -20 27 44 27 172 c 2
 38 573 l 2
 41 686 92 752 178 752 c 0
 261 752 311 682 311 584 c 2
 311 562 l 1xda
217 153 m 2
 229 580 l 2
 229 629 206 668 176 668 c 0
 146 668 121 634 120 577 c 2
 109 144 l 2
 109 103 130 63 161 63 c 0
 193 63 217 100 217 153 c 2
185 786 m 0
 132 786 88 821 81 888 c 1
 140 888 l 1xdc
 148 855 156 832 185 832 c 0xec
 214 832 221 855 226 888 c 1
 290 888 l 1
 279 821 237 786 185 786 c 0
EndSplineSet
Validated: 1
EndChar

StartChar: obreve
Encoding: 335 335 253
Width: 333
GlyphClass: 1
Flags: MW
HStem: -20 83<145.5 177 145.5 206> 668 84<161 191> 786 46<170.5 199.5 170.5 211> 786 102<81 211>
VStem: 32 82 223 79 229 73
LayerCount: 2
Fore
SplineSet
311 562 m 1xda
 302 175 l 2
 299 45 250 -20 162 -20 c 0
 68 -20 27 44 27 172 c 2
 38 573 l 2
 41 686 92 752 178 752 c 0
 261 752 311 682 311 584 c 2
 311 562 l 1xda
217 153 m 2
 229 580 l 2
 229 629 206 668 176 668 c 0
 146 668 121 634 120 577 c 2
 109 144 l 2
 109 103 130 63 161 63 c 0
 193 63 217 100 217 153 c 2
185 786 m 0
 132 786 88 821 81 888 c 1
 140 888 l 1xdc
 148 855 156 832 185 832 c 0xec
 214 832 221 855 226 888 c 1
 290 888 l 1
 279 821 237 786 185 786 c 0
EndSplineSet
Validated: 1
EndChar

StartChar: Ohungarumlaut
Encoding: 336 336 254
Width: 333
GlyphClass: 1
Flags: MW
HStem: -1 83<145.5 177 145.5 206> 687 84<161 191> 800 102<134 152 91 215 201 215 244 262 201 201>
VStem: 32 82 223 79 229 73
LayerCount: 2
Fore
SplineSet
311 581 m 1xf4
 302 194 l 2
 299 64 250 -1 162 -1 c 0
 68 -1 27 63 27 191 c 2
 38 592 l 2
 41 705 92 771 178 771 c 0
 261 771 311 701 311 603 c 2
 311 581 l 1xf4
217 172 m 2
 229 599 l 2
 229 648 206 687 176 687 c 0
 146 687 121 653 120 596 c 2
 109 163 l 2
 109 122 130 82 161 82 c 0
 193 82 217 119 217 172 c 2
325 902 m 1
 262 800 l 1
 201 800 l 1
 244 902 l 1
 325 902 l 1
215 902 m 1
 152 800 l 1
 91 800 l 1
 134 902 l 1
 215 902 l 1
EndSplineSet
Validated: 8388609
EndChar

StartChar: ohungarumlaut
Encoding: 337 337 255
Width: 333
GlyphClass: 1
Flags: MW
HStem: -1 83<145.5 177 145.5 206> 687 84<161 191> 800 102<134 152 91 215 201 215 244 262 201 201>
VStem: 32 82 223 79 229 73
LayerCount: 2
Fore
SplineSet
311 581 m 1xf4
 302 194 l 2
 299 64 250 -1 162 -1 c 0
 68 -1 27 63 27 191 c 2
 38 592 l 2
 41 705 92 771 178 771 c 0
 261 771 311 701 311 603 c 2
 311 581 l 1xf4
217 172 m 2
 229 599 l 2
 229 648 206 687 176 687 c 0
 146 687 121 653 120 596 c 2
 109 163 l 2
 109 122 130 82 161 82 c 0
 193 82 217 119 217 172 c 2
325 902 m 1
 262 800 l 1
 201 800 l 1
 244 902 l 1
 325 902 l 1
215 902 m 1
 152 800 l 1
 91 800 l 1
 134 902 l 1
 215 902 l 1
EndSplineSet
Validated: 8388609
EndChar

StartChar: OE
Encoding: 338 338 256
Width: 465
GlyphClass: 1
Flags: MW
HStem: 18 83<166.5 195> 34 97 374 92<322 430 322 322> 682 92<251 447 251 320> 707 67<167 251> 707 83<167 199.5>
VStem: 46 82 237 85<193 193> 237 193<193 466>
LayerCount: 2
Fore
SplineSet
464 131 m 1x73
 465 35 l 1
 246 33 l 1
 228 23 207 18 183 18 c 0
 92 18 46 81 45 207 c 2
 48 608 l 2
 49 724 97 790 189 790 c 0xa7
 212 790 233 785 251 774 c 1
 447 775 l 1
 447 682 l 1
 320 682 l 1
 320 466 l 1
 430 466 l 1
 430 374 l 1xb280
 322 374 l 1
 322 131 l 1
 464 131 l 1x73
237 193 m 2x73
 238 620 l 2
 238 667 216 707 183 707 c 0
 151 707 130 666 130 615 c 2
 127 188 l 2
 127 137 151 101 182 101 c 0xab
 215 101 233 142 237 193 c 2x73
EndSplineSet
Validated: 1
EndChar

StartChar: oe
Encoding: 339 339 257
Width: 465
GlyphClass: 1
Flags: MW
HStem: 18 83<166.5 195> 34 97 374 92<322 430 322 322> 682 92<251 447 251 320> 707 67<167 251> 707 83<167 199.5>
VStem: 46 82 237 85<193 193> 237 193<193 466>
LayerCount: 2
Fore
SplineSet
464 131 m 1x73
 465 35 l 1
 246 33 l 1
 228 23 207 18 183 18 c 0
 92 18 46 81 45 207 c 2
 48 608 l 2
 49 724 97 790 189 790 c 0xa7
 212 790 233 785 251 774 c 1
 447 775 l 1
 447 682 l 1
 320 682 l 1
 320 466 l 1
 430 466 l 1
 430 374 l 1xb280
 322 374 l 1
 322 131 l 1
 464 131 l 1x73
237 193 m 2x73
 238 620 l 2
 238 667 216 707 183 707 c 0
 151 707 130 666 130 615 c 2
 127 188 l 2
 127 137 151 101 182 101 c 0xab
 215 101 233 142 237 193 c 2x73
EndSplineSet
Validated: 1
EndChar

StartChar: Racute
Encoding: 340 340 258
Width: 346
GlyphClass: 1
Flags: MW
HStem: -2 21G<268 268> 650 95<117 207 117 207> 882 20G<154 235 235 235>
VStem: 45 76 45 88 227 82<477.5 576.5>
LayerCount: 2
Fore
SplineSet
351 0 m 1xe4
 268 -2 l 1
 242 16 233 39 227 77 c 0
 223 102 225 169 217 228 c 0
 212 267 201 303 183 322 c 1
 127 321 l 1
 139 12 l 1
 58 7 l 1
 33 740 l 1
 113 743 153 745 152 745 c 1
 262 745 309 691 309 514 c 0
 309 441 290 381 249 356 c 1
 274 329 287 285 292 236 c 0
 301 150 294 49 351 0 c 1xe4
227 518 m 0
 227 635 208 650 140 650 c 2
 117 650 l 1
 125 414 l 1
 184 414 227 417 227 518 c 0
235 902 m 1
 172 800 l 1
 111 800 l 1
 154 902 l 1
 235 902 l 1
EndSplineSet
Validated: 8388641
EndChar

StartChar: racute
Encoding: 341 341 259
Width: 346
GlyphClass: 1
Flags: MW
HStem: -2 21G<268 268> 650 95<117 207 117 207> 882 20G<154 235 235 235>
VStem: 45 76 45 88 227 82<477.5 576.5>
LayerCount: 2
Fore
SplineSet
351 0 m 1xe4
 268 -2 l 1
 242 16 233 39 227 77 c 0
 223 102 225 169 217 228 c 0
 212 267 201 303 183 322 c 1
 127 321 l 1
 139 12 l 1
 58 7 l 1
 33 740 l 1
 113 743 153 745 152 745 c 1
 262 745 309 691 309 514 c 0
 309 441 290 381 249 356 c 1
 274 329 287 285 292 236 c 0
 301 150 294 49 351 0 c 1xe4
227 518 m 0
 227 635 208 650 140 650 c 2
 117 650 l 1
 125 414 l 1
 184 414 227 417 227 518 c 0
235 902 m 1
 172 800 l 1
 111 800 l 1
 154 902 l 1
 235 902 l 1
EndSplineSet
Validated: 8388641
EndChar

StartChar: Rcommaaccent
Encoding: 342 342 260
Width: 346
GlyphClass: 1
Flags: MW
HStem: -168 21G<148 172 148 148> 681 95<111 201 111 201>
VStem: 39 76 39 88 221 82<508.5 607.5>
LayerCount: 2
Fore
SplineSet
345 31 m 1xc8
 262 29 l 1
 236 47 227 70 221 108 c 0
 217 133 219 200 211 259 c 0
 206 298 195 334 177 353 c 1
 121 352 l 1
 133 43 l 1
 52 38 l 1
 27 771 l 1
 107 774 147 776 146 776 c 1
 256 776 303 722 303 545 c 0
 303 472 284 412 243 387 c 1
 268 360 281 316 286 267 c 0
 295 181 288 80 345 31 c 1xc8
221 549 m 0
 221 666 202 681 134 681 c 2
 111 681 l 1
 119 445 l 1
 178 445 221 448 221 549 c 0
210 -8 m 1
 211 -76 l 1
 172 -168 l 1
 148 -168 l 1
 162 -81 l 1
 134 -81 l 1
 134 -9 l 1
 210 -8 l 1
EndSplineSet
Validated: 8388641
EndChar

StartChar: rcommaaccent
Encoding: 343 343 261
Width: 346
GlyphClass: 1
Flags: MW
HStem: -168 21G<148 172 148 148> 681 95<111 201 111 201>
VStem: 39 76 39 88 221 82<508.5 607.5>
LayerCount: 2
Fore
SplineSet
345 31 m 1xc8
 262 29 l 1
 236 47 227 70 221 108 c 0
 217 133 219 200 211 259 c 0
 206 298 195 334 177 353 c 1
 121 352 l 1
 133 43 l 1
 52 38 l 1
 27 771 l 1
 107 774 147 776 146 776 c 1
 256 776 303 722 303 545 c 0
 303 472 284 412 243 387 c 1
 268 360 281 316 286 267 c 0
 295 181 288 80 345 31 c 1xc8
221 549 m 0
 221 666 202 681 134 681 c 2
 111 681 l 1
 119 445 l 1
 178 445 221 448 221 549 c 0
210 -8 m 1
 211 -76 l 1
 172 -168 l 1
 148 -168 l 1
 162 -81 l 1
 134 -81 l 1
 134 -9 l 1
 210 -8 l 1
EndSplineSet
Validated: 8388641
EndChar

StartChar: Rcaron
Encoding: 344 344 262
Width: 346
GlyphClass: 1
Flags: MW
HStem: 1 21G<265 265> 653 95<114 204 114 204> 865 20G<61 120 120 120 196 253 253 253>
VStem: 42 76 42 88 224 82<480.5 579.5>
LayerCount: 2
Fore
SplineSet
348 3 m 1xe4
 265 1 l 1
 239 19 230 42 224 80 c 0
 220 105 222 172 214 231 c 0
 209 270 198 306 180 325 c 1
 124 324 l 1
 136 15 l 1
 55 10 l 1
 30 743 l 1
 110 746 150 748 149 748 c 1
 259 748 306 694 306 517 c 0
 306 444 287 384 246 359 c 1
 271 332 284 288 289 239 c 0
 298 153 291 52 348 3 c 1xe4
224 521 m 0
 224 638 205 653 137 653 c 2
 114 653 l 1
 122 417 l 1
 181 417 224 420 224 521 c 0
120 885 m 1
 159 814 l 1
 196 885 l 1
 253 885 l 1
 192 784 l 1
 125 784 l 1
 61 885 l 1
 120 885 l 1
EndSplineSet
Validated: 8388641
EndChar

StartChar: rcaron
Encoding: 345 345 263
Width: 346
GlyphClass: 1
Flags: MW
HStem: 1 21G<265 265> 653 95<114 204 114 204> 865 20G<61 120 120 120 196 253 253 253>
VStem: 42 76 42 88 224 82<480.5 579.5>
LayerCount: 2
Fore
SplineSet
348 3 m 1xe4
 265 1 l 1
 239 19 230 42 224 80 c 0
 220 105 222 172 214 231 c 0
 209 270 198 306 180 325 c 1
 124 324 l 1
 136 15 l 1
 55 10 l 1
 30 743 l 1
 110 746 150 748 149 748 c 1
 259 748 306 694 306 517 c 0
 306 444 287 384 246 359 c 1
 271 332 284 288 289 239 c 0
 298 153 291 52 348 3 c 1xe4
224 521 m 0
 224 638 205 653 137 653 c 2
 114 653 l 1
 122 417 l 1
 181 417 224 420 224 521 c 0
120 885 m 1
 159 814 l 1
 196 885 l 1
 253 885 l 1
 192 784 l 1
 125 784 l 1
 61 885 l 1
 120 885 l 1
EndSplineSet
Validated: 8388641
EndChar

StartChar: Sacute
Encoding: 346 346 264
Width: 313
GlyphClass: 1
Flags: MW
HStem: -11 98<150.5 194.5 150.5 213> 572 186 668 90<151.5 182> 882 20G<147 228 228 228>
VStem: 35 67 35 79<570.5 616 570.5 636.5> 206 81<608.5 632> 234 78<149 184.5>
LayerCount: 2
Fore
SplineSet
312 171 m 0xb5
 312 69 253 -11 173 -11 c 0
 85 -11 25 82 25 199 c 1
 102 200 l 1
 105 122 131 87 170 87 c 0
 219 87 234 129 234 169 c 0xd9
 234 200 230 219 197 274 c 0
 167 323 120 373 87 421 c 0
 52 472 35 528 35 580 c 0
 35 693 85 758 161 758 c 0
 224 758 287 721 287 610 c 0
 287 597 286 584 285 569 c 1
 204 575 l 1
 206 589 206 603 206 614 c 0xda
 206 650 194 668 170 668 c 0
 133 668 114 642 114 590 c 0
 114 551 122 519 165 461 c 0
 196 419 231 379 261 336 c 0
 297 284 312 228 312 171 c 0xb5
228 902 m 1
 165 800 l 1
 104 800 l 1
 147 902 l 1
 228 902 l 1
EndSplineSet
Validated: 1
EndChar

StartChar: sacute
Encoding: 347 347 265
Width: 313
GlyphClass: 1
Flags: MW
HStem: -11 98<150.5 194.5 150.5 213> 572 186 668 90<151.5 182> 882 20G<147 228 228 228>
VStem: 35 67 35 79<570.5 616 570.5 636.5> 206 81<608.5 632> 234 78<149 184.5>
LayerCount: 2
Fore
SplineSet
312 171 m 0xb5
 312 69 253 -11 173 -11 c 0
 85 -11 25 82 25 199 c 1
 102 200 l 1
 105 122 131 87 170 87 c 0
 219 87 234 129 234 169 c 0xd9
 234 200 230 219 197 274 c 0
 167 323 120 373 87 421 c 0
 52 472 35 528 35 580 c 0
 35 693 85 758 161 758 c 0
 224 758 287 721 287 610 c 0
 287 597 286 584 285 569 c 1
 204 575 l 1
 206 589 206 603 206 614 c 0xda
 206 650 194 668 170 668 c 0
 133 668 114 642 114 590 c 0
 114 551 122 519 165 461 c 0
 196 419 231 379 261 336 c 0
 297 284 312 228 312 171 c 0xb5
228 902 m 1
 165 800 l 1
 104 800 l 1
 147 902 l 1
 228 902 l 1
EndSplineSet
Validated: 1
EndChar

StartChar: Scedilla
Encoding: 350 350 266
Width: 313
GlyphClass: 1
Flags: MW
HStem: -168 21G<132 156 132 132> -8 35<194 194> 27 98<145.5 189.5 145.5 208> 706 90<146.5 177>
VStem: 30 67 30 79<608.5 654 608.5 674.5> 118 189<-81 237.5 -9 237.5> 201 81<646.5 670> 229 78<187 222.5>
LayerCount: 2
Fore
SplineSet
307 209 m 0xd480
 307 107 248 27 168 27 c 0
 80 27 20 120 20 237 c 1
 97 238 l 1
 100 160 126 125 165 125 c 0
 214 125 229 167 229 207 c 0xb880
 229 238 225 257 192 312 c 0
 162 361 115 411 82 459 c 0
 47 510 30 566 30 618 c 0
 30 731 80 796 156 796 c 0
 219 796 282 759 282 648 c 0
 282 635 281 622 280 607 c 1
 199 613 l 1
 201 627 201 641 201 652 c 0xd9
 201 688 189 706 165 706 c 0
 128 706 109 680 109 628 c 0
 109 589 117 557 160 499 c 0
 191 457 226 417 256 374 c 0
 292 322 307 266 307 209 c 0xd480
194 -8 m 1xda
 195 -76 l 1
 156 -168 l 1
 132 -168 l 1
 146 -81 l 1
 118 -81 l 1
 118 -9 l 1
 194 -8 l 1xda
EndSplineSet
Validated: 1
EndChar

StartChar: scedilla
Encoding: 351 351 267
Width: 313
GlyphClass: 1
Flags: MW
HStem: -168 21G<132 156 132 132> -8 35<194 194> 27 98<145.5 189.5 145.5 208> 706 90<146.5 177>
VStem: 30 67 30 79<608.5 654 608.5 674.5> 118 189<-81 237.5 -9 237.5> 201 81<646.5 670> 229 78<187 222.5>
LayerCount: 2
Fore
SplineSet
307 209 m 0xd480
 307 107 248 27 168 27 c 0
 80 27 20 120 20 237 c 1
 97 238 l 1
 100 160 126 125 165 125 c 0
 214 125 229 167 229 207 c 0xb880
 229 238 225 257 192 312 c 0
 162 361 115 411 82 459 c 0
 47 510 30 566 30 618 c 0
 30 731 80 796 156 796 c 0
 219 796 282 759 282 648 c 0
 282 635 281 622 280 607 c 1
 199 613 l 1
 201 627 201 641 201 652 c 0xd9
 201 688 189 706 165 706 c 0
 128 706 109 680 109 628 c 0
 109 589 117 557 160 499 c 0
 191 457 226 417 256 374 c 0
 292 322 307 266 307 209 c 0xd480
194 -8 m 1xda
 195 -76 l 1
 156 -168 l 1
 132 -168 l 1
 146 -81 l 1
 118 -81 l 1
 118 -9 l 1
 194 -8 l 1xda
EndSplineSet
Validated: 1
EndChar

StartChar: Scaron
Encoding: 352 352 268
Width: 313
GlyphClass: 1
Flags: MW
HStem: -11 98<150.5 194.5 150.5 213> 572 186 668 90<151.5 182> 876 20G<68 127 127 127 203 260 260 260>
VStem: 35 67 35 79<570.5 616 570.5 636.5> 206 81<608.5 632> 234 78<149 184.5>
LayerCount: 2
Fore
SplineSet
312 171 m 0xb5
 312 69 253 -11 173 -11 c 0
 85 -11 25 82 25 199 c 1
 102 200 l 1
 105 122 131 87 170 87 c 0
 219 87 234 129 234 169 c 0xd9
 234 200 230 219 197 274 c 0
 167 323 120 373 87 421 c 0
 52 472 35 528 35 580 c 0
 35 693 85 758 161 758 c 0
 224 758 287 721 287 610 c 0
 287 597 286 584 285 569 c 1
 204 575 l 1
 206 589 206 603 206 614 c 0xda
 206 650 194 668 170 668 c 0
 133 668 114 642 114 590 c 0
 114 551 122 519 165 461 c 0
 196 419 231 379 261 336 c 0
 297 284 312 228 312 171 c 0xb5
127 896 m 1
 166 825 l 1
 203 896 l 1
 260 896 l 1
 199 795 l 1
 132 795 l 1
 68 896 l 1
 127 896 l 1
EndSplineSet
Validated: 1
EndChar

StartChar: scaron
Encoding: 353 353 269
Width: 313
GlyphClass: 1
Flags: MW
HStem: 33 98<143 186 143 211> 619 181 711 89<118 152> 897 20G<63 122 122 122 198 255 255 255>
VStem: 3 79<618.5 663.5 618.5 687.5> 173 81<620 711.5> 225 78<188 225>
LayerCount: 2
Fore
SplineSet
303 222 m 0xba
 303 101 255 33 167 33 c 0
 82 33 21 121 15 234 c 1
 92 240 l 1
 99 165 125 131 161 131 c 0
 211 131 225 168 225 208 c 0xda
 225 242 220 262 182 319 c 0
 150 366 99 413 64 459 c 0
 22 514 3 576 3 634 c 0
 3 741 52 800 130 800 c 0
 189 800 254 764 254 659 c 0
 254 646 254 634 253 618 c 1
 173 620 l 1xdc
 173 681 168 711 136 711 c 0
 100 711 82 686 82 641 c 0
 82 596 90 564 140 504 c 0
 173 463 211 425 243 384 c 0
 282 334 303 279 303 222 c 0xba
122 917 m 1
 161 846 l 1
 198 917 l 1
 255 917 l 1
 194 816 l 1
 127 816 l 1
 63 917 l 1
 122 917 l 1
EndSplineSet
Validated: 1
EndChar

StartChar: Tcedilla
Encoding: 354 354 270
Width: 308
GlyphClass: 1
Flags: MW
HStem: -168 21G<129 153 129 129> -8 44<191 191> 708 94<23 119 23 302 200 302 23 304 200 200>
VStem: 117 81
LayerCount: 2
Fore
SplineSet
302 802 m 1
 304 708 l 1
 200 708 l 1
 197 36 l 1
 116 36 l 1
 119 708 l 1
 23 708 l 1
 23 802 l 1
 302 802 l 1
191 -8 m 1
 192 -76 l 1
 153 -168 l 1
 129 -168 l 1
 143 -81 l 1
 115 -81 l 1
 115 -9 l 1
 191 -8 l 1
EndSplineSet
Validated: 1
EndChar

StartChar: tcedilla
Encoding: 355 355 271
Width: 308
GlyphClass: 1
Flags: MW
HStem: -168 21G<129 153 129 129> -8 44<191 191> 708 94<23 119 23 302 200 302 23 304 200 200>
VStem: 117 81
LayerCount: 2
Fore
SplineSet
302 802 m 1
 304 708 l 1
 200 708 l 1
 197 36 l 1
 116 36 l 1
 119 708 l 1
 23 708 l 1
 23 802 l 1
 302 802 l 1
191 -8 m 1
 192 -76 l 1
 153 -168 l 1
 129 -168 l 1
 143 -81 l 1
 115 -81 l 1
 115 -9 l 1
 191 -8 l 1
EndSplineSet
Validated: 1
EndChar

StartChar: Tcaron
Encoding: 356 356 272
Width: 308
GlyphClass: 1
Flags: MW
HStem: -1 21G<159 159> 138 43<119 200 119 200 119 200> 672 94<23 119 23 302 200 302 23 304 200 200> 878 20G<58 117 117 117 193 250 250 250>
VStem: 119 81<181 672>
LayerCount: 2
Fore
SplineSet
302 766 m 1
 304 672 l 1
 200 672 l 1
 200 181 l 1
 119 181 l 1
 119 672 l 1
 23 672 l 1
 23 766 l 1
 302 766 l 1
200 106 m 1
 268 106 l 1
 159 -1 l 1
 51 106 l 1
 118 106 l 1
 118 138 l 1
 200 138 l 1
 200 106 l 1
117 898 m 1
 156 827 l 1
 193 898 l 1
 250 898 l 1
 189 797 l 1
 122 797 l 1
 58 898 l 1
 117 898 l 1
EndSplineSet
Validated: 1
EndChar

StartChar: tcaron
Encoding: 357 357 273
Width: 308
GlyphClass: 1
Flags: MW
HStem: -1 21G<159 159> 138 43<119 200 119 200 119 200> 672 94<23 119 23 302 200 302 23 304 200 200> 878 20G<58 117 117 117 193 250 250 250>
VStem: 119 81<181 672>
LayerCount: 2
Fore
SplineSet
302 766 m 1
 304 672 l 1
 200 672 l 1
 200 181 l 1
 119 181 l 1
 119 672 l 1
 23 672 l 1
 23 766 l 1
 302 766 l 1
200 106 m 1
 268 106 l 1
 159 -1 l 1
 51 106 l 1
 118 106 l 1
 118 138 l 1
 200 138 l 1
 200 106 l 1
117 898 m 1
 156 827 l 1
 193 898 l 1
 250 898 l 1
 189 797 l 1
 122 797 l 1
 58 898 l 1
 117 898 l 1
EndSplineSet
Validated: 1
EndChar

StartChar: Tbar
Encoding: 358 358 274
Width: 308
GlyphClass: 1
Flags: MW
HStem: -35 21G<159 159> 104 43<119 200 119 200 119 200> 356 64<119 119 200 282> 638 94<23 119 23 302 200 200 200 302 23 304>
VStem: 119 81<147 356 420 638>
LayerCount: 2
Fore
SplineSet
282 420 m 1
 282 356 l 1
 200 356 l 1
 200 147 l 1
 119 147 l 1
 119 356 l 1
 35 357 l 1
 35 421 l 1
 119 420 l 1
 119 638 l 1
 23 638 l 1
 23 732 l 1
 302 732 l 1
 304 638 l 1
 200 638 l 1
 200 420 l 1
 282 420 l 1
200 72 m 1
 268 72 l 1
 159 -35 l 1
 51 72 l 1
 118 72 l 1
 118 104 l 1
 200 104 l 1
 200 72 l 1
EndSplineSet
Validated: 1
EndChar

StartChar: tbar
Encoding: 359 359 275
Width: 308
GlyphClass: 1
Flags: MW
HStem: -35 21G<159 159> 104 43<119 200 119 200 119 200> 356 64<119 119 200 282> 638 94<23 119 23 302 200 200 200 302 23 304>
VStem: 119 81<147 356 420 638>
LayerCount: 2
Fore
SplineSet
282 420 m 1
 282 356 l 1
 200 356 l 1
 200 147 l 1
 119 147 l 1
 119 356 l 1
 35 357 l 1
 35 421 l 1
 119 420 l 1
 119 638 l 1
 23 638 l 1
 23 732 l 1
 302 732 l 1
 304 638 l 1
 200 638 l 1
 200 420 l 1
 282 420 l 1
200 72 m 1
 268 72 l 1
 159 -35 l 1
 51 72 l 1
 118 72 l 1
 118 104 l 1
 200 104 l 1
 200 72 l 1
EndSplineSet
Validated: 1
EndChar

StartChar: Utilde
Encoding: 360 360 276
Width: 339
GlyphClass: 1
Flags: MW
HStem: -45 96<168.5 206 168.5 231.5> 768 53<245 259 241 263.5> 805 52<157.5 169 152.5 175.5> 848 20G<292 292>
VStem: 59 81 129 163<796 836 836 836> 253 80
LayerCount: 2
Fore
SplineSet
263 711 m 1xda
 340 707 l 1
 326 150 l 2
 323 20 275 -45 188 -45 c 0
 94 -45 51 19 51 148 c 2
 67 713 l 1
 148 709 l 1
 133 131 l 2
 132 84 149 51 188 51 c 0
 224 51 241 78 243 132 c 2
 263 711 l 1xda
129 766 m 1xa4
 129 836 l 1xd4
 136 850 146 857 159 857 c 0xaa
 179 857 231 821 251 821 c 0
 267 821 281 837 292 868 c 1
 292 796 l 1xd4
 283 777 271 768 256 768 c 0xda
 234 768 186 805 165 805 c 0
 150 805 138 792 129 766 c 1xa4
EndSplineSet
Validated: 33
EndChar

StartChar: utilde
Encoding: 361 361 277
Width: 339
GlyphClass: 1
Flags: MW
HStem: -45 96<168.5 206 168.5 231.5> 768 53<245 259 241 263.5> 805 52<157.5 169 152.5 175.5> 848 20G<292 292>
VStem: 59 81 129 163<796 836 836 836> 253 80
LayerCount: 2
Fore
SplineSet
263 711 m 1xda
 340 707 l 1
 326 150 l 2
 323 20 275 -45 188 -45 c 0
 94 -45 51 19 51 148 c 2
 67 713 l 1
 148 709 l 1
 133 131 l 2
 132 84 149 51 188 51 c 0
 224 51 241 78 243 132 c 2
 263 711 l 1xda
129 766 m 1xa4
 129 836 l 1xd4
 136 850 146 857 159 857 c 0xaa
 179 857 231 821 251 821 c 0
 267 821 281 837 292 868 c 1
 292 796 l 1xd4
 283 777 271 768 256 768 c 0xda
 234 768 186 805 165 805 c 0
 150 805 138 792 129 766 c 1xa4
EndSplineSet
Validated: 33
EndChar

StartChar: Umacron
Encoding: 362 362 278
Width: 339
GlyphClass: 1
Flags: MW
HStem: -45 96<168.5 206 168.5 231.5> 779 44<117 293 117 293>
VStem: 59 81 253 80
LayerCount: 2
Fore
SplineSet
263 711 m 1
 340 707 l 1
 326 150 l 2
 323 20 275 -45 188 -45 c 0
 94 -45 51 19 51 148 c 2
 67 713 l 1
 148 709 l 1
 133 131 l 2
 132 84 149 51 188 51 c 0
 224 51 241 78 243 132 c 2
 263 711 l 1
117 779 m 1
 117 823 l 1
 293 823 l 1
 293 779 l 1
 117 779 l 1
EndSplineSet
Validated: 33
EndChar

StartChar: umacron
Encoding: 363 363 279
Width: 339
GlyphClass: 1
Flags: MW
HStem: -45 96<168.5 206 168.5 231.5> 779 44<117 293 117 293>
VStem: 59 81 253 80
LayerCount: 2
Fore
SplineSet
263 711 m 1
 340 707 l 1
 326 150 l 2
 323 20 275 -45 188 -45 c 0
 94 -45 51 19 51 148 c 2
 67 713 l 1
 148 709 l 1
 133 131 l 2
 132 84 149 51 188 51 c 0
 224 51 241 78 243 132 c 2
 263 711 l 1
117 779 m 1
 117 823 l 1
 293 823 l 1
 293 779 l 1
 117 779 l 1
EndSplineSet
Validated: 33
EndChar

StartChar: Ubreve
Encoding: 364 364 280
Width: 339
GlyphClass: 1
Flags: MW
HStem: -45 96<168.5 206 168.5 231.5> 751 46<183.5 212.5 183.5 224> 751 102<94 224>
VStem: 59 81 253 80
LayerCount: 2
Fore
SplineSet
263 711 m 1xb8
 340 707 l 1
 326 150 l 2
 323 20 275 -45 188 -45 c 0
 94 -45 51 19 51 148 c 2
 67 713 l 1
 148 709 l 1
 133 131 l 2
 132 84 149 51 188 51 c 0
 224 51 241 78 243 132 c 2
 263 711 l 1xb8
198 751 m 0
 145 751 101 786 94 853 c 1
 153 853 l 1xb8
 161 820 169 797 198 797 c 0xd8
 227 797 234 820 239 853 c 1
 303 853 l 1
 292 786 250 751 198 751 c 0
EndSplineSet
Validated: 33
EndChar

StartChar: ubreve
Encoding: 365 365 281
Width: 339
GlyphClass: 1
Flags: MW
HStem: -45 96<168.5 206 168.5 231.5> 751 46<183.5 212.5 183.5 224> 751 102<94 224>
VStem: 59 81 253 80
LayerCount: 2
Fore
SplineSet
263 711 m 1xb8
 340 707 l 1
 326 150 l 2
 323 20 275 -45 188 -45 c 0
 94 -45 51 19 51 148 c 2
 67 713 l 1
 148 709 l 1
 133 131 l 2
 132 84 149 51 188 51 c 0
 224 51 241 78 243 132 c 2
 263 711 l 1xb8
198 751 m 0
 145 751 101 786 94 853 c 1
 153 853 l 1xb8
 161 820 169 797 198 797 c 0xd8
 227 797 234 820 239 853 c 1
 303 853 l 1
 292 786 250 751 198 751 c 0
EndSplineSet
Validated: 33
EndChar

StartChar: Uring
Encoding: 366 366 282
Width: 339
GlyphClass: 1
Flags: MW
HStem: -45 96<168.5 206 168.5 231.5> 748 31<204.5 221.5 204.5 230.5> 849 34<204.5 221.5>
VStem: 59 81 152 30<804 823.5 804 832.5> 253 22 253 80
LayerCount: 2
Fore
SplineSet
263 711 m 1xfa
 340 707 l 1
 326 150 l 2
 323 20 275 -45 188 -45 c 0
 94 -45 51 19 51 148 c 2
 67 713 l 1
 148 709 l 1
 133 131 l 2
 132 84 149 51 188 51 c 0
 224 51 241 78 243 132 c 2
 263 711 l 1xfa
182 814 m 0
 182 794 196 779 213 779 c 0
 230 779 242 794 242 814 c 0
 242 833 230 849 213 849 c 0
 196 849 182 833 182 814 c 0
213 748 m 0
 177 748 152 776 152 812 c 0
 152 853 177 883 213 883 c 0
 248 883 275 851 275 812 c 0xfc
 275 776 248 748 213 748 c 0
EndSplineSet
Validated: 33
EndChar

StartChar: uring
Encoding: 367 367 283
Width: 339
GlyphClass: 1
Flags: MW
HStem: -45 96<168.5 206 168.5 231.5> 748 31<204.5 221.5 204.5 230.5> 849 34<204.5 221.5>
VStem: 59 81 152 30<804 823.5 804 832.5> 253 22 253 80
LayerCount: 2
Fore
SplineSet
263 711 m 1xfa
 340 707 l 1
 326 150 l 2
 323 20 275 -45 188 -45 c 0
 94 -45 51 19 51 148 c 2
 67 713 l 1
 148 709 l 1
 133 131 l 2
 132 84 149 51 188 51 c 0
 224 51 241 78 243 132 c 2
 263 711 l 1xfa
182 814 m 0
 182 794 196 779 213 779 c 0
 230 779 242 794 242 814 c 0
 242 833 230 849 213 849 c 0
 196 849 182 833 182 814 c 0
213 748 m 0
 177 748 152 776 152 812 c 0
 152 853 177 883 213 883 c 0
 248 883 275 851 275 812 c 0xfc
 275 776 248 748 213 748 c 0
EndSplineSet
Validated: 33
EndChar

StartChar: Uhungarumlaut
Encoding: 368 368 284
Width: 339
GlyphClass: 1
Flags: MW
HStem: -45 96<168.5 206 168.5 231.5> 750 102<150 168 107 231 217 231 260 278 217 217>
VStem: 59 81 253 80
LayerCount: 2
Fore
SplineSet
263 711 m 1
 340 707 l 1
 326 150 l 2
 323 20 275 -45 188 -45 c 0
 94 -45 51 19 51 148 c 2
 67 713 l 1
 148 709 l 1
 133 131 l 2
 132 84 149 51 188 51 c 0
 224 51 241 78 243 132 c 2
 263 711 l 1
341 852 m 1
 278 750 l 1
 217 750 l 1
 260 852 l 1
 341 852 l 1
231 852 m 1
 168 750 l 1
 107 750 l 1
 150 852 l 1
 231 852 l 1
EndSplineSet
Validated: 33
EndChar

StartChar: uhungarumlaut
Encoding: 369 369 285
Width: 339
GlyphClass: 1
Flags: MW
HStem: -45 96<168.5 206 168.5 231.5> 750 102<150 168 107 231 217 231 260 278 217 217>
VStem: 59 81 253 80
LayerCount: 2
Fore
SplineSet
263 711 m 1
 340 707 l 1
 326 150 l 2
 323 20 275 -45 188 -45 c 0
 94 -45 51 19 51 148 c 2
 67 713 l 1
 148 709 l 1
 133 131 l 2
 132 84 149 51 188 51 c 0
 224 51 241 78 243 132 c 2
 263 711 l 1
341 852 m 1
 278 750 l 1
 217 750 l 1
 260 852 l 1
 341 852 l 1
231 852 m 1
 168 750 l 1
 107 750 l 1
 150 852 l 1
 231 852 l 1
EndSplineSet
Validated: 33
EndChar

StartChar: Uogonek
Encoding: 370 370 286
Width: 339
GlyphClass: 1
Flags: MW
HStem: -157 48<179.5 191.5> -5 96 733 20G<58 58>
VStem: 50 81 105 43<-79.5 -62.5> 244 80
LayerCount: 2
Fore
SplineSet
254 751 m 1xf4
 331 747 l 1
 317 190 l 2
 314 63 268 -2 185 -5 c 1
 160 -28 148 -47 148 -64 c 0
 148 -95 169 -109 190 -109 c 0
 205 -109 220 -101 234 -84 c 1
 234 -140 l 1
 219 -151 201 -157 182 -157 c 0
 127 -157 105 -135 105 -79 c 0
 105 -46 120 -21 148 -2 c 1xec
 75 10 42 74 42 188 c 2
 58 753 l 1
 139 749 l 1
 124 171 l 2
 124 124 139 91 179 91 c 0
 215 91 232 118 234 172 c 2
 254 751 l 1xf4
EndSplineSet
Validated: 1
EndChar

StartChar: uogonek
Encoding: 371 371 287
Width: 339
GlyphClass: 1
Flags: MW
HStem: -157 48<179.5 191.5> -5 96 733 20G<58 58>
VStem: 50 81 105 43<-79.5 -62.5> 244 80
LayerCount: 2
Fore
SplineSet
254 751 m 1xf4
 331 747 l 1
 317 190 l 2
 314 63 268 -2 185 -5 c 1
 160 -28 148 -47 148 -64 c 0
 148 -95 169 -109 190 -109 c 0
 205 -109 220 -101 234 -84 c 1
 234 -140 l 1
 219 -151 201 -157 182 -157 c 0
 127 -157 105 -135 105 -79 c 0
 105 -46 120 -21 148 -2 c 1xec
 75 10 42 74 42 188 c 2
 58 753 l 1
 139 749 l 1
 124 171 l 2
 124 124 139 91 179 91 c 0
 215 91 232 118 234 172 c 2
 254 751 l 1xf4
EndSplineSet
Validated: 1
EndChar

StartChar: Wcircumflex
Encoding: 372 372 288
Width: 459
GlyphClass: 1
Flags: MW
HStem: 21 21G<103 103> 933 20G<260 260>
LayerCount: 2
Fore
SplineSet
376 765 m 1
 451 765 l 1
 365 23 l 1
 298 23 l 1
 233 539 l 1
 173 23 l 1
 103 21 l 1
 6 772 l 1
 85 777 l 1
 142 234 l 1
 194 741 l 1
 263 741 l 1
 331 236 l 1
 376 765 l 1
284 827 m 1
 230 913 l 1
 178 822 l 1
 102 819 l 1
 193 950 l 1
 260 953 l 1
 357 831 l 1
 284 827 l 1
EndSplineSet
Validated: 1
EndChar

StartChar: wcircumflex
Encoding: 373 373 289
Width: 459
GlyphClass: 1
Flags: MW
HStem: 21 21G<103 103> 933 20G<260 260>
LayerCount: 2
Fore
SplineSet
376 765 m 1
 451 765 l 1
 365 23 l 1
 298 23 l 1
 233 539 l 1
 173 23 l 1
 103 21 l 1
 6 772 l 1
 85 777 l 1
 142 234 l 1
 194 741 l 1
 263 741 l 1
 331 236 l 1
 376 765 l 1
284 827 m 1
 230 913 l 1
 178 822 l 1
 102 819 l 1
 193 950 l 1
 260 953 l 1
 357 831 l 1
 284 827 l 1
EndSplineSet
Validated: 1
EndChar

StartChar: Ycircumflex
Encoding: 374 374 290
Width: 295
GlyphClass: 1
Flags: MW
HStem: 11 21G<117 117> 754 66 933 20G<178 178>
VStem: 113 81
LayerCount: 2
Fore
SplineSet
204 753 m 1
 286 756 l 1
 190 320 l 1
 198 13 l 1
 117 11 l 1
 110 303 l 1
 0 739 l 1
 78 744 l 1
 150 450 l 1
 204 753 l 1
202 827 m 1
 148 913 l 1
 96 822 l 1
 20 819 l 1
 111 950 l 1
 178 953 l 1
 275 831 l 1
 202 827 l 1
EndSplineSet
Validated: 1
EndChar

StartChar: ycircumflex
Encoding: 375 375 291
Width: 295
GlyphClass: 1
Flags: MW
HStem: 11 21G<117 117> 754 66 933 20G<178 178>
VStem: 113 81
LayerCount: 2
Fore
SplineSet
204 753 m 1
 286 756 l 1
 190 320 l 1
 198 13 l 1
 117 11 l 1
 110 303 l 1
 0 739 l 1
 78 744 l 1
 150 450 l 1
 204 753 l 1
202 827 m 1
 148 913 l 1
 96 822 l 1
 20 819 l 1
 111 950 l 1
 178 953 l 1
 275 831 l 1
 202 827 l 1
EndSplineSet
Validated: 1
EndChar

StartChar: Ydieresis
Encoding: 376 376 292
Width: 295
GlyphClass: 1
Flags: MW
HStem: 11 21G<107 107> 790 102 873 20G<248 248>
VStem: 26 77 173 77
LayerCount: 2
Fore
SplineSet
194 753 m 1xd8
 276 756 l 1
 180 320 l 1
 188 13 l 1
 107 11 l 1
 100 303 l 1
 -10 739 l 1
 68 744 l 1
 140 450 l 1
 194 753 l 1xd8
248 893 m 1xb8
 252 791 l 1
 175 789 l 1
 172 891 l 1
 248 893 l 1xb8
101 886 m 1
 105 784 l 1
 28 782 l 1
 25 884 l 1
 101 886 l 1
EndSplineSet
Validated: 1
EndChar

StartChar: Zacute
Encoding: 377 377 293
Width: 295
GlyphClass: 1
Flags: MW
HStem: 7 98<99 270 99 270 16 270> 646 98<58 193 58 58> 882 20G<167 248 248 248>
LayerCount: 2
Fore
SplineSet
49 744 m 1
 279 744 l 1
 279 644 l 1
 99 105 l 1
 270 105 l 1
 270 7 l 1
 16 7 l 1
 16 114 l 1
 193 646 l 1
 58 646 l 1
 49 744 l 1
248 902 m 1
 185 800 l 1
 124 800 l 1
 167 902 l 1
 248 902 l 1
EndSplineSet
Validated: 1
EndChar

StartChar: zacute
Encoding: 378 378 294
Width: 295
GlyphClass: 1
Flags: MW
HStem: 7 98<99 270 99 270 16 270> 646 98<58 193 58 58> 882 20G<167 248 248 248>
LayerCount: 2
Fore
SplineSet
49 744 m 1
 279 744 l 1
 279 644 l 1
 99 105 l 1
 270 105 l 1
 270 7 l 1
 16 7 l 1
 16 114 l 1
 193 646 l 1
 58 646 l 1
 49 744 l 1
248 902 m 1
 185 800 l 1
 124 800 l 1
 167 902 l 1
 248 902 l 1
EndSplineSet
Validated: 1
EndChar

StartChar: Zdotaccent
Encoding: 379 379 295
Width: 295
GlyphClass: 1
Flags: MW
HStem: -23 98<98 269 98 269 15 269> 616 98<57 192 57 57> 788 102 871 20G<193 193>
VStem: 118 77
LayerCount: 2
Fore
SplineSet
48 714 m 1xe8
 278 714 l 1
 278 614 l 1
 98 75 l 1
 269 75 l 1
 269 -23 l 1
 15 -23 l 1
 15 84 l 1
 192 616 l 1
 57 616 l 1
 48 714 l 1xe8
193 891 m 1xd8
 197 789 l 1
 120 787 l 1
 117 889 l 1
 193 891 l 1xd8
EndSplineSet
Validated: 1
EndChar

StartChar: zdotaccent
Encoding: 380 380 296
Width: 295
GlyphClass: 1
Flags: MW
HStem: -23 98<98 269 98 269 15 269> 616 98<57 192 57 57> 788 102 871 20G<193 193>
VStem: 118 77
LayerCount: 2
Fore
SplineSet
48 714 m 1xe8
 278 714 l 1
 278 614 l 1
 98 75 l 1
 269 75 l 1
 269 -23 l 1
 15 -23 l 1
 15 84 l 1
 192 616 l 1
 57 616 l 1
 48 714 l 1xe8
193 891 m 1xd8
 197 789 l 1
 120 787 l 1
 117 889 l 1
 193 891 l 1xd8
EndSplineSet
Validated: 1
EndChar

StartChar: Zcaron
Encoding: 381 381 297
Width: 295
GlyphClass: 1
Flags: MW
HStem: 7 98<118 289 118 289 35 289> 646 98<77 212 77 77> 870 20G<88 147 147 147 223 280 280 280>
LayerCount: 2
Fore
SplineSet
68 744 m 1
 298 744 l 1
 298 644 l 1
 118 105 l 1
 289 105 l 1
 289 7 l 1
 35 7 l 1
 35 114 l 1
 212 646 l 1
 77 646 l 1
 68 744 l 1
147 890 m 1
 186 819 l 1
 223 890 l 1
 280 890 l 1
 219 789 l 1
 152 789 l 1
 88 890 l 1
 147 890 l 1
EndSplineSet
Validated: 1
EndChar

StartChar: zcaron
Encoding: 382 382 298
Width: 295
GlyphClass: 1
Flags: MW
HStem: -18 104 623 101 852 20G<72 131 131 131 207 264 264 264>
LayerCount: 2
Fore
SplineSet
42 722 m 1
 275 727 l 1
 275 627 l 1
 114 84 l 1
 289 88 l 1
 289 -18 l 1
 31 -18 l 1
 31 89 l 1
 190 625 l 1
 55 622 l 1
 42 722 l 1
131 872 m 1
 170 801 l 1
 207 872 l 1
 264 872 l 1
 203 771 l 1
 136 771 l 1
 72 872 l 1
 131 872 l 1
EndSplineSet
Validated: 1
EndChar

StartChar: Scommaaccent
Encoding: 536 536 299
Width: 313
GlyphClass: 1
Flags: MW
HStem: -168 21G<132 156 132 132> -8 35<194 194> 27 98<145.5 189.5 145.5 208> 706 90<146.5 177>
VStem: 30 67 30 79<608.5 654 608.5 674.5> 118 189<-81 237.5 -9 237.5> 201 81<646.5 670> 229 78<187 222.5>
LayerCount: 2
Fore
SplineSet
307 209 m 0xd480
 307 107 248 27 168 27 c 0
 80 27 20 120 20 237 c 1
 97 238 l 1
 100 160 126 125 165 125 c 0
 214 125 229 167 229 207 c 0xb880
 229 238 225 257 192 312 c 0
 162 361 115 411 82 459 c 0
 47 510 30 566 30 618 c 0
 30 731 80 796 156 796 c 0
 219 796 282 759 282 648 c 0
 282 635 281 622 280 607 c 1
 199 613 l 1
 201 627 201 641 201 652 c 0xd9
 201 688 189 706 165 706 c 0
 128 706 109 680 109 628 c 0
 109 589 117 557 160 499 c 0
 191 457 226 417 256 374 c 0
 292 322 307 266 307 209 c 0xd480
194 -8 m 1xda
 195 -76 l 1
 156 -168 l 1
 132 -168 l 1
 146 -81 l 1
 118 -81 l 1
 118 -9 l 1
 194 -8 l 1xda
EndSplineSet
Validated: 1
EndChar

StartChar: scommaaccent
Encoding: 537 537 300
Width: 313
GlyphClass: 1
Flags: MW
HStem: -168 21G<132 156 132 132> -8 35<194 194> 27 98<145.5 189.5 145.5 208> 706 90<146.5 177>
VStem: 30 67 30 79<608.5 654 608.5 674.5> 118 189<-81 237.5 -9 237.5> 201 81<646.5 670> 229 78<187 222.5>
LayerCount: 2
Fore
SplineSet
307 209 m 0xd480
 307 107 248 27 168 27 c 0
 80 27 20 120 20 237 c 1
 97 238 l 1
 100 160 126 125 165 125 c 0
 214 125 229 167 229 207 c 0xb880
 229 238 225 257 192 312 c 0
 162 361 115 411 82 459 c 0
 47 510 30 566 30 618 c 0
 30 731 80 796 156 796 c 0
 219 796 282 759 282 648 c 0
 282 635 281 622 280 607 c 1
 199 613 l 1
 201 627 201 641 201 652 c 0xd9
 201 688 189 706 165 706 c 0
 128 706 109 680 109 628 c 0
 109 589 117 557 160 499 c 0
 191 457 226 417 256 374 c 0
 292 322 307 266 307 209 c 0xd480
194 -8 m 1xda
 195 -76 l 1
 156 -168 l 1
 132 -168 l 1
 146 -81 l 1
 118 -81 l 1
 118 -9 l 1
 194 -8 l 1xda
EndSplineSet
Validated: 1
EndChar

StartChar: uni021A
Encoding: 538 538 301
Width: 308
GlyphClass: 1
Flags: MW
HStem: -168 21G<129 153 129 129> -8 44<191 191> 708 94<23 119 23 302 200 302 23 304 200 200>
VStem: 117 81
LayerCount: 2
Fore
SplineSet
302 802 m 1
 304 708 l 1
 200 708 l 1
 197 36 l 1
 116 36 l 1
 119 708 l 1
 23 708 l 1
 23 802 l 1
 302 802 l 1
191 -8 m 1
 192 -76 l 1
 153 -168 l 1
 129 -168 l 1
 143 -81 l 1
 115 -81 l 1
 115 -9 l 1
 191 -8 l 1
EndSplineSet
Validated: 1
EndChar

StartChar: uni021B
Encoding: 539 539 302
Width: 308
GlyphClass: 1
Flags: MW
HStem: -168 21G<129 153 129 129> -8 44<191 191> 708 94<23 119 23 302 200 302 23 304 200 200>
VStem: 117 81
LayerCount: 2
Fore
SplineSet
302 802 m 1
 304 708 l 1
 200 708 l 1
 197 36 l 1
 116 36 l 1
 119 708 l 1
 23 708 l 1
 23 802 l 1
 302 802 l 1
191 -8 m 1
 192 -76 l 1
 153 -168 l 1
 129 -168 l 1
 143 -81 l 1
 115 -81 l 1
 115 -9 l 1
 191 -8 l 1
EndSplineSet
Validated: 1
EndChar

StartChar: circumflex
Encoding: 710 710 303
Width: 343
GlyphClass: 1
Flags: MW
HStem: 819 21G<148 148> 933 20G<306 306>
LayerCount: 2
Fore
SplineSet
330 827 m 1
 276 913 l 1
 224 822 l 1
 148 819 l 1
 239 950 l 1
 306 953 l 1
 403 831 l 1
 330 827 l 1
EndSplineSet
Validated: 1
EndChar

StartChar: caron
Encoding: 711 711 304
Width: 234
GlyphClass: 1
Flags: MW
HStem: 797 21G<84 151 84 84> 878 20G<20 79 79 79 155 212 212 212>
LayerCount: 2
Fore
SplineSet
79 898 m 1
 118 827 l 1
 155 898 l 1
 212 898 l 1
 151 797 l 1
 84 797 l 1
 20 898 l 1
 79 898 l 1
EndSplineSet
Validated: 1
EndChar

StartChar: breve
Encoding: 728 728 305
Width: 218
GlyphClass: 1
Flags: MW
HStem: 798 46<94.5 123.5 94.5 135> 798 102<5 135>
LayerCount: 2
Fore
SplineSet
109 798 m 0x40
 56 798 12 833 5 900 c 1
 64 900 l 1x40
 72 867 80 844 109 844 c 0x80
 138 844 145 867 150 900 c 1
 214 900 l 1
 203 833 161 798 109 798 c 0x40
EndSplineSet
Validated: 1
EndChar

StartChar: dotaccent
Encoding: 729 729 306
Width: 154
GlyphClass: 1
Flags: MW
HStem: 787 21G<40 40> 788 102 871 20G<113 113>
VStem: 38 77
LayerCount: 2
Fore
SplineSet
113 891 m 1xb0
 117 789 l 1
 40 787 l 1
 37 889 l 1
 113 891 l 1xb0
EndSplineSet
Validated: 8388609
EndChar

StartChar: ring
Encoding: 730 730 307
Width: 184
GlyphClass: 1
Flags: MW
HStem: 796 31<83.5 100.5 83.5 109.5> 897 34<83.5 100.5>
VStem: 31 30<852 871.5 852 880.5> 121 33<852 871.5>
LayerCount: 2
Fore
SplineSet
61 862 m 0
 61 842 75 827 92 827 c 0
 109 827 121 842 121 862 c 0
 121 881 109 897 92 897 c 0
 75 897 61 881 61 862 c 0
92 796 m 0
 56 796 31 824 31 860 c 0
 31 901 56 931 92 931 c 0
 127 931 154 899 154 860 c 0
 154 824 127 796 92 796 c 0
EndSplineSet
Validated: 1
EndChar

StartChar: ogonek
Encoding: 731 731 308
Width: 169
GlyphClass: 1
Flags: MW
HStem: -157 48<95.5 107.5> -5 20G<98 125 125 125>
VStem: 21 43<-79.5 -57>
LayerCount: 2
Fore
SplineSet
98 15 m 1
 125 15 l 1
 84 -17 64 -43 64 -64 c 0
 64 -95 85 -109 106 -109 c 0
 121 -109 136 -101 150 -84 c 1
 150 -140 l 1
 135 -151 117 -157 98 -157 c 0
 43 -157 21 -135 21 -79 c 0
 21 -35 49 -5 98 15 c 1
EndSplineSet
Validated: 1
EndChar

StartChar: tilde
Encoding: 732 732 309
Width: 215
GlyphClass: 1
Flags: MW
HStem: 807 21G<24 24> 809 53<140 154 136 158.5> 846 52<52.5 64 47.5 70.5> 889 20G<187 187>
VStem: 24 163<837 877 877 877>
LayerCount: 2
Fore
SplineSet
24 807 m 1xa8
 24 877 l 1
 31 891 41 898 54 898 c 0xa8
 74 898 126 862 146 862 c 0
 162 862 176 878 187 909 c 1
 187 837 l 1
 178 818 166 809 151 809 c 0x58
 129 809 81 846 60 846 c 0
 45 846 33 833 24 807 c 1xa8
EndSplineSet
Validated: 1
EndChar

StartChar: hungarumlaut
Encoding: 733 733 310
Width: 245
GlyphClass: 1
Flags: MW
HStem: 800 102<64 82 21 145 131 145 174 192 131 131>
LayerCount: 2
Fore
SplineSet
255 902 m 1
 192 800 l 1
 131 800 l 1
 174 902 l 1
 255 902 l 1
145 902 m 1
 82 800 l 1
 21 800 l 1
 64 902 l 1
 145 902 l 1
EndSplineSet
Validated: 1
EndChar

StartChar: Wgrave
Encoding: 7808 7808 311
Width: 459
GlyphClass: 1
Flags: MW
HStem: 18 21G<103 103> 878 20G<134 213 213 213>
LayerCount: 2
Fore
SplineSet
376 762 m 1
 451 762 l 1
 365 20 l 1
 298 20 l 1
 233 536 l 1
 173 20 l 1
 103 18 l 1
 6 769 l 1
 85 774 l 1
 142 231 l 1
 194 738 l 1
 263 738 l 1
 331 233 l 1
 376 762 l 1
198 797 m 1
 134 898 l 1
 213 898 l 1
 255 797 l 1
 198 797 l 1
EndSplineSet
Validated: 1
EndChar

StartChar: wgrave
Encoding: 7809 7809 312
Width: 459
GlyphClass: 1
Flags: MW
HStem: 18 21G<103 103> 878 20G<134 213 213 213>
LayerCount: 2
Fore
SplineSet
376 762 m 1
 451 762 l 1
 365 20 l 1
 298 20 l 1
 233 536 l 1
 173 20 l 1
 103 18 l 1
 6 769 l 1
 85 774 l 1
 142 231 l 1
 194 738 l 1
 263 738 l 1
 331 233 l 1
 376 762 l 1
198 797 m 1
 134 898 l 1
 213 898 l 1
 255 797 l 1
 198 797 l 1
EndSplineSet
Validated: 1
EndChar

StartChar: Wacute
Encoding: 7810 7810 313
Width: 459
GlyphClass: 1
Flags: MW
HStem: 23 21G<103 103> 882 20G<242 323 323 323>
LayerCount: 2
Fore
SplineSet
376 767 m 1
 451 767 l 1
 365 25 l 1
 298 25 l 1
 233 541 l 1
 173 25 l 1
 103 23 l 1
 6 774 l 1
 85 779 l 1
 142 236 l 1
 194 743 l 1
 263 743 l 1
 331 238 l 1
 376 767 l 1
323 902 m 1
 260 800 l 1
 199 800 l 1
 242 902 l 1
 323 902 l 1
EndSplineSet
Validated: 1
EndChar

StartChar: wacute
Encoding: 7811 7811 314
Width: 459
GlyphClass: 1
Flags: MW
HStem: 23 21G<103 103> 882 20G<242 323 323 323>
LayerCount: 2
Fore
SplineSet
376 767 m 1
 451 767 l 1
 365 25 l 1
 298 25 l 1
 233 541 l 1
 173 25 l 1
 103 23 l 1
 6 774 l 1
 85 779 l 1
 142 236 l 1
 194 743 l 1
 263 743 l 1
 331 238 l 1
 376 767 l 1
323 902 m 1
 260 800 l 1
 199 800 l 1
 242 902 l 1
 323 902 l 1
EndSplineSet
Validated: 1
EndChar

StartChar: Wdieresis
Encoding: 7812 7812 315
Width: 459
GlyphClass: 1
Flags: MW
HStem: -5 21G<103 103> -3 21G<173 173 298 365 298 298> 795 102 878 20G<339 339>
VStem: 117 77 264 77
LayerCount: 2
Fore
SplineSet
376 739 m 1xac
 451 739 l 1
 365 -3 l 1
 298 -3 l 1
 233 513 l 1
 173 -3 l 1x6c
 103 -5 l 1
 6 746 l 1
 85 751 l 1
 142 208 l 1
 194 715 l 1
 263 715 l 1
 331 210 l 1
 376 739 l 1xac
339 898 m 1x9c
 343 796 l 1
 266 794 l 1
 263 896 l 1
 339 898 l 1x9c
192 891 m 1
 196 789 l 1
 119 787 l 1
 116 889 l 1
 192 891 l 1
EndSplineSet
Validated: 1
EndChar

StartChar: wdieresis
Encoding: 7813 7813 316
Width: 459
GlyphClass: 1
Flags: MW
HStem: -5 21G<103 103> -3 21G<173 173 298 365 298 298> 795 102 878 20G<339 339>
VStem: 117 77 264 77
LayerCount: 2
Fore
SplineSet
376 739 m 1xac
 451 739 l 1
 365 -3 l 1
 298 -3 l 1
 233 513 l 1
 173 -3 l 1x6c
 103 -5 l 1
 6 746 l 1
 85 751 l 1
 142 208 l 1
 194 715 l 1
 263 715 l 1
 331 210 l 1
 376 739 l 1xac
339 898 m 1x9c
 343 796 l 1
 266 794 l 1
 263 896 l 1
 339 898 l 1x9c
192 891 m 1
 196 789 l 1
 119 787 l 1
 116 889 l 1
 192 891 l 1
EndSplineSet
Validated: 1
EndChar

StartChar: Ygrave
Encoding: 7922 7922 317
Width: 295
GlyphClass: 1
Flags: MW
HStem: 11 21G<107 107> 878 20G<55 134 134 134>
VStem: 103 81
LayerCount: 2
Fore
SplineSet
194 753 m 1
 276 756 l 1
 180 320 l 1
 188 13 l 1
 107 11 l 1
 100 303 l 1
 -10 739 l 1
 68 744 l 1
 140 450 l 1
 194 753 l 1
119 797 m 1
 55 898 l 1
 134 898 l 1
 176 797 l 1
 119 797 l 1
EndSplineSet
Validated: 1
EndChar

StartChar: ygrave
Encoding: 7923 7923 318
Width: 295
GlyphClass: 1
Flags: MW
HStem: 11 21G<107 107> 878 20G<55 134 134 134>
VStem: 103 81
LayerCount: 2
Fore
SplineSet
194 753 m 1
 276 756 l 1
 180 320 l 1
 188 13 l 1
 107 11 l 1
 100 303 l 1
 -10 739 l 1
 68 744 l 1
 140 450 l 1
 194 753 l 1
119 797 m 1
 55 898 l 1
 134 898 l 1
 176 797 l 1
 119 797 l 1
EndSplineSet
Validated: 1
EndChar

StartChar: endash
Encoding: 8211 8211 319
Width: 393
GlyphClass: 1
Flags: MW
HStem: 314 94<39 355 39 355>
LayerCount: 2
Fore
SplineSet
39 314 m 1
 39 408 l 1
 355 408 l 1
 355 314 l 1
 39 314 l 1
EndSplineSet
Validated: 1
EndChar

StartChar: emdash
Encoding: 8212 8212 320
Width: 602
GlyphClass: 1
Flags: MW
HStem: 314 94<39 569 39 569>
LayerCount: 2
Fore
SplineSet
39 314 m 1
 39 408 l 1
 569 408 l 1
 569 314 l 1
 39 314 l 1
EndSplineSet
Validated: 1
EndChar

StartChar: quoteleft
Encoding: 8216 8216 321
Width: 118
GlyphClass: 1
Flags: MW
HStem: 669 21G<14 104 14 14> 886 20G<58 87 87 87>
VStem: 14 90<669 778 778 778>
LayerCount: 2
Fore
SplineSet
104 669 m 1
 14 669 l 1
 14 778 l 1
 58 906 l 1
 87 906 l 1
 69 784 l 1
 104 784 l 1
 104 669 l 1
EndSplineSet
Validated: 1
EndChar

StartChar: quoteright
Encoding: 8217 8217 322
Width: 118
GlyphClass: 1
Flags: MW
HStem: 670 21G<32 61 32 32> 887 20G<17 105 105 105>
VStem: 17 88<791 907 907 907>
LayerCount: 2
Fore
SplineSet
105 907 m 1
 106 797 l 1
 91 758 77 715 61 670 c 1
 32 670 l 1
 50 791 l 1
 17 791 l 1
 17 907 l 1
 105 907 l 1
EndSplineSet
Validated: 1
EndChar

StartChar: quotesinglbase
Encoding: 8218 8218 323
Width: 137
GlyphClass: 1
Flags: MW
HStem: -125 21G<58 86 58 58> -4 21G<42 75 42 42> 92 20G<130 130>
VStem: 42 88<93.5 111 111 111>
LayerCount: 2
Fore
SplineSet
131 30 m 2
 131 2 l 1
 116 -37 102 -78 86 -125 c 1
 58 -125 l 1
 75 -4 l 1
 42 -4 l 1
 42 111 l 1
 130 112 l 1
 130 75 131 47 131 30 c 2
EndSplineSet
Validated: 1
EndChar

StartChar: quotedblleft
Encoding: 8220 8220 324
Width: 239
GlyphClass: 1
Flags: MW
HStem: 669 115<14 104 69 133 188 223> 886 20G<58 87 87 87 177 206 206 206>
VStem: 14 90<670 670 670 778 778 778> 133 90<669 778 778 778>
LayerCount: 2
Fore
SplineSet
104 670 m 1
 14 669 l 1
 14 778 l 1
 58 906 l 1
 87 906 l 1
 69 784 l 1
 104 784 l 1
 104 670 l 1
223 669 m 1
 133 669 l 1
 133 778 l 1
 177 906 l 1
 206 906 l 1
 188 784 l 1
 223 784 l 1
 223 669 l 1
EndSplineSet
Validated: 1
EndChar

StartChar: quotedblright
Encoding: 8221 8221 325
Width: 244
GlyphClass: 1
Flags: MW
HStem: 670 21G<32 61 32 32 143 143 143 171> 887 20G<17 105 105 105 127 215 215 215>
VStem: 17 88<791 907 907 907> 127 89
LayerCount: 2
Fore
SplineSet
105 907 m 1
 106 797 l 1
 91 758 77 715 61 670 c 1
 32 670 l 1
 50 791 l 1
 17 791 l 1
 17 907 l 1
 105 907 l 1
215 907 m 1
 217 797 l 1
 202 758 187 715 171 670 c 1
 143 670 l 1
 161 791 l 1
 127 791 l 1
 127 907 l 1
 215 907 l 1
EndSplineSet
Validated: 1
EndChar

StartChar: quotedblbase
Encoding: 8222 8222 326
Width: 311
GlyphClass: 1
Flags: MW
HStem: -125 21G<58 86 58 58 184 212 184 184> -4 21G<42 75 42 42 168 201 168 168> 92 20G<130 130 256 256>
VStem: 42 88<93.5 111 111 111> 168 88<93.5 111 111 111>
LayerCount: 2
Fore
SplineSet
257 30 m 2
 257 2 l 1
 242 -37 228 -78 212 -125 c 1
 184 -125 l 1
 201 -4 l 1
 168 -4 l 1
 168 111 l 1
 256 112 l 1
 256 75 257 47 257 30 c 2
131 30 m 2
 131 2 l 1
 116 -37 102 -78 86 -125 c 1
 58 -125 l 1
 75 -4 l 1
 42 -4 l 1
 42 111 l 1
 130 112 l 1
 130 75 131 47 131 30 c 2
EndSplineSet
Validated: 1
EndChar

StartChar: dagger
Encoding: 8224 8224 327
Width: 338
GlyphClass: 1
Flags: MW
HStem: 25 21G<154 189 154 154> 500 58<32 130 32 130 213 306> 654 20G<130 213 213 213>
VStem: 130 83<500 500 558 674> 142 59
LayerCount: 2
Fore
SplineSet
306 500 m 1xe8
 213 500 l 1
 189 25 l 1
 154 25 l 1
 130 500 l 1
 32 500 l 1
 32 558 l 1
 130 558 l 1
 130 674 l 1
 213 674 l 1
 213 558 l 1xf0
 306 558 l 1
 306 500 l 1xe8
EndSplineSet
Validated: 1
EndChar

StartChar: daggerdbl
Encoding: 8225 8225 328
Width: 338
GlyphClass: 1
Flags: MW
HStem: 0 21G<131 214 131 131> 115 59<38 131 38 131 214 312> 500 58<32 130 32 130 213 306> 654 20G<130 213 213 213>
VStem: 130 83<500 500 558 674>
LayerCount: 2
Fore
SplineSet
131 174 m 1
 150 349 l 1
 130 500 l 1
 32 500 l 1
 32 558 l 1
 130 558 l 1
 130 674 l 1
 213 674 l 1
 213 558 l 1
 306 558 l 1
 306 500 l 1
 213 500 l 1
 193 349 l 1
 214 174 l 1
 312 174 l 1
 312 115 l 1
 214 115 l 1
 214 0 l 1
 131 0 l 1
 131 115 l 1
 38 115 l 1
 38 174 l 1
 131 174 l 1
EndSplineSet
Validated: 1
EndChar

StartChar: bullet
Encoding: 8226 8226 329
Width: 450
GlyphClass: 1
Flags: MW
HStem: 140 21G<167 271.5> 500 20G<167 271.5>
LayerCount: 2
Fore
SplineSet
30 330 m 0
 30 434 115 520 219 520 c 0
 324 520 409 434 409 330 c 0
 409 224 324 140 219 140 c 0
 115 140 30 224 30 330 c 0
EndSplineSet
Validated: 1
EndChar

StartChar: ellipsis
Encoding: 8230 8230 330
Width: 567
GlyphClass: 1
Flags: MW
HStem: -2 21G<427 427> 9 103
VStem: 54 77<10 112 10 112 10 112> 239 77<10 112 10 112 10 112> 427 77<0 102 0 102 0 102>
LayerCount: 2
Fore
SplineSet
131 112 m 1x78
 131 10 l 1
 54 8 l 1
 54 112 l 1
 131 112 l 1x78
316 112 m 1
 316 10 l 1
 239 8 l 1
 239 112 l 1
 316 112 l 1
504 102 m 1
 504 0 l 1
 427 -2 l 1xb8
 427 102 l 1
 504 102 l 1
EndSplineSet
Validated: 1
EndChar

StartChar: perthousand
Encoding: 8240 8240 331
Width: 626
GlyphClass: 1
Flags: MW
HStem: -56 60<348.5 364 348.5 379 537.5 553> 314 57 721 20G<105.5 155>
VStem: 52 51 150 53 283 51 381 53 472 51 570 53
LayerCount: 2
Fore
SplineSet
206 636 m 0
 204 631 205 561 203 426 c 0
 201 355 172 314 124 314 c 0
 72 314 49 353 49 429 c 0
 49 448 49 517 52 637 c 0
 53 703 80 741 131 741 c 0
 179 741 206 698 206 636 c 0
149 411 m 2
 152 648 l 2
 152 665 142 679 129 679 c 0
 113 679 105 667 105 649 c 2
 101 411 l 2
 101 392 109 374 126 374 c 0
 140 374 149 390 149 411 c 2
351 732 m 1
 411 732 l 1
 144 -8 l 1
 85 -8 l 1
 351 732 l 1
437 266 m 0
 435 261 436 191 434 56 c 0
 432 -15 403 -56 355 -56 c 0
 303 -56 280 -17 280 59 c 0
 280 78 280 147 283 267 c 0
 284 333 311 371 362 371 c 0
 410 371 437 328 437 266 c 0
380 41 m 2
 383 278 l 2
 383 295 373 309 360 309 c 0
 344 309 336 297 336 279 c 2
 332 41 l 2
 332 22 340 4 357 4 c 0
 371 4 380 20 380 41 c 2
626 266 m 0
 624 261 625 191 623 56 c 0
 621 -15 592 -56 544 -56 c 0
 492 -56 469 -17 469 59 c 0
 469 78 469 147 472 267 c 0
 473 333 500 371 551 371 c 0
 599 371 626 328 626 266 c 0
569 41 m 2
 572 278 l 2
 572 295 562 309 549 309 c 0
 533 309 525 297 525 279 c 2
 521 41 l 2
 521 22 529 4 546 4 c 0
 560 4 569 20 569 41 c 2
EndSplineSet
Validated: 1
EndChar

StartChar: guilsinglleft
Encoding: 8249 8249 332
Width: 227
GlyphClass: 1
Flags: MW
HStem: 205 21G<192 192> 502 20G<192 192>
LayerCount: 2
Fore
SplineSet
192 420 m 1
 101 362 l 1
 192 303 l 1
 192 205 l 1
 15 325 l 1
 15 397 l 1
 192 522 l 1
 192 420 l 1
EndSplineSet
Validated: 1
EndChar

StartChar: guilsinglright
Encoding: 8250 8250 333
Width: 231
GlyphClass: 1
Flags: MW
HStem: 205 21G<39 39> 502 20G<39 39>
LayerCount: 2
Fore
SplineSet
39 306 m 1
 131 364 l 1
 39 422 l 1
 39 522 l 1
 215 401 l 1
 215 328 l 1
 39 205 l 1
 39 306 l 1
EndSplineSet
Validated: 1
EndChar

StartChar: fraction
Encoding: 8260 8260 334
Width: 147
GlyphClass: 1
Flags: MW
HStem: -8 21G<-93 -34 -93 -93> 712 20G<173 233 233 233>
LayerCount: 2
Fore
SplineSet
173 732 m 1
 233 732 l 1
 -34 -8 l 1
 -93 -8 l 1
 173 732 l 1
EndSplineSet
Validated: 1
EndChar

StartChar: zerosuperior
Encoding: 8304 8304 335
Width: 208
GlyphClass: 1
Flags: MW
HStem: 314 60<102.5 118 102.5 133> 721 20G<90.5 140>
VStem: 37 51 135 53
LayerCount: 2
Fore
SplineSet
191 636 m 0
 189 631 190 561 188 426 c 0
 186 355 157 314 109 314 c 0
 57 314 34 353 34 429 c 0
 34 448 34 517 37 637 c 0
 38 703 65 741 116 741 c 0
 164 741 191 698 191 636 c 0
134 411 m 2
 137 648 l 2
 137 665 127 679 114 679 c 0
 98 679 90 667 90 649 c 2
 86 411 l 2
 86 392 94 374 111 374 c 0
 125 374 134 390 134 411 c 2
EndSplineSet
Validated: 1
EndChar

StartChar: foursuperior
Encoding: 8308 8308 336
Width: 209
GlyphClass: 1
Flags: MW
HStem: 396 21G<108 108> 494 59 787 20G<146 146>
VStem: 100 50
LayerCount: 2
Fore
SplineSet
190 554 m 1
 192 498 l 1
 156 497 l 1
 159 400 l 1
 108 396 l 1
 104 496 l 1
 20 492 l 1
 18 548 l 1
 93 805 l 1
 146 807 l 1
 154 553 l 1
 190 554 l 1
68 550 m 1
 102 552 l 1
 98 663 l 1
 68 550 l 1
EndSplineSet
Validated: 1
EndChar

StartChar: fivesuperior
Encoding: 8309 8309 337
Width: 194
GlyphClass: 1
Flags: MW
HStem: 337 57<97.5 116 97.5 125> 706 59<87 176 87 87>
VStem: 42 44 129 48
LayerCount: 2
Fore
SplineSet
179 542 m 2
 179 542 179 506 177 436 c 0
 175 375 147 337 103 337 c 0
 53 337 34 377 34 486 c 1
 83 486 l 1
 83 457 l 2
 83 415 90 394 105 394 c 0
 127 394 129 457 129 494 c 0
 129 536 129 546 127 555 c 0
 125 565 119 570 111 570 c 0
 99 570 91 559 84 538 c 1
 42 540 l 1
 42 765 l 1
 176 765 l 1
 176 706 l 1
 87 706 l 1
 85 604 l 1
 100 619 115 627 128 627 c 0
 163 627 179 598 179 542 c 2
EndSplineSet
Validated: 1
EndChar

StartChar: sixsuperior
Encoding: 8310 8310 338
Width: 207
GlyphClass: 1
Flags: MW
HStem: 356 21G<85 145> 751 20G<88 138.5>
VStem: 34 54<470 470> 135 55<465 531 531 541>
LayerCount: 2
Fore
SplineSet
190 519 m 0
 190 411 179 356 111 356 c 0
 59 356 33 393 34 470 c 2
 35 667 l 2
 35 729 62 771 114 771 c 0
 163 771 188 727 189 639 c 1
 135 639 l 1
 135 657 l 2
 135 692 127 710 112 710 c 0
 97 710 88 695 88 679 c 2
 88 596 l 1
 101 609 117 618 131 618 c 0
 170 618 190 586 190 519 c 0
135 453 m 2
 135 531 l 2
 135 551 128 561 116 561 c 0
 105 561 97 554 88 538 c 1
 88 453 l 2
 88 433 98 416 111 416 c 0
 126 416 135 432 135 453 c 2
EndSplineSet
Validated: 33
EndChar

StartChar: sevensuperior
Encoding: 8311 8311 339
Width: 171
GlyphClass: 1
Flags: MW
HStem: 331 21G<42 95 42 42> 689 61 733 20G<32 32>
LayerCount: 2
Fore
SplineSet
32 753 m 1xa0
 173 748 l 1
 170 702 l 1
 95 331 l 1
 42 331 l 1
 117 687 l 1
 30 691 l 1
 32 753 l 1xa0
EndSplineSet
Validated: 8388609
EndChar

StartChar: eightsuperior
Encoding: 8312 8312 340
Width: 195
GlyphClass: 1
Flags: MW
HStem: 377 60<94.5 110 94.5 126> 782 20G<75.5 122>
VStem: 30 49<675.5 714 675.5 732> 119 49<672 691>
LayerCount: 2
Fore
SplineSet
175 494 m 0
 175 416 151 377 101 377 c 0
 51 377 26 419 26 504 c 0
 26 548 36 582 56 602 c 1
 37 622 30 652 30 697 c 0
 30 767 52 802 99 802 c 0
 145 802 168 765 168 692 c 0
 168 650 161 623 142 603 c 1
 162 584 175 545 175 494 c 0
119 691 m 0
 118 730 113 751 99 751 c 0
 85 751 79 732 79 696 c 0
 79 655 86 634 100 634 c 0
 113 634 119 653 119 691 c 0
123 502 m 0
 123 546 116 568 101 568 c 0
 85 568 78 547 78 508 c 0
 78 461 86 437 103 437 c 0
 117 437 123 459 123 502 c 0
EndSplineSet
Validated: 1
EndChar

StartChar: ninesuperior
Encoding: 8313 8313 341
Width: 206
GlyphClass: 1
Flags: MW
HStem: 339 62<95 111 95 128.5> 758 20G<66.5 116.5>
VStem: 14 56<640.5 691.5 640.5 698.5> 26 44 124 57
LayerCount: 2
Fore
SplineSet
170 666 m 2xe8
 180 459 l 2
 180 452 181 442 181 437 c 0
 181 376 153 339 104 339 c 0
 55 339 26 378 26 467 c 1xd8
 79 469 l 1
 80 413 86 401 104 401 c 0
 118 401 126 415 127 430 c 2
 122 538 l 1
 110 523 98 517 83 517 c 0
 37 517 14 564 14 659 c 0
 14 738 40 778 93 778 c 0
 140 778 166 741 170 666 c 2xe8
120 599 m 1
 117 681 l 2
 116 705 106 716 91 716 c 0
 77 716 70 704 70 679 c 0
 70 602 77 573 95 573 c 0
 107 573 114 584 120 599 c 1
EndSplineSet
Validated: 1
EndChar

StartChar: zeroinferior
Encoding: 8320 8320 342
Width: 208
GlyphClass: 1
Flags: MW
HStem: -56 60<102.5 118 102.5 133> 351 20G<90.5 140>
VStem: 37 51 135 53
LayerCount: 2
Fore
SplineSet
191 266 m 0
 189 261 190 191 188 56 c 0
 186 -15 157 -56 109 -56 c 0
 57 -56 34 -17 34 59 c 0
 34 78 34 147 37 267 c 0
 38 333 65 371 116 371 c 0
 164 371 191 328 191 266 c 0
134 41 m 2
 137 278 l 2
 137 295 127 309 114 309 c 0
 98 309 90 297 90 279 c 2
 86 41 l 2
 86 22 94 4 111 4 c 0
 125 4 134 20 134 41 c 2
EndSplineSet
Validated: 1
EndChar

StartChar: oneinferior
Encoding: 8321 8321 343
Width: 126
GlyphClass: 1
Flags: MW
HStem: 4 21G<50 50> 394 20G<95 95>
VStem: 46 53
LayerCount: 2
Fore
SplineSet
95 414 m 1
 104 6 l 1
 50 4 l 1
 43 319 l 1
 3 317 l 1
 2 361 l 1
 26 372 45 390 57 413 c 1
 95 414 l 1
EndSplineSet
Validated: 1
EndChar

StartChar: twoinferior
Encoding: 8322 8322 344
Width: 198
GlyphClass: 1
Flags: MW
HStem: 14 21G<27 27> 16 63 376 57<92 109>
VStem: 26 51<292 302 302 307 292 345.5> 124 50<316.5 354.5>
LayerCount: 2
Fore
SplineSet
176 80 m 1x78
 176 18 l 1
 27 14 l 1xb8
 26 75 l 1
 67 153 124 279 124 344 c 0
 124 365 117 376 101 376 c 0
 83 376 77 356 77 307 c 2
 77 292 l 1
 26 292 l 1
 26 302 l 2
 26 389 49 433 103 433 c 0
 148 433 174 398 174 335 c 0
 174 298 163 251 142 198 c 0
 133 175 116 136 85 78 c 1
 176 80 l 1x78
EndSplineSet
Validated: 1
EndChar

